<?xml version="1.0" standalone="no"?><!DOCTYPE svg PUBLIC "-//W3C//DTD SVG 1.1//EN" "http://www.w3.org/Graphics/SVG/1.1/DTD/svg11.dtd"><svg t="1639056849018" class="icon" viewBox="0 0 1024 1024" version="1.1" xmlns="http://www.w3.org/2000/svg" p-id="15960" width="16" height="16" xmlns:xlink="http://www.w3.org/1999/xlink"><defs><style type="text/css"></style></defs><path d="M453.216 607.3664L232.6976 538.7904a74.4832 74.4832 0 0 1-36.9472-64l-0.8256-209.792a73.1136 73.1136 0 0 1 36.448-63.712l1.5424-0.896 54.3488 94.1312a25.6 25.6 0 0 0 22.3552 12.8l88.3072-0.64a25.6 25.6 0 0 0 21.888-12.6464l44.7168-76.1536a25.6 25.6 0 0 0 0.0896-25.76L410.2784 97.984l1.5488-0.896a73.1136 73.1136 0 0 1 73.3952 0.2944l181.28 105.6128a74.4832 74.4832 0 0 1 36.9472 64l-50.8672 225.2608c0.8192 1.2864 1.6128 2.5984 2.3808 3.936l160 277.1264c30.048 52.0384 12.2176 118.5792-39.8208 148.6272l-11.0848 6.4c-52.0384 30.0416-118.5792 12.2112-148.6208-39.8272l-160-277.12c-0.768-1.344-1.5104-2.688-2.2208-4.0384z m60.192-125.9456c24.4864-14.1376 32.896-45.4336 18.7648-69.8944-14.1248-24.4672-45.4272-32.832-69.9136-18.7008-24.4864 14.144-32.896 45.44-18.7648 69.9008 14.1248 24.4608 45.4272 32.832 69.9136 18.6944z" fill="#0aa858" p-id="15961"></path></svg>