<?xml version="1.0" standalone="no"?><!DOCTYPE svg PUBLIC "-//W3C//DTD SVG 1.1//EN" "http://www.w3.org/Graphics/SVG/1.1/DTD/svg11.dtd"><svg t="1646445275972" class="icon" viewBox="0 0 1288 1024" version="1.1" xmlns="http://www.w3.org/2000/svg" p-id="45300" xmlns:xlink="http://www.w3.org/1999/xlink" width="20.125" height="16"><defs><style type="text/css"></style></defs><path d="M1273.197999 476.918508L1008.986135 212.830456a23.400207 23.400207 0 0 0-2.476212-2.476213 49.524248 49.524248 0 0 0-67.476788 72.429213l229.173458 229.173458-229.173458 229.173458a49.524248 49.524248 0 0 0 69.953 69.953l264.211864-264.088053a49.524248 49.524248 0 0 0 0-70.076811zM119.530641 511.956914l229.173458-229.173458 4.828614-5.571478a49.524248 49.524248 0 0 0-74.286372-64.381522L14.539235 476.918508 9.710621 482.861418a49.524248 49.524248 0 0 0 4.828614 64.505333l264.211863 263.716621 5.447668 4.828614a49.524248 49.524248 0 0 0 64.505333-74.286372zM789.346096 1.857159a49.524248 49.524248 0 0 0-61.038636 34.295542L464.095597 960.52279l-1.361917 6.685774a49.524248 49.524248 0 0 0 96.696094 20.552563L823.517827 63.267227l1.485727-6.561963A49.524248 49.524248 0 0 0 789.346096 1.857159z" p-id="45301" fill="#f4b942"></path></svg>