<?xml version="1.0" standalone="no"?><!DOCTYPE svg PUBLIC "-//W3C//DTD SVG 1.1//EN" "http://www.w3.org/Graphics/SVG/1.1/DTD/svg11.dtd"><svg t="1645245922545" class="icon" viewBox="0 0 1024 1024" version="1.1" xmlns="http://www.w3.org/2000/svg" p-id="22062" xmlns:xlink="http://www.w3.org/1999/xlink" width="16" height="16"><defs><style type="text/css"></style></defs><path d="M380.556 292.568V70.24c0-17.224 14.092-31.312 31.316-31.312h25.048c17.224 0 31.316 14.088 31.316 31.312v222.328M584.1 292.568V70.24c0-17.22 14.084-31.312 31.312-31.312h25.048c17.224 0 31.312 14.088 31.312 31.312v222.328" fill="#E0E0E0" p-id="22063"></path><path d="M276.056 420.168v37.952c0 143.544 111.976 249.884 250.108 249.884 138.128 0 250.108-106.344 250.108-249.884v-37.952M841.972 370.072c0.004 27.552-22.552 50.096-50.096 50.096H264.796c-27.552 0-50.096-22.544-50.096-50.096v-14.884c0-27.552 22.544-50.092 50.096-50.092H791.88c27.548 0 50.088 22.544 50.092 50.092v14.884z" fill="#A6A6BF" p-id="22064"></path><path d="M791.884 275.096h-90.108V70.24c0-33.808-27.508-61.312-61.308-61.312h-25.06c-33.804 0.004-61.304 27.508-61.304 61.312v204.856H498.24V70.24c0-16.34-6.392-31.732-17.988-43.328s-26.984-17.984-43.32-17.984H411.876c-33.812 0-61.316 27.504-61.316 61.312v204.856H264.8c-44.164 0-80.096 35.928-80.096 80.092v14.884c0 37.7 26.22 69.32 61.356 77.792v10.252c0 150.024 112.448 268.888 259.556 279.092l-0.004 248.66a30 30 0 0 0 60 0v-250.572c137.736-18.624 240.664-133.648 240.664-277.18v-9.292a79.564 79.564 0 0 0 42.196-22.16c15.16-15.156 23.508-35.256 23.504-56.584l0.004-14.896c-0.012-44.16-35.94-80.088-80.096-80.088zM614.1 70.24c0-0.66 0.648-1.312 1.304-1.312h25.056c0.648 0 1.312 0.664 1.312 1.312v204.856h-27.672V70.24z m-203.544 0c0-0.648 0.664-1.312 1.316-1.312h25.052c-0.012-0.052 0.488 0 0.9 0.412s0.412 0.78 0.412 0.9v204.856h-27.68V70.24z m271.424 545.26c-40.964 40.304-96.3 62.5-155.812 62.5-59.516 0-114.852-22.196-155.816-62.5-41.464-40.792-64.296-96.68-64.296-157.384v-7.948h440.216v7.948c0 60.7-22.836 116.596-64.292 157.384z m129.992-245.428a19.94 19.94 0 0 1-5.924 14.164 19.952 19.952 0 0 1-14.172 5.928H264.796c-10.892 0-20.096-9.204-20.096-20.096v-14.884c0-10.892 9.204-20.092 20.096-20.092H791.88c10.884 0 20.092 9.2 20.092 20.084v14.896z" fill="#6E6E96" p-id="22065"></path><path d="M776.272 488.116H276.056a30 30 0 0 1 0-60h500.216c16.576 0 30 13.432 30 30a30 30 0 0 1-30 30z" fill="#6E6E96" opacity=".2" p-id="22066"></path></svg>