<?xml version="1.0" standalone="no"?><!DOCTYPE svg PUBLIC "-//W3C//DTD SVG 1.1//EN" "http://www.w3.org/Graphics/SVG/1.1/DTD/svg11.dtd"><svg t="1646353145906" class="icon" viewBox="0 0 1024 1024" version="1.1" xmlns="http://www.w3.org/2000/svg" p-id="8022" xmlns:xlink="http://www.w3.org/1999/xlink" width="16" height="16"><defs><style type="text/css"></style></defs><path d="M807.411928 399.090153c68.171983-65.331484 71.012483-173.270458 5.680998-241.442441l-5.680998-5.680999c-73.852982-68.171983-187.472954-68.171983-258.485437 0L250.674064 433.176144c-113.619972 105.098474-119.300971 284.049931-11.361997 394.829404l11.361997 11.361997c119.300971 110.779473 306.773925 110.779473 426.074896 0l139.184466-133.503467c19.883495-19.883495 53.969487-19.883495 73.852982 0 19.883495 17.042996 19.883495 48.288488 2.840499 68.171983l-2.840499 2.840499-136.343967 133.503468c-161.90846 150.546463-414.712899 150.546463-576.621359 0-153.386963-142.024965-159.067961-380.626907-14.202497-534.01387l14.202497-14.202496 298.252427-281.209432C588.693481-26.984743 767.644938-26.984743 884.105409 80.95423c107.938974 102.257975 113.619972 269.847434 11.361997 377.786408l-11.361997 11.361997-76.693481-71.012482z m-258.485437 247.123439l258.485437-247.123439 73.852982 71.012482-258.485437 247.12344c-68.171983 62.490985-173.270458 62.490985-241.442441 0-65.331484-59.650485-65.331484-159.067961-5.680999-224.399445l5.680999-5.680999 167.589459-159.067961c19.883495-19.883495 53.969487-19.883495 73.852982 0 19.883495 17.042996 19.883495 48.288488 2.840499 68.171983l-2.840499 2.8405-167.589459 159.067961c-25.564494 22.723994-25.564494 62.490985-2.840499 85.214979l2.840499 2.840499c25.564494 25.564494 65.331484 25.564494 93.736477 0z" fill="#0C7C59" p-id="8023" data-spm-anchor-id="a313x.7781069.0.i1" class="selected"></path></svg>