<?xml version="1.0" standalone="no"?><!DOCTYPE svg PUBLIC "-//W3C//DTD SVG 1.1//EN" "http://www.w3.org/Graphics/SVG/1.1/DTD/svg11.dtd"><svg t="1646537631453" class="icon" viewBox="0 0 1024 1024" version="1.1" xmlns="http://www.w3.org/2000/svg" p-id="50805" xmlns:xlink="http://www.w3.org/1999/xlink" width="16" height="16"><defs><style type="text/css"></style></defs><path d="M550.848 796.8a224 224 0 0 1-325.248-307.84l8.448-8.96L423.68 290.368h0.128L505.6 208.448a160 160 0 0 1 233.472 218.624l-7.168 7.68-271.552 271.552A96 96 0 0 1 318.336 577.28l6.272-6.848L573.44 321.6a32 32 0 1 1 45.248 45.248l-248.96 248.96a32 32 0 0 0 40.896 48.896l4.416-3.712 271.488-271.488a96 96 0 0 0-128.896-142.016l-6.848 6.208L460.352 344.32 279.296 525.248a160 160 0 0 0 218.624 233.472l7.68-7.168 248.96-248.96a32 32 0 1 1 45.184 45.312L550.848 796.8z" fill="#3399ff" p-id="50806"></path></svg>