<?xml version="1.0" standalone="no"?><!DOCTYPE svg PUBLIC "-//W3C//DTD SVG 1.1//EN" "http://www.w3.org/Graphics/SVG/1.1/DTD/svg11.dtd"><svg t="1646444531364" class="icon" viewBox="0 0 1024 1024" version="1.1" xmlns="http://www.w3.org/2000/svg" p-id="23012" xmlns:xlink="http://www.w3.org/1999/xlink" width="16" height="16"><defs><style type="text/css"></style></defs><path d="M886.4 267.136a251.264 251.264 0 0 0-177.28-72.768h-0.768c-32.192 0-63.68 6.08-93.568 17.92a247.68 247.68 0 0 0-82.88 54.144L297.92 497.664a139.648 139.648 0 0 0-41.664 100.48c0.128 37.952 15.04 73.6 42.24 100.48 27.072 26.816 63.04 41.6 101.376 41.664h0.32c38.272 0 74.112-14.72 101.12-41.152l205.248-202.944a35.008 35.008 0 0 0 0-50.24 35.968 35.968 0 0 0-50.624 0l-205.312 202.88c-13.376 13.312-31.36 20.48-50.56 20.48H400a72.512 72.512 0 0 1-51.008-20.864c-13.568-13.44-21.12-31.36-21.12-50.432a69.12 69.12 0 0 1 20.672-49.984l233.984-231.36a177.664 177.664 0 0 1 125.952-51.2h0.512c48 0 93.12 18.56 126.976 51.84 33.728 33.472 52.416 78.016 52.48 125.44a173.696 173.696 0 0 1-51.712 124.8l-248.192 245.696A264.32 264.32 0 0 1 401.92 888.96h-0.704a266.496 266.496 0 0 1-187.776-76.928 259.584 259.584 0 0 1-77.696-185.6 257.024 257.024 0 0 1 76.736-184.96l320.384-316.8a35.008 35.008 0 0 0 0-50.24 36.032 36.032 0 0 0-50.688-0.064L161.728 391.296A327.68 327.68 0 0 0 64 626.688c0.128 43.264 8.448 85.504 24.96 125.376a335.808 335.808 0 0 0 185.344 183.36 342.208 342.208 0 0 0 126.72 24.576h0.896a337.408 337.408 0 0 0 237.056-96.64l248.192-245.504A245.952 245.952 0 0 0 960 442.496a246.592 246.592 0 0 0-73.6-175.36z" p-id="23013" fill="#f4b942"></path></svg>