<?xml version="1.0" standalone="no"?><!DOCTYPE svg PUBLIC "-//W3C//DTD SVG 1.1//EN" "http://www.w3.org/Graphics/SVG/1.1/DTD/svg11.dtd"><svg t="1639210862148" class="icon" viewBox="0 0 1024 1024" version="1.1" xmlns="http://www.w3.org/2000/svg" p-id="4005" width="16" height="16" xmlns:xlink="http://www.w3.org/1999/xlink"><defs><style type="text/css"></style></defs><path d="M682.664731 739.384528m-284.615472 0a284.615472 284.615472 0 1 0 569.230943 0 284.615472 284.615472 0 1 0-569.230943 0Z" fill="#ffffff" p-id="4006"></path><path d="M682.664731 529.117588a210.26694 210.26694 0 1 1-148.697063 61.569877 208.884522 208.884522 0 0 1 148.697063-61.569877m0-74.348532c-157.189059 0-284.615472 127.426413-284.615472 284.615472s127.426413 284.615472 284.615472 284.615472 284.615472-127.426413 284.615471-284.615472-127.426413-284.615472-284.615471-284.615472z" fill="#ffffff" p-id="4007"></path><path d="M341.335269 682.496285m-284.615471 0a284.615472 284.615472 0 1 0 569.230943 0 284.615472 284.615472 0 1 0-569.230943 0Z" fill="#ffffff" p-id="4008"></path><path d="M481.203444 434.578783a283.244671 283.244671 0 0 1 36.709588 139.868175c0 157.189059-127.426413 284.615472-284.615472 284.615472A283.372457 283.372457 0 0 1 93.417768 822.364459 284.522536 284.522536 0 0 0 341.335269 967.111756c157.189059 0 284.615472-127.426413 284.615472-284.615471a284.522536 284.522536 0 0 0-144.747297-247.917502z" fill="#ffffff" p-id="4009"></path><path d="M341.335269 472.229344a210.26694 210.26694 0 1 1-148.697062 61.569878 208.884522 208.884522 0 0 1 148.697062-61.569878m0-74.348531c-157.189059 0-284.615472 127.426413-284.615471 284.615472s127.426413 284.615472 284.615471 284.615471 284.615472-127.426413 284.615472-284.615471-127.426413-284.615472-284.615472-284.615472z" fill="#ffffff" p-id="4010"></path><path d="M767.82865 199.695509l-28.44993-57.469092-33.387138-0.755102c-0.766719 2.149137-1.359184 4.39121-2.102669 6.551964-185.871329 24.395612-337.519099 133.595017-394.755851 278.644356h62.011322c52.706139-109.454979 170.769283-192.562696 315.36556-218.48013-20.097337 84.304264-24.604717 176.264104-10.269391 270.512485l57.074115-3.810362c-15.043961-94.399401-9.955733-188.008849 13.940349-274.032424 6.819154-0.441444 13.638309-0.987441 20.573633-1.161695z" fill="#ffffff" p-id="4011"></path><path d="M736.311843 141.41323l2.973941 0.789953-2.973941-0.789953z m-30.343495 0c-0.766719 2.149137-1.359184 4.39121-2.102669 6.551965-185.871329 24.395612-337.519099 133.595017-394.755851 278.644355h62.011322c52.706139-109.454979 170.769283-192.562696 315.36556-218.48013-20.097337 84.304264-24.604717 176.264104-10.269391 270.512485l57.074115-3.810362c-15.043961-94.399401-9.955733-188.008849 13.940349-274.032423 6.854005-0.441444 13.67316-0.987441 20.608484-1.161696l-28.44993-57.469092-33.387138-0.755102z m33.317436 0.731869z m0 0z m0 0z m0 0z m0 0z m0 0z m0 0z m0 0z m0 0z m0 0z m0 0z m0 0z m0 0z m0 0z m0 0z" fill="#ffffff" p-id="4012"></path><path d="M910.055067 244.966794a27.636743 27.636743 0 0 0-17.83203-25.696711A538.062645 538.062645 0 0 1 802.528504 174.254371c-69.934087-43.854017-125.590933-100.626091-162.904603-160.499893A28.624185 28.624185 0 0 0 615.309608 0c-22.316176 0-36.570184 24.569866-24.790589 43.528742 41.635178 66.971763 103.390927 129.761421 181.793777 178.901154a590.699082 590.699082 0 0 0 98.256231 49.523092c21.746945 8.526847 39.497657-3.636108 39.497657-26.997811z" fill="#ffffff" p-id="4013"></path><path d="M615.309608 0c-22.316176 0-36.570184 24.569866-24.790589 43.528742 41.635178 66.971763 103.390927 129.761421 181.793777 178.901154a590.699082 590.699082 0 0 0 98.256231 49.523092 36.895459 36.895459 0 0 0 13.44082 2.729985c15.16013 0 26.04522-11.431087 26.04522-29.727796a27.636743 27.636743 0 0 0-17.83203-25.696711A538.062645 538.062645 0 0 1 802.528504 174.254371c-69.934087-43.854017-125.590933-100.626091-162.904603-160.499893A28.624185 28.624185 0 0 0 615.309608 0z" fill="#ffffff" p-id="4014"></path></svg>