<?xml version="1.0" standalone="no"?><!DOCTYPE svg PUBLIC "-//W3C//DTD SVG 1.1//EN" "http://www.w3.org/Graphics/SVG/1.1/DTD/svg11.dtd"><svg t="1639059273171" class="icon" viewBox="0 0 1024 1024" version="1.1" xmlns="http://www.w3.org/2000/svg" p-id="24726" width="16" height="16" xmlns:xlink="http://www.w3.org/1999/xlink"><defs><style type="text/css"></style></defs><path d="M285.728 136.704l24.96 24.96a433.92 433.92 0 0 0-181.024 181.024l-24.96-24.96A128 128 0 1 1 285.76 136.704z m633.568 0a128 128 0 0 1 0 181.024l-24.96 24.96a433.92 433.92 0 0 0-181.056-181.024l24.992-24.96a128 128 0 0 1 181.024 0z" fill="#ffffff" p-id="24727"></path><path d="M512 160C299.936 160 128 331.936 128 544s171.936 384 384 384 384-171.936 384-384S724.064 160 512 160z m0 64c176.736 0 320 143.264 320 320s-143.264 320-320 320S192 720.736 192 544 335.264 224 512 224z" fill="#ffffff" p-id="24728"></path><path d="M512 336a32 32 0 0 1 31.776 28.256L544 368v162.72l118.624 118.656a32 32 0 0 1 2.656 42.24l-2.656 3.008a32 32 0 0 1-42.24 2.656l-3.008-2.656-128-128a32 32 0 0 1-9.088-18.432L480 544v-176a32 32 0 0 1 32-32z" fill="#ffffff" p-id="24729"></path><path d="M285.728 136.704l24.96 24.96a434.016 434.016 0 0 0-174.72 169.568l-6.304 11.456-24.96-24.96a128 128 0 0 1 83.968-218.336L195.2 99.2c32.736 0 65.504 12.48 90.496 37.472z m633.568 0a128 128 0 0 1 0 181.024l-24.96 24.96a433.92 433.92 0 0 0-181.056-181.024l24.992-24.96a127.52 127.52 0 0 1 83.968-37.312l6.528-0.16c32.768 0 65.536 12.48 90.528 37.472zM127.328 159.36a96 96 0 0 0-8.288 126.336l4.16 5.024 4.352-6.56a466.4 466.4 0 0 1 124.576-124.576l6.56-4.352a96.064 96.064 0 0 0-131.36 4.16z m637.92-4.128l6.592 4.32a466.4 466.4 0 0 1 124.608 124.608l4.32 6.56a96 96 0 0 0 0.224-126.72l-4.32-4.64a96 96 0 0 0-126.368-8.256l-5.056 4.128z" fill="#ffffff" p-id="24730"></path></svg>