<?xml version="1.0" standalone="no"?><!DOCTYPE svg PUBLIC "-//W3C//DTD SVG 1.1//EN" "http://www.w3.org/Graphics/SVG/1.1/DTD/svg11.dtd"><svg t="1713747472258" class="icon" viewBox="0 0 1024 1024" version="1.1" xmlns="http://www.w3.org/2000/svg" p-id="6108" width="32" height="32" xmlns:xlink="http://www.w3.org/1999/xlink"><path d="M282.282667 213.333333h459.477333C779.818667 213.333333 810.666667 242.176 810.666667 277.802667v489.173333c0 22.357333-12.373333 43.093333-32.682667 54.869333-20.565333 11.733333-45.525333 12.8-67.029333 2.816l-188.714667-88.32a24.405333 24.405333 0 0 0-20.522667 0l-188.672 88.32a73.045333 73.045333 0 0 1-66.986666-2.858666A63.616 63.616 0 0 1 213.333333 766.976V277.802667C213.333333 242.176 244.224 213.333333 282.282667 213.333333zM512 581.418667l70.357333 34.645333a24.32 24.32 0 0 0 24.192-1.664 20.906667 20.906667 0 0 0 9.130667-20.992l-13.44-73.301333 56.917333-51.84a20.522667 20.522667 0 0 0 5.76-22.016 22.613333 22.613333 0 0 0-18.517333-14.634667l-78.592-10.709333-35.2-66.645334a23.168 23.168 0 0 0-20.608-11.946666 23.168 23.168 0 0 0-20.565333 11.946666l-35.2 66.645334-78.592 10.666666a22.613333 22.613333 0 0 0-18.56 14.634667 20.522667 20.522667 0 0 0 5.802666 22.016l56.917334 51.882667-13.44 73.301333a20.906667 20.906667 0 0 0 9.130666 20.992 24.32 24.32 0 0 0 24.234667 1.664L512 581.418667z" fill="#595DFD" p-id="6109"></path></svg>