<?xml version="1.0" standalone="no"?><!DOCTYPE svg PUBLIC "-//W3C//DTD SVG 1.1//EN" "http://www.w3.org/Graphics/SVG/1.1/DTD/svg11.dtd"><svg t="1708599696920" class="icon" viewBox="0 0 2083 1024" version="1.1" xmlns="http://www.w3.org/2000/svg" p-id="10711" width="97.640625" height="48" xmlns:xlink="http://www.w3.org/1999/xlink"><path d="M231.424 627.2c-9.728 5.12-22.528 1.536-27.648-8.704l-1.536-3.072-57.856-127.488c-0.512-1.536-1.536-2.56-1.536-4.608 0-6.144 4.608-10.752 10.752-10.752 2.56 0 4.608 0.512 6.656 2.048l68.608 48.64c5.12 3.072 11.264 5.12 17.408 5.12 4.096 0 7.168-0.512 10.752-2.048l321.024-143.36c-57.856-67.584-152.576-112.128-260.096-112.128-175.616 0-317.952 118.784-317.952 265.216 0 79.872 43.008 152.064 110.08 200.192 5.12 4.096 8.704 10.752 8.704 17.408 0 2.56-0.512 4.608-1.536 6.656-5.12 19.968-13.824 51.712-14.848 53.76-0.512 2.56-2.048 5.12-2.048 8.192 0 6.144 4.608 10.752 10.752 10.752 2.048 0 4.096-0.512 6.144-2.048l69.632-40.448c5.12-3.072 10.752-4.608 16.384-4.608 3.072 0 6.656 0.512 9.216 1.536 32.768 9.216 67.584 14.848 104.448 14.848 175.616 0 317.952-118.784 317.952-265.216 0-44.544-13.312-86.528-36.352-122.88l-366.08 211.456-1.024 1.536z m1000.96-127.488h178.688v15.36h-178.688v-15.36z m0 50.688h178.688v16.384h-178.688v-16.384z m4.608 156.672h169.472v-96.256h-169.472v96.256z m153.088-15.36H1253.376v-65.536h136.704v65.536z m-196.608-284.672c-15.872 56.32-38.4 105.472-67.584 147.968l8.704 15.36c10.752-15.36 20.48-32.768 31.232-51.712v188.928h16.384v-223.232c10.752-22.528 19.456-45.056 26.624-69.12l-15.36-8.192z m129.536 40.96l12.8-7.168c-2.56-6.144-13.312-27.648-16.384-35.328l-15.36 8.704c5.12 9.728 10.752 19.968 15.36 29.696 0.512 2.048 1.536 2.56 1.536 4.096h-105.472v16.384h215.04v-16.384h-107.52z m-402.944-36.352h15.36v80.384h31.232v-56.32h15.36v71.68h-109.568v-71.68h15.36v56.32h32.768l-0.512-80.384z m-43.008 128h96.768v15.36h-96.768v-15.36z m111.104 87.552l-25.088 20.992v-60.928h-81.408v24.064c2.56 33.792-6.144 57.856-25.088 71.68l8.704 15.36c23.04-19.456 34.304-45.568 32.768-80.384v-15.36h50.688v36.352c-0.512 12.8-1.536 16.384-6.144 22.528l9.216 16.384c8.704-6.656 23.04-19.456 44.032-37.888l-7.68-12.8z m-138.752-219.136c-15.36 31.744-34.304 58.368-56.32 78.848l9.216 15.872c25.088-25.088 45.568-53.76 60.928-86.528l-13.824-8.192z m-2.048 82.432c-15.36 37.376-34.304 69.632-58.368 97.792l8.704 15.36c9.728-11.776 19.456-24.064 28.672-35.84v140.8h15.36V542.72c7.168-13.312 14.848-27.136 20.992-43.008-1.024-0.512-15.36-9.216-15.36-9.216z m251.904-8.704v-15.36h-71.68c6.144-18.432 13.312-40.448 15.872-58.88h-15.872c-10.752 49.152-26.112 91.136-46.592 124.928l9.216 16.384c2.048-3.072 4.096-8.192 7.168-13.824 3.072-6.144 6.144-10.752 7.168-13.824 5.12 44.544 13.824 79.872 26.624 105.472-11.776 20.48-29.696 41.984-54.272 63.488l9.216 15.872c26.112-24.576 44.032-45.056 52.224-62.976 10.752 19.968 29.184 43.008 49.664 63.488l9.216-15.872c-20.992-20.48-39.936-43.008-50.688-62.976 18.432-33.28 29.696-82.432 33.792-145.92h18.944z m-58.88 126.976c-10.752-27.648-18.432-65.024-24.064-111.616 2.048-5.12 4.096-9.728 6.144-15.36h44.032c-3.072 53.248-11.264 95.744-26.112 126.976m919.04 20.48c-11.264-22.016-33.792-58.88-51.712-87.04l13.824-6.656c18.432 27.136 41.984 63.488 52.224 84.48l-14.336 9.216z m-203.776 75.776l4.096-13.824c-51.2-8.192-95.744-22.528-132.608-44.032 39.936-26.624 72.192-60.928 92.16-107.52l-10.752-7.168-3.072 0.512h-86.528v-59.904h130.56v-15.872h-130.56v-55.808h-15.872v55.808h-130.048v15.872h130.048v59.904h-89.088v15.872c19.456 39.936 48.64 73.216 82.944 97.792-38.912 22.016-85.504 36.352-132.608 45.056l4.608 15.36s0 0.512 0.512 0.512c51.2-9.728 100.352-26.624 142.848-51.2 39.936 24.576 87.552 40.96 142.848 49.664l0.512-1.024m-221.696-156.672h162.816c-18.432 37.888-47.616 66.56-82.944 89.088-35.328-23.04-61.952-52.736-79.872-89.088m339.456-145.408c-19.968 53.248-51.2 104.96-85.504 139.264l6.656 17.408 0.512 0.512c14.848-13.824 27.648-31.232 40.448-49.664v196.608h15.872v-221.696c14.848-24.576 27.136-50.688 37.376-77.824l-15.36-4.608z m164.864 74.24v-72.192h-15.872v72.192H1883.136v16.384h139.264v188.416c0 8.192-2.56 9.728-10.752 10.752-6.144 0-12.8 2.048-29.696 2.048v13.824c24.064 0 31.744 0 40.448-2.56 10.752-2.56 15.872-8.192 15.872-24.064v-187.904h45.056v-16.384h-45.056v-0.512z" fill="#14B83B" p-id="10712"></path></svg>