<?xml version="1.0" standalone="no"?><!DOCTYPE svg PUBLIC "-//W3C//DTD SVG 1.1//EN" "http://www.w3.org/Graphics/SVG/1.1/DTD/svg11.dtd"><svg t="1648113739872" class="icon" viewBox="0 0 1024 1024" version="1.1" xmlns="http://www.w3.org/2000/svg" p-id="2639" xmlns:xlink="http://www.w3.org/1999/xlink" width="16" height="16"><defs><style type="text/css">@font-face { font-family: feedback-iconfont; src: url("//at.alicdn.com/t/font_1031158_u69w8yhxdu.woff2?t=1630033759944") format("woff2"), url("//at.alicdn.com/t/font_1031158_u69w8yhxdu.woff?t=1630033759944") format("woff"), url("//at.alicdn.com/t/font_1031158_u69w8yhxdu.ttf?t=1630033759944") format("truetype"); }
</style></defs><path d="M309.773323 52.364848c-31.302424 0-42.665398 26.901888-42.665397 44.983672v158.864655c0 37.857546 30.518245 63.263405 31.816327 64.325472-0.228401-0.175108-0.426349-0.357829-0.635718-0.544357 0.708045 0.639524 70.968149 64.199851 90.625904 90.408922 8.595509 11.465755 18.348253 20.095524 28.984148 25.653294a17.137725 17.137725 0 0 0 25.063257-15.188699V69.494959c0-9.459628-7.681903-17.130112-17.130112-17.130111H309.773323z" fill="#FF0092" p-id="2640"></path><path d="M425.835539 35.234736H309.773323c-13.030305 0-25.101323 3.768625-34.911167 10.902364-7.994052 5.812818-14.240833 13.555628-18.576654 23.007643-5.854691 12.77145-6.307688 24.815822-6.307688 28.203777v158.868461c0 42.726305 30.689546 71.253651 37.237056 76.860907 26.955182 24.366632 74.310424 69.357918 87.999286 87.607198 10.144833 13.532788 21.831375 23.814662 34.766513 30.560118a34.206929 34.206929 0 0 0 15.85487 3.890439 34.28687 34.28687 0 0 0 34.26403-34.260223V69.494959a34.260223 34.260223 0 0 0-34.26403-34.260223zM284.238037 97.340907c0-0.426349 0.197948-27.845948 25.535286-27.845948h116.062216v351.384268c-6.912952-3.61255-15.059271-9.874558-23.213204-20.750275-20.891123-27.853561-92.860431-92.845204-92.860432-92.845205s-25.535286-20.891123-25.535286-51.066766V97.34852l0.01142-0.007613z m3.719138 236.353665c-0.030454-0.015227-0.053294-0.03426-0.076134-0.049486l0.076134 0.049486z" fill="#BF0066" p-id="2641"></path><path d="M604.038186 52.364848a17.137725 17.137725 0 0 0-17.130112 17.130111v349.385755a17.160565 17.160565 0 0 0 26.174811 14.545368l1.914766-1.180075c6.102126-3.722944 14.431167-8.801071 22.470899-19.532133 19.657755-26.205264 89.917859-89.769398 90.62971-90.408922 1.50745-1.412283 31.18061-29.699807 31.18061-66.099391V97.34852c0-18.081784-11.362974-44.983673-42.665398-44.983672h-112.575286z" fill="#00A1FF" p-id="2642"></path><path d="M716.613472 35.234736h-112.579093a34.260223 34.260223 0 0 0-34.260223 34.260223v349.389561a34.256416 34.256416 0 0 0 52.361041 29.08693c0.58623-0.365442 1.187688-0.727078 1.796758-1.092521 6.867271-4.187361 17.229086-10.517888 27.259718-23.871762 13.753576-18.355866 61.516134-63.704981 88.402795-87.976446l0.487257-0.452996c3.719138-3.490736 36.342483-35.371777 36.342483-78.356937V97.34852c0-3.387955-0.452996-15.432327-6.307688-28.203777-4.335822-9.452015-10.567375-17.194825-18.576654-23.007643-9.825071-7.13374-21.896089-10.902364-34.926394-10.902364z m-112.579093 34.260223h112.579093c25.535286 0 25.535286 27.853561 25.535286 27.853561v158.868461c0 29.402885-25.535286 53.385041-25.535286 53.385041s-71.957888 64.99545-92.849011 92.849011c-6.817784 9.097993-13.631762 12.638216-19.745309 16.433487l0.015227-349.389561z" fill="#0072A3" p-id="2643"></path><path d="M264.713517 726.095941c0 135.381175 110.146617 245.531599 245.531598 245.531598 135.388788 0 245.531599-110.150424 245.531599-245.531598s-110.146617-245.531599-245.531599-245.531599c-135.384981 0.007613-245.531599 110.150424-245.531598 245.531599z" fill="#FFAA00" p-id="2644"></path><path d="M510.241309 463.441844c-35.447911 0-69.845175 6.951019-102.247733 20.655108a261.751911 261.751911 0 0 0-83.476937 56.278126 261.774751 261.774751 0 0 0-56.278126 83.476937c-13.704089 32.410171-20.655108 66.807435-20.655108 102.251539s6.951019 69.845175 20.655108 102.243926a261.892758 261.892758 0 0 0 56.278126 83.480743 261.55777 261.55777 0 0 0 83.476937 56.27432c32.413978 13.711703 66.803628 20.662721 102.247733 20.662721s69.848981-6.951019 102.251539-20.662721c31.28339-13.235866 59.36916-32.162736 83.480743-56.27432s43.046067-52.193546 56.278126-83.480743c13.704089-32.410171 20.655108-66.811242 20.655108-102.243926 0-35.447911-6.951019-69.852788-20.655108-102.251539-13.24348-31.279584-32.166543-59.365353-56.278126-83.476937s-52.197353-43.046067-83.480743-56.278126c-32.402558-13.704089-66.807435-20.655108-102.251539-20.655108z m-228.397681 262.66171c0-126.149948 102.259152-228.401487 228.397681-228.401487 126.146141 0 228.405294 102.259152 228.405293 228.401487s-102.259152 228.401487-228.405293 228.401487c-126.138528 0-228.39768-102.259152-228.397681-228.401487z" fill="#BA5A00" p-id="2645"></path><path d="M510.245115 726.796372m-190.01481 0a190.01481 190.01481 0 1 0 380.029621 0 190.01481 190.01481 0 1 0-380.029621 0Z" fill="#FFD500" opacity=".51" p-id="2646"></path><path d="M506.758186 724.245888m-98.973978 0a98.973978 98.973978 0 1 0 197.947956 0 98.973978 98.973978 0 1 0-197.947956 0Z" fill="#FFFF00" opacity=".6" p-id="2647"></path></svg>