<svg xmlns="http://www.w3.org/2000/svg" viewBox="0 0 1000 1000" width="1000" height="1000"><path fill="#FFF" d="M0 0h1000v1000H0z"/><g transform="translate(148.0 13.0) rotate(0.0 376.0 493.5) scale(0.7532805769808675 0.7537803574156101)"><svg width="998.3" height="1309.4" viewBox="0 0 998.3 1309.4"><clipPath id="a"><ellipse cx="630.5" cy="212.1" rx="24.1" ry="27.5"/></clipPath><clipPath id="b"><ellipse cx="534.9" cy="214.1" rx="27.1" ry="30.1"/></clipPath><path d="M438.6 14.3c-96.7 30.1-111 105.9-131.9 194.2-30.4 128.6-182.2 98.9-249.6 205.2s-84.5 280 0 373 415.6 22.7 453.9-73.1c55.8-139.5-54.3-239.2-4-339.8 32.4-64.7 9.3-383.6-68.4-359.5z" fill="#ea2688"/><path d="M544.6 413.3c27.9 14.7 189.5 330.8 214.7 385.6s81.7 204.3 2.1 212.9c-68.5 7.4-157.1 7.3-207.8-119.9-60.3-151.4-110-223-129.4-296.7-28.5-108.3 54.1-216.7 120.4-181.9z" fill="#595DFD"/><path d="M788.4 438.7c-11.3-15.1-181 40.9-180.7 56.6.2 15 204.5-24.9 180.7-56.6z" fill="#111"/><path d="m604.7 417.3 67.5 229.1c32.2 120.8 203.9 40.7 146.9-71.4-1.5-3-95.4-197.5-95.4-197.5-19.2-39.9-130.2 1.4-119 39.8z" fill="#f4bbab"/><path d="M761.5 1011.8c73.6-10.6 98.2-18 129.2-49.6s62-98.2 45.5-153c0 0 18.6-44.4 2.1-75.5-16.5-31-137.6-226.4-137.6-226.4S648.5 539 644.7 557c-10.5 49.2-3.4 71.5 17.3 115.9s6.5 48.5 14.8 71.2c0 0-13.7 65.1 16.1 100.7-12.3 73.3 4.7 176.1 68.6 167z" fill="#595DFD"/><path d="M637 571.6c-13.1-23.7-29.3-47.9-29.3-76.3 17.4 11.9 185.6-31 180.7-56.6 18.8 25.1 24.2 50.9 30 76 0 0-20.2 25.8-68.5 42.3-55.2 18.8-112.9 14.6-112.9 14.6z" fill="#595DFD"/><g fill="#f4bbab"><path d="M604.7 417.3c-7.4-23.6-5.7-57.6 35.4-85.2s50.1-53.2 50.1-53.2 123.7-7 117 13.5c-11 33.9-69.7 85.3-72.5 108-4 33.6-124.8 33.9-130 16.9z"/><path d="M807.2 292.4c9.5-32.4 16.7-75.1 16.6-99.9s-7-73.3-8.1-91c-2-32.7-40.6-37.1-38.8 3.6 1.9 44.6 7.7 83 7.7 83L768.9 282z"/><path d="M783.8 284.5c5.8-21.8 14.2-77.8 13.2-94.1s-49.7-80-58.5-92.4c-17-24-49.1-6.8-29.4 22.2 23.2 34.2 49.4 73.7 49.4 73.7L747.1 281z"/><path d="M760.4 284.2c4.8-19.8 17.4-67.7 12-88.2s-65.3-51-77-57.4c-20.3-11.1-37 24.5-11.8 38.2 25.2 13.8 50.4 29.8 50.4 29.8l-11.1 71.6z"/><path d="M732.8 283c6.1-15 17.5-53 13.4-65.5-4.6-13.8-36.3-29.8-45.1-36-23.2-16.3-40.9 20.7-17.6 35.9 16.3 10.6 24.7 17.7 24.7 17.7l-17.9 43.8z"/></g><path d="M783.8 292c-.6 0-1.2-.1-1.8-.2-4-1-6.5-5-5.5-9.1 6.8-28.1 12.9-71.3 13-92.4 0-7.7-9.7-22-14.5-27.7-2.7-3.2-2.2-7.9 1-10.6s7.9-2.2 10.6 1c1.8 2.2 18 22.1 18 37.3-.1 22-6.4 66.8-13.4 95.8-.9 3.6-4 5.9-7.4 5.9z" fill="#e09273"/><path d="M760.4 291.7c-.6 0-1.2-.1-1.8-.2-4-1-6.5-5-5.5-9 .6-2.3 1.4-5.4 2.3-8.9 4.9-18.7 15.1-57.5 9.8-75.5-3.7-12.6-25-25.7-32.2-29.3-3.7-1.9-5.2-6.4-3.3-10.1s6.4-5.2 10.1-3.3c3.4 1.7 33.6 17.4 39.8 38.5 6 20.3-1.8 53.8-9.7 83.6-.9 3.4-1.7 6.4-2.2 8.5-.8 3.4-3.9 5.7-7.3 5.7z" fill="#e09273"/><path d="M732.8 290.5c-.9 0-1.7-.1-2.6-.5-3.9-1.4-5.9-5.7-4.5-9.6 14.7-40.2 14.5-55.6 13.1-61.2-.1-.2-1.5-5.3-18.3-17.1-10.4-7.3-20.7-12.9-22.9-14-8.7-4.4-12.5-4-12.5-4-9.2 2.4-13-12.1-3.8-14.5 2.4-.8 9.5-1.8 23.1 5.2.4.2 44.6 23.1 49 40.9 3.2 13.1-1.2 35.9-13.6 69.9-1 3.1-3.9 4.9-7 4.9z" fill="#e09273"/><path d="M692.8 852.3c-2.4 0-4.7-1.1-6.2-3.2-28.7-41.3-20.2-92.5-17.7-104.4-3.1-8.3-3.3-15.3-3.5-22.7-.3-10.9-.7-23.2-10.3-46.2-2.1-5-4.2-9.6-6.3-14.2-11.2-24.4-20.8-45.5-12.6-89.1.8-4.1 4.7-6.7 8.8-6 4.1.8 6.7 4.7 6 8.8-7.3 38.9.6 56.2 11.5 80.1 2.1 4.6 4.3 9.4 6.5 14.6 10.8 25.6 11.2 40 11.5 51.6.2 7.4.4 12.8 3.3 19.5.6 1.5.8 3.2.4 4.8-.1.5-13.1 54.3 14.9 94.6 2.4 3.4 1.5 8.1-1.9 10.4-1.5 1-3 1.4-4.4 1.4z" fill="#7E80F1"/><path d="M647.8 580.4c-11.3 0-13.8-1.7-15.1-2.6-13.3-9.3-26.1-38.3-29.7-67.4-.5-4.1 2.4-7.9 6.5-8.4s7.9 2.4 8.4 6.5c3.4 27.8 15.4 50.6 22.8 56.5 9.8 2.2 71.8-4.5 107-15.2 33.3-10.1 57.2-32.1 57.4-32.3 3-2.8 7.8-2.6 10.6.4s2.7 7.8-.4 10.6c-1.1 1-26.6 24.5-63.3 35.7-16.6 5.1-42.3 10-68.6 13.3-17 2.2-28.2 2.9-35.6 2.9zm265.8 290.2c-1.2 0-2.4-.3-3.5-.9-3.7-1.9-5.1-6.5-3.2-10.1.1-.3 14.1-27.1 22-52.6 1.2-4 5.4-6.2 9.4-5s6.2 5.4 5 9.4c-8.2 26.9-22.4 54-23 55.2-1.4 2.5-4 4-6.7 4zm-203.5-88.5c-1.2 0-2.5-.3-3.7-1-2.9-1.6-28.6-16.5-36.6-33.9-1.7-3.8-.1-8.2 3.7-9.9s8.2-.1 9.9 3.7c5.1 11.1 23.6 23.3 30.3 27.1 3.6 2 4.9 6.6 2.8 10.2-1.2 2.4-3.7 3.8-6.4 3.8z" fill="#7E80F1"/><path d="M471.1 232.3c33.3 14.9 48.3 54 33.4 87.3l-39.7 88.9c-14.9 33.3-54 48.3-87.3 33.4-33.3-14.9-48.3-54-33.4-87.3l39.7-88.9c14.9-33.3 54-48.3 87.3-33.4z" fill="#f4bbab"/><path d="M504.3 1035.8c33.3-1.4 56.6-7.7 62-20.5 10-23.9 10.2-87 21.9-147.8 14.9-76.9 35-135.6 20-186.8-18.3-62.5-38-49.3-66.6-152.3-9.3-33.6-25.1-125.4-49.7-130.2 0 0-117.6-15-187.9-25.6s-97.6 12.6-128.1 63.1c-34.8 57.6-84.7 372.6-49.7 480.8 25.2 14.8 51.6 28.6 79 41.3 100.2 46.2 202.7 71.8 299.1 78z" fill="#111"/><path d="M304 365.4c28.2 5.6 174.1 24.3 184.5 26.4s12.7 142.2-17.7 145.4C424.3 542.1 304 365.4 304 365.4z" fill="#f4bbab"/><path d="M595.2 869c14.4-78.7 35.8-139.1 20.9-190.4-18.3-62.5-45.8-47.2-74.4-150.2-9.3-33.6 21.7-98.4 3-115.1-24-21.5-70.5-25.7-70.5-25.7 6.7 43.9 11.6 95.4 21.4 149.8 14.5 80.4 51.5 128.1 51.7 161 .3 59.6-20 141.1-26.5 183.6-6.1 40.3-23.4 143-25.1 153.3 18.9 1.4 37.5 2.1 55.8 2.1 6.2-1.2 11.7-3.2 15.8-6.3 19.3-14.5 20.5-121.7 27.9-162.1zM417 451.3l7.3-37.3-80.2-59.4-15.5 20.9s-108.4-26-143.9 12C121.4 455.4 40.1 735.3 33.5 853.7c50.8 39.5 108.3 74.8 171.6 104.1 67.2 31 135.3 52.7 202 65.5 15.9-38.7 40.4-238.3 35.5-314.6-5.3-82.2-25.6-257.4-25.6-257.4z" fill="#595DFD"/><path d="M539.6 284.2c-1 69.9 25.6 93.7 29.6 135.7 3.1 33.3-9.2 71.9-32.4 96.7 0 0 8.4-50.5-9.5-96.7-12.3-32-38.7-28.1-33.5-90.6 2.8-34.1 45.8-45.1 45.8-45.1z" fill="#ea2688"/><path d="m348.9 326.9 75.4 87.1c-12 17.7-21.6 38.4-28.2 63.1-33.1-36-59.1-70.6-75.8-103.1z" fill="#595DFD"/><path d="M396.1 484.6c-2 0-4-.8-5.4-2.3-2.2-2.3-54.6-57.4-65.8-87-1.5-3.9.5-8.2 4.4-9.7s8.2.5 9.7 4.4c7.6 20.1 38.6 55.7 53.9 72.6 6.7-18.1 18.9-42.6 25.1-52.5 2.2-3.5 6.8-4.6 10.3-2.4s4.6 6.8 2.4 10.3c-7.3 11.7-24.1 46.4-27.2 60.7-.6 2.7-2.6 4.9-5.3 5.6-.7.2-1.4.3-2.1.3z" fill="#7E80F1"/><path d="M383.8 265.7c-17.2 38.5 32.7 95.7-9.7 126-34.1 24.4-65.1-27-84.8-30.4-19.6-3.3 37.3-128.1 94.5-95.6z" fill="#ea2688"/><path d="M650.7 106.9c15.5 28.1 10.4 82.7 8.2 106.6s8.1 57.6-.4 87.9c-9.4 33.6-52.5 67.9-98.8 66.4-46.2-1.5-104.4-42.1-138.7-96.6-34.3-54.4-19.4-198.6 67.8-216.5 87.3-17.9 138.8 10.4 161.9 52.2z" fill="#f4bbab"/><path d="M423.3 208.5c30.2-24.9 28.2-52.5 54.4-66.6s80.6-42.3 100.1-71.2c0 0 54.5-.1 80.9 60.3 10.4-18-3.1-69-57.4-102-45.2-27.4-113-29.7-162.7-14.7-58 17.5-104.6 101.2-61.7 187.4 13.9 28.1 46.4 6.8 46.4 6.8z" fill="#ea2688"/><path d="M423.3 208.5c-16.2-47-82-41.1-68.5 10.7 13.4 51.7 40.3 51.7 57.8 49.7 17.4-2 17.4-40.7 10.7-60.4z" fill="#f4bbab"/><path d="M620.8 169.3c-14.7 8.9-26.5-10.4-8.5-19.9 16.1-8.4 36.4-6.8 49.6 1.2 9.4 5.7 8.2 16.3 1.2 14.7-10.9-2.4-30.5-3.2-42.3 4zm-62.4 1c15.2 8.7 26.1-12.4 7.7-22-15.5-8-49.3-7.1-64.6 2.1-13.4 8.1-10.7 18 .2 14.9 17-4.7 41.4-3.8 56.7 5z" fill="#b7006d"/><path d="M610.5 274.8c-.9 0-1.8-.2-2.6-.5-3.9-1.5-5.8-5.8-4.4-9.7 2.3-6.1 1.3-9.1.8-9.3-1.3-.6-7.9 1.1-13.5 12.4-1.8 3.7-6.3 5.2-10.1 3.4-3.7-1.8-5.2-6.3-3.4-10.1 9.1-18.2 23.4-23.6 32.9-19.4 7.1 3.1 13.2 12.4 7.2 28.3-1.1 3.1-3.9 4.9-6.9 4.9zm-44.8 58.1c-20.7 0-39.4-11-45.5-27.4-1.4-3.9.5-8.2 4.4-9.6s8.2.5 9.6 4.4c4.1 11.2 19.6 18.9 35.1 17.5 4.1-.4 7.8 2.7 8.1 6.8.4 4.1-2.7 7.8-6.8 8.1-1.6.1-3.3.2-4.9.2zm-158.2-84.8c-3.9 0-7.2-3.1-7.5-7-1.2-18.8-14.6-31.3-23.7-31.9-4.1-.3-7.3-3.9-7-8s3.9-7.3 8-7c16.8 1.2 36 19.9 37.6 45.9.3 4.1-2.9 7.7-7 8h-.4z" fill="#e09273"/><path d="M387.6 237.7c-1.9 0-3.7-.7-5.2-2.1-3-2.9-3.1-7.6-.3-10.6l12.2-12.9c2.9-3 7.6-3.1 10.6-.3 3 2.9 3.1 7.6.3 10.6l-12.2 13c-1.5 1.6-3.5 2.3-5.4 2.3z" fill="#e09273"/><path d="M577.8 78.2c-3.5 0-6.7-2.5-7.4-6.1-6.6-35.6-44.9-57.5-100.1-57.1h-.1c-4.1 0-7.5-3.3-7.5-7.4S466 .1 470.1 0C533-.4 577 26.1 585 69.3c.8 4.1-1.9 8-6 8.7-.3.2-.8.2-1.2.2z" fill="#b7006d"/><ellipse cx="630.5" cy="212.1" fill="#fff" rx="24.1" ry="27.5"/><g clip-path="url(#a)"><ellipse cx="627.2" cy="209.6" fill="#111" rx="14.9" ry="21.9"/></g><ellipse cx="534.9" cy="214.1" fill="#fff" rx="27.1" ry="30.1"/><g clip-path="url(#b)"><ellipse cx="532.7" cy="211" fill="#111" rx="17.1" ry="23.3"/></g><path d="M493.1 352.6c-1.2 0-2.5-.3-3.6-.9-17.9-9.9-34.6-27.3-39.3-32.4-2.8-3-2.6-7.8.4-10.6s7.8-2.6 10.6.4c4.3 4.7 19.6 20.6 35.5 29.5 3.6 2 4.9 6.6 2.9 10.2-1.3 2.4-3.9 3.8-6.5 3.8zm-91.3-73c-7 0-15.1-1.8-22.8-8-3.2-2.6-3.7-7.4-1.1-10.6s7.3-3.7 10.6-1.1c5.5 4.5 11.5 5.6 20.7 3.8 4.1-.8 8 1.9 8.8 5.9s-1.9 8-5.9 8.8c-2.9.7-6.5 1.2-10.3 1.2z" fill="#e09273"/><path d="M595.2 876.5c-.4 0-.7 0-1.1-.1-4.1-.6-6.9-4.4-6.3-8.5 2.5-17.6 6.6-35.7 10.8-54.8 10.1-45.6 20.6-92.7 10.2-132.6-4.8-18.4-13.8-31.2-25.1-47.4-15.6-22.2-34.9-49.7-49.2-102.8-1.1-4 1.3-8.1 5.3-9.2s8.1 1.3 9.2 5.3c13.6 50.5 31.4 75.8 47 98.1 11.7 16.7 21.9 31.2 27.4 52.2 11.3 43.4.4 92.3-10.1 139.6-4.2 18.9-8.2 36.7-10.6 53.7-.6 3.8-3.9 6.5-7.5 6.5z" fill="#7E80F1"/><path d="M723.6 1062.1c17.8-1.1 55.7-132.7 53.4-176.3s-56.3 23.9-67.2 88.5c-3.7 21.4-1.7 88.7 13.8 87.8z" fill="#111"/><path d="M139.5 464c4.8-103.5 151.1-161.2 201-48.3 43 97.2 76.2 344 79.4 401.2s-125.7 220.2-165.7 192.9c-50-34-74.8-93.6-84.8-207.7-10.1-114-33.9-253.3-29.9-338.1z" fill="#595DFD"/><path d="M641.8 836.5s157.3 46 208.6 64.8c51.8 19-9.3 150.3-85.8 142.3l-177.3-16.4c-79.4-6.5-26.7-218.6 54.5-190.7z" fill="#f4bbab"/><path d="M250.4 1002.4c12 27.9 50.8 75.4 182.1 40.3 17.6 27.8 67.3 6.8 115.2.8 59.2-7.4 135.5 3.3 135.5 3.3-9.6-70.6 14.7-130.7 66.9-182.2 0 0-137.1-43.5-182.2-48.5s-47.4-16-72.3-21.7c-28.9-6.7-71.3 9.2-71.3 9.2-24.5-19.2-46.3-2.2-76.2 12.5-85.6 42.1-133.4 103.5-97.7 186.3z" fill="#595DFD"/><path d="M725.6 845.1c14.1-3.2 85.2 18.7 73.8 36.3-27.4 2.1-50.5 18.3-67.2 60.4-16.3 41-20.5 110.2-8.6 120.3 0 0-73.4 0-83.8-5.4-10.3-5.4-13-83.6 9.4-131.9 19.6-42.4 49.5-71.4 76.4-79.7z" fill="#595DFD"/><path d="M710.2 859.5c-1 0-1.9-.2-2.9-.6-12.5-5.1-111.2-30-140.8-35.4-16.7-3.1-29.5-7.7-41.8-12.2-10-3.6-19.4-7.1-30.7-9.6-23.6-5.3-66.9 8.9-67.3 9-1.9.6-3.9.5-5.6-.4-21.3-10.4-32.2-5.1-50.1 3.8-5.9 2.9-12.5 6.2-20.1 9-3.9 1.5-8.2-.5-9.7-4.3-1.5-3.9.5-8.2 4.4-9.7 7-2.6 13-5.6 18.8-8.5 18.4-9 34.3-16.9 60.6-5.1 10.7-3.3 48.4-13.9 72.4-8.5 12.2 2.8 22.5 6.5 32.5 10.1 11.8 4.3 23.9 8.7 39.4 11.5 29.3 5.4 129 30.2 143.8 36.3 3.8 1.6 5.7 6 4.1 9.8-1.3 3-4.1 4.8-7 4.8z" fill="#7E80F1"/><path d="M418.5 808.6c-3.8 0-7-2.9-7.4-6.7-11.9-112.3-28.5-210.6-50.8-300.7-1-4 1.5-8.1 5.5-9.1s8.1 1.5 9.1 5.5c22.4 90.7 39.2 189.8 51.1 302.7.4 4.1-2.5 7.8-6.7 8.2-.2 0-.5.1-.8.1zm-164.4 208.8c-1.3 0-2.7-.3-3.9-1.1-34.9-21.1-57.7-64-73.8-139.2-14.9-69.3-23.7-162.9-35-281.3-2.4-25.1-4.9-51.1-7.5-78.4-.4-4.1 2.6-7.8 6.7-8.2s7.8 2.6 8.2 6.7c2.7 27.3 5.1 53.3 7.5 78.4 11.2 118 20 211.2 34.7 279.6 15.2 70.8 35.8 110.8 66.9 129.5 3.5 2.1 4.7 6.8 2.5 10.3-1.3 2.4-3.7 3.7-6.3 3.7zm382 32.4c-3.7 0-6.9-2.7-7.4-6.5-2.9-20.3-6-87.3 16.3-127.1 24.9-44.5 45.2-64.9 77.8-78 13.6-5.5 58 7.5 75.4 22.1 9.7 8.1 10.5 15.7 9.5 20.7-.8 4.1-4.8 6.7-8.9 5.8-4.1-.8-6.7-4.8-5.8-8.9.2-.9-.9-3-3.7-5.5-15.1-13.5-54.3-22.4-60.9-20.2-29.3 11.8-47 29.9-70.3 71.4-18.8 33.5-17.9 93.8-14.5 117.7.6 4.1-2.3 7.9-6.4 8.5-.4-.1-.8 0-1.1 0zm-203.6.3c-3.4 0-6.5-2.4-7.3-5.8-.9-4 1.6-8.1 5.6-9 14.5-3.3 50.6-13.1 66.2-19.2 3.9-1.5 8.2.4 9.7 4.2 1.5 3.9-.4 8.2-4.2 9.7-16.2 6.4-53.4 16.5-68.3 19.9-.6.1-1.2.2-1.7.2z" fill="#7E80F1"/><path d="M850.4 901.3c39.2 14.5 109.6 155.4 126.3 199 12.6 33.1-137.4 83.7-155.7 49.1-20.3-38.2-44.8-62-50.8-88.8-9-40.1 54.6-168.8 80.2-159.3z" fill="#f4bbab"/><path d="M976.6 1100.3c13.2 37.9 26.1 115.1 20.2 131.5-5.8 16.4-58.1 64.1-70.8 74.3-16.1 12.8-46.3-13.7-27.7-35.7 17.9-21 47-51.4 47-51.4l-17-96.6z" fill="#f4bbab"/><path d="M945.4 1114.6c1.9 18 11 94.9 4.9 109.1s-62.5 70.6-69.6 78.6c-18.9 21.3-55.9-12.3-27.8-42.9 26.2-28.6 44-45.8 44-45.8l3.2-78.4z" fill="#f4bbab"/><path d="M913.6 1129c-1.2 15.1-1.2 74.3-10.2 89s-50.7 52.4-56.8 57.8c-19.8 17.5-51.8-16-25.1-36.5 18.3-14 36.5-32.5 36.5-32.5l6.6-63.2z" fill="#f4bbab"/><path d="M873.3 1141.1c-1.9 22-2.8 63.7-10.9 74.8s-54.5 19.3-66.3 22.1c-23.9 5.7-34.9-35.2-7.3-42.4s33-9.9 33-9.9l-1-36.3z" fill="#f4bbab"/><path d="M834.1 1236.6c-3.4 0-6.4-2.3-7.3-5.7-1-4 1.4-8.1 5.4-9.1 10.7-2.7 22.1-7.5 23.9-10 5.5-8.5 8.3-50.3 9.3-66.1.1-1.9.2-3.6.4-5.2.3-4.1 3.9-7.2 8-7 4.1.3 7.2 3.9 7 8-.1 1.5-.2 3.2-.3 5.1-2.1 31.1-4.7 62.4-11.7 73.2-5.7 8.8-24.9 14.4-32.9 16.4-.6.3-1.2.4-1.8.4z" fill="#e09273"/><path d="M842.9 1285.9c-2 0-4-.8-5.4-2.3-2.9-3-2.7-7.8.3-10.6 17.6-16.7 52.7-50.6 59.8-59.6.6-.8 3.9-5.9 6-30 1.4-15.1 1.8-31.7 2.2-43.9.1-4.4.2-8.1.4-10.8.2-4.1 3.7-7.3 7.8-7.1s7.3 3.7 7.1 7.8c-.1 2.6-.2 6.3-.3 10.5-1.3 43.7-3.6 72.9-11.5 82.8-9.6 12-59.1 59.2-61.2 61.2-1.5 1.3-3.3 2-5.2 2z" fill="#e09273"/><path d="M892.6 1297.3c-1.9 0-3.9-.7-5.3-2.2-2.9-3-2.9-7.7.1-10.6 19.5-19.2 51.9-53.4 56-63.6 2.3-5.7 3.3-27.7-4.8-100.5-.2-2-.4-3.7-.6-5-.4-4.1 2.5-7.8 6.7-8.3 4.1-.4 7.8 2.5 8.3 6.7.1 1.3.3 2.9.6 5 7.1 63.4 8.3 96.7 3.8 107.7-6.7 16.5-54.1 63.4-59.4 68.7-1.6 1.4-3.5 2.1-5.4 2.1z" fill="#e09273"/><path d="M486.2 360.6c20.8 13.2 58 89.7 49.2 118.6-5-16.9-25.5-30.9-39.8-32l-9.4 29.9-12.9-87.7z" fill="#595DFD"/><path d="M535.4 486.7c-3.4 0-6.5-2.4-7.3-5.8-3.6-15.2-18.7-22-27.4-24.7l-7.3 23.2c-1.2 4-5.4 6.2-9.4 4.9-4-1.2-6.2-5.4-4.9-9.4l9.4-29.9c1.1-3.5 4.6-5.7 8.3-5.2 1 .2 16.4 2.7 29.4 12.7-2.3-14-7.4-32.1-18.3-50.4-2.1-3.6-.9-8.2 2.6-10.3 3.6-2.1 8.2-.9 10.3 2.6 25.4 42.8 22.3 83.7 22.1 85.4-.3 3.7-3.2 6.6-6.9 6.8-.3.1-.4.1-.6.1z" fill="#7E80F1"/><path d="M477.7 141.9c-22 34.6-6.4 107.2-5.1 150.3 1.3 45.9-21.8 77.3-32.5 97.6-11.4 21.7-13.4 61-2.4 77.9 0 0-39.3-50.2-28-95 5.9-23.3 21.4-33 25.1-76.5 2.1-24.1-.5-49.7-11.6-87.7-9-31.3 28.1-97.8 54.5-66.6z" fill="#ea2688"/><path d="M614.1 364.5c-1.3 0-2.6-.3-3.8-1-3.6-2.1-4.8-6.7-2.7-10.3 6.2-10.5 21.6-22.5 28-27.1 3.3-2.4 8-1.7 10.5 1.6 2.4 3.3 1.7 8-1.6 10.5-11.5 8.4-20.7 17.1-23.9 22.6-1.4 2.4-3.9 3.7-6.5 3.7z" fill="#e09273"/></svg></g></svg>