<?xml version="1.0" standalone="no"?><!DOCTYPE svg PUBLIC "-//W3C//DTD SVG 1.1//EN" "http://www.w3.org/Graphics/SVG/1.1/DTD/svg11.dtd"><svg height="1200" node-id="1" sillyvg="true" template-height="1200" template-width="1200" version="1.1" viewBox="0 0 1200 1200" width="1200" xmlns="http://www.w3.org/2000/svg" xmlns:xlink="http://www.w3.org/1999/xlink"><defs node-id="43"></defs><g node-id="121"><path d="M 0.00 0.00 L 1200.00 0.00 L 1200.00 1200.00 L 0.00 1200.00 Z" fill="#256ae5" fill-opacity="0" fill-rule="nonzero" group-id="1" node-id="46" stroke="none" target-height="1200" target-width="1200" target-x="0" target-y="0"></path></g><g node-id="122"><path d="M 1106.16 443.27 L 1106.16 443.27 C 1106.09 444.36 1106.01 445.45 1105.92 446.53 C 1099.50 520.25 1035.43 575.38 961.58 570.73 L 838.53 563.00 L 847.09 427.00 L 853.09 427.38 Z" fill="#c96a49" fill-rule="nonzero" group-id="2" node-id="50" stroke="none" target-height="148.37958" target-width="267.63" target-x="838.53" target-y="427"></path><g node-id="123"><path d="M 95.40 443.73 L 95.40 443.73 L 95.40 443.73 L 354.98 428.15 L 354.98 428.15 L 363.16 564.44 L 363.16 564.44 L 239.87 571.84 L 230.42 572.08 L 221.20 571.70 L 212.18 570.72 L 203.35 569.15 L 194.60 566.98 L 186.13 564.30 L 177.93 561.09 L 169.96 557.36 L 162.25 553.12 L 154.87 548.43 L 147.83 543.30 L 141.10 537.71 L 134.74 531.70 L 128.81 525.32 L 123.27 518.56 L 118.14 511.40 L 113.48 503.94 L 109.32 496.18 L 105.64 488.09 L 102.44 479.67 L 99.83 471.09 L 97.78 462.25 L 96.30 453.14 L 95.40 443.73 Z" fill="#c96a49" fill-rule="nonzero" group-id="2,3" node-id="54" stroke="none" target-height="143.92264" target-width="267.75735" target-x="95.40201" target-y="428.1542"></path></g><path d="M 895.62 253.11 C 895.62 416.38 763.27 548.74 600.00 548.74 C 436.73 548.74 304.38 416.38 304.38 253.11 C 304.38 244.72 304.71 236.42 305.38 228.21 C 307.44 203.59 312.60 179.33 320.72 156.00 C 350.90 282.26 464.48 376.15 600.00 376.15 C 735.52 376.15 849.10 282.26 879.28 156.00 C 887.39 179.34 892.54 203.60 894.59 228.22 C 895.27 236.42 895.61 244.72 895.62 253.11 Z" fill="#d17e11" fill-rule="nonzero" group-id="2" node-id="57" stroke="none" target-height="392.74" target-width="591.24" target-x="304.38" target-y="156"></path><path d="M 894.59 228.21 C 882.00 379.86 754.90 499.00 600.00 499.00 C 445.10 499.00 318.00 379.86 305.41 228.21 C 307.46 203.59 312.61 179.33 320.72 156.00 C 350.90 282.26 464.48 376.15 600.00 376.15 C 735.52 376.15 849.10 282.26 879.28 156.00 C 887.39 179.33 892.54 203.59 894.59 228.21 Z" fill="#ef9616" fill-rule="nonzero" group-id="2" node-id="59" stroke="none" target-height="343" target-width="589.18005" target-x="305.41" target-y="156"></path><path d="M 403.37 345.29 C 401.10 345.30 398.90 344.52 397.13 343.10 C 371.96 322.97 349.92 299.21 331.73 272.61 C 328.69 268.06 329.88 261.90 334.40 258.81 C 338.92 255.72 345.08 256.83 348.23 261.31 C 365.31 286.28 386.00 308.58 409.62 327.48 C 412.94 330.13 414.22 334.59 412.81 338.60 C 411.40 342.61 407.62 345.29 403.37 345.29 Z" fill="#ffdfc7" fill-rule="nonzero" group-id="2" node-id="61" stroke="none" target-height="89.578415" target-width="85.52533" target-x="328.6919" target-y="255.71678"></path><path d="M 796.63 345.29 C 792.38 345.29 788.60 342.61 787.19 338.60 C 785.78 334.59 787.06 330.13 790.38 327.48 C 814.00 308.58 834.69 286.28 851.77 261.31 C 853.77 258.31 857.22 256.62 860.82 256.89 C 864.41 257.15 867.58 259.32 869.13 262.58 C 870.67 265.83 870.34 269.66 868.27 272.61 C 850.08 299.21 828.04 322.97 802.87 343.10 C 801.10 344.52 798.90 345.30 796.63 345.29 Z" fill="#ffdfc7" fill-rule="nonzero" group-id="2" node-id="63" stroke="none" target-height="88.67175" target-width="84.88544" target-x="785.7828" target-y="256.62344"></path><path d="M 1106.16 443.27 L 1106.16 443.27 C 1106.09 444.36 1106.01 445.45 1105.92 446.53 C 1084.73 502.46 1029.56 538.06 969.86 534.31 L 846.81 526.57 L 853.05 427.35 Z" fill="#db835d" fill-rule="nonzero" group-id="2" node-id="65" stroke="none" target-height="110.708405" target-width="259.35004" target-x="846.81" target-y="427.35"></path><path d="M 93.84 443.27 L 93.84 443.27 C 93.91 444.36 93.99 445.45 94.08 446.53 C 115.27 502.46 170.44 538.06 230.14 534.31 L 353.19 526.57 L 347.00 427.36 Z" fill="#db835d" fill-rule="nonzero" group-id="2" node-id="67" stroke="none" target-height="110.698425" target-width="259.35" target-x="93.84" target-y="427.36"></path><path d="M 600.00 285.41 L 600.00 285.41 C 796.94 285.41 956.60 445.06 956.61 642.00 L 956.61 1200.00 L 956.61 1200.00 L 243.39 1200.00 L 243.39 1200.00 L 243.39 642.00 C 243.40 445.06 403.06 285.41 600.00 285.41 Z" fill="#ffaf73" fill-rule="nonzero" group-id="2" node-id="69" stroke="none" target-height="914.58997" target-width="713.22" target-x="243.39" target-y="285.41"></path><path d="M 863.68 642.00 L 863.68 1200.00 L 243.39 1200.00 L 243.39 642.00 C 243.39 460.81 378.54 311.17 553.54 288.40 C 728.53 311.18 863.68 460.82 863.68 642.00 Z" fill="#ffc28f" fill-rule="nonzero" group-id="2" node-id="71" stroke="none" target-height="911.6" target-width="620.29" target-x="243.39" target-y="288.4"></path><path d="M 318.31 1181.90 C 308.37 1181.90 300.31 1173.84 300.31 1163.90 L 300.31 672.44 C 300.31 662.50 308.37 654.44 318.31 654.44 C 328.25 654.44 336.31 662.50 336.31 672.44 L 336.31 1163.90 C 336.31 1173.84 328.25 1181.90 318.31 1181.90 Z" fill="#ffdfc7" fill-rule="nonzero" group-id="2" node-id="73" stroke="none" target-height="527.46" target-width="36" target-x="300.31" target-y="654.44"></path><path d="M 806.58 502.83 C 783.71 479.41 752.09 466.62 719.37 467.56 C 686.64 468.50 655.80 483.07 634.31 507.76 L 787.31 507.76 C 794.05 507.77 800.68 506.07 806.58 502.83 Z" fill="#f2f2f2" fill-rule="nonzero" group-id="2" node-id="75" stroke="none" target-height="41.148712" target-width="172.27002" target-x="634.31" target-y="466.62234"></path><path d="M 477.28 467.51 C 451.75 467.47 426.92 475.80 406.58 491.23 C 414.14 501.59 426.18 507.73 439.00 507.76 L 565.69 507.76 C 543.45 482.17 511.19 467.48 477.28 467.51 Z" fill="#f2f2f2" fill-rule="nonzero" group-id="2" node-id="77" stroke="none" target-height="40.292206" target-width="159.11002" target-x="406.58" target-y="467.4678"></path><path d="M 722.72 467.51 C 754.30 467.47 784.55 480.21 806.58 502.83 C 809.95 500.98 813.05 498.66 815.77 495.94 C 827.25 484.43 830.67 467.15 824.46 452.13 C 818.24 437.11 803.60 427.30 787.35 427.27 L 439.00 427.27 C 423.81 427.19 409.88 435.70 403.01 449.25 C 396.14 462.80 397.52 479.07 406.57 491.27 C 455.71 454.11 525.23 461.33 565.68 507.80 L 634.30 507.80 C 656.54 482.19 688.80 467.49 722.72 467.51 Z" fill="#ffaf73" fill-rule="nonzero" group-id="2" node-id="79" stroke="none" target-height="80.609955" target-width="434.53088" target-x="396.14362" target-y="427.19003"></path><path d="M 806.58 502.83 C 800.69 506.07 794.07 507.76 787.35 507.76 L 634.35 507.76 C 592.63 555.66 596.65 628.08 643.41 671.07 C 690.18 714.06 762.68 711.99 806.91 666.39 C 851.14 620.80 851.01 548.27 806.62 502.83 Z" fill="#ffffff" fill-rule="nonzero" group-id="2" node-id="81" stroke="none" target-height="211.23312" target-width="258.51257" target-x="592.62866" target-y="502.83"></path><path d="M 406.58 491.23 C 368.16 520.27 351.41 569.85 364.34 616.24 C 377.28 662.63 417.26 696.39 465.16 701.37 C 513.06 706.34 559.13 681.52 581.33 638.78 C 603.52 596.04 597.32 544.08 565.69 507.76 L 439.00 507.76 C 426.18 507.73 414.14 501.59 406.58 491.23 Z" fill="#ffffff" fill-rule="nonzero" group-id="2" node-id="83" stroke="none" target-height="215.11484" target-width="252.1083" target-x="351.4111" target-y="491.23"></path><path d="M 863.68 769.54 L 863.68 1066.77 C 848.38 1071.69 832.41 1074.18 816.34 1074.17 L 415.14 1074.17 C 357.14 1074.17 306.22 1042.06 279.35 994.73 C 252.21 946.44 252.70 887.39 280.63 839.55 C 308.56 791.72 359.75 762.27 415.14 762.16 L 816.34 762.16 C 832.41 762.15 848.38 764.64 863.68 769.54 Z" fill="#ffaf73" fill-rule="nonzero" group-id="2" node-id="85" stroke="none" target-height="312.03375" target-width="611.4652" target-x="252.21475" target-y="762.1502"></path><path d="M 346.54 518.20 C 340.14 518.20 334.21 514.79 330.99 509.26 C 327.77 503.72 327.73 496.89 330.89 491.32 C 368.39 424.95 429.09 374.78 501.33 350.45 C 510.75 347.28 520.96 352.34 524.13 361.77 C 527.31 371.19 522.24 381.40 512.82 384.57 C 448.98 406.07 395.35 450.41 362.22 509.06 C 359.02 514.71 353.03 518.20 346.54 518.20 Z" fill="#ffdfc7" fill-rule="nonzero" group-id="2" node-id="87" stroke="none" target-height="170.92703" target-width="199.57758" target-x="327.7303" target-y="347.27713"></path><path d="M 318.31 623.12 C 308.37 623.12 300.31 615.06 300.31 605.12 L 300.31 602.87 C 300.31 592.93 308.37 584.87 318.31 584.87 C 328.25 584.87 336.31 592.93 336.31 602.87 L 336.31 605.12 C 336.31 615.06 328.25 623.12 318.31 623.12 Z" fill="#ffdfc7" fill-rule="nonzero" group-id="2" node-id="89" stroke="none" target-height="38.25" target-width="36" target-x="300.31" target-y="584.87"></path><path d="M 507.08 600.00 C 507.08 616.46 493.74 629.80 477.28 629.80 C 460.82 629.80 447.48 616.46 447.48 600.00 C 447.48 583.54 460.82 570.20 477.28 570.20 C 493.74 570.20 507.08 583.54 507.08 600.00 Z" fill="#282828" fill-rule="nonzero" group-id="2" node-id="91" stroke="none" target-height="59.599976" target-width="59.599976" target-x="447.48" target-y="570.2"></path><path d="M 752.52 600.00 C 752.52 616.46 739.18 629.80 722.72 629.80 C 706.26 629.80 692.92 616.46 692.92 600.00 C 692.92 583.54 706.26 570.20 722.72 570.20 C 739.18 570.20 752.52 583.54 752.52 600.00 Z" fill="#282828" fill-rule="nonzero" group-id="2" node-id="93" stroke="none" target-height="59.599976" target-width="59.600037" target-x="692.92" target-y="570.2"></path><path d="M 956.61 883.46 C 956.35 969.51 886.66 1039.20 800.61 1039.46 L 399.40 1039.46 C 341.40 1039.46 290.48 1007.35 263.61 960.02 C 236.48 911.73 236.97 852.68 264.90 804.85 C 292.83 757.02 344.01 727.57 399.40 727.46 L 800.60 727.46 C 886.65 727.71 956.35 797.41 956.60 883.46 Z" fill="#f2f2f2" fill-rule="nonzero" group-id="2" node-id="95" stroke="none" target-height="311.99994" target-width="720.1302" target-x="236.47978" target-y="727.46"></path><path d="M 922.72 842.15 C 922.47 928.20 852.77 997.90 766.72 998.15 L 365.52 998.15 C 328.06 998.15 291.86 984.60 263.61 960.00 C 236.49 911.71 236.99 852.67 264.91 804.84 C 292.84 757.02 344.02 727.57 399.40 727.46 L 800.60 727.46 C 838.05 727.46 874.24 741.00 902.50 765.58 C 915.77 788.92 922.74 815.30 922.72 842.15 Z" fill="#ffffff" fill-rule="nonzero" group-id="2" node-id="97" stroke="none" target-height="270.69" target-width="686.25024" target-x="236.48985" target-y="727.46"></path><path d="M 452.61 829.17 C 452.61 854.21 432.31 874.51 407.27 874.51 C 382.23 874.51 361.93 854.21 361.93 829.17 C 361.93 804.13 382.23 783.83 407.27 783.83 C 432.31 783.83 452.61 804.13 452.61 829.17 Z" fill="#f2f2f2" fill-rule="nonzero" group-id="2" node-id="99" stroke="none" target-height="90.67999" target-width="90.67999" target-x="361.93" target-y="783.83"></path><path d="M 849.03 829.17 C 849.03 854.21 828.73 874.51 803.69 874.51 C 778.65 874.51 758.35 854.21 758.35 829.17 C 758.35 804.13 778.65 783.83 803.69 783.83 C 828.73 783.83 849.03 804.13 849.03 829.17 Z" fill="#f2f2f2" fill-rule="nonzero" group-id="2" node-id="101" stroke="none" target-height="90.67999" target-width="90.68005" target-x="758.35" target-y="783.83"></path><path d="M 814.41 456.63 C 814.35 478.83 796.37 496.81 774.17 496.88 L 425.83 496.88 C 410.30 496.84 396.16 487.90 389.48 473.88 C 383.61 461.42 384.51 446.82 391.88 435.17 C 399.25 423.53 412.05 416.46 425.83 416.43 L 774.17 416.43 C 796.37 416.49 814.35 434.47 814.41 456.67 Z" fill="#cc6744" fill-rule="nonzero" group-id="2" node-id="103" stroke="none" target-height="80.45001" target-width="430.80307" target-x="383.6069" target-y="416.43"></path><path d="M 800.86 440.73 C 800.81 462.94 782.82 480.94 760.61 481.00 L 412.28 481.00 C 404.13 481.00 396.17 478.51 389.48 473.86 C 383.61 461.40 384.51 446.80 391.88 435.15 C 399.25 423.51 412.05 416.44 425.83 416.41 L 774.17 416.41 C 782.33 416.40 790.30 418.88 797.00 423.53 C 799.55 428.90 800.87 434.78 800.86 440.73 Z" fill="#db835d" fill-rule="nonzero" group-id="2" node-id="105" stroke="none" target-height="64.6069" target-width="417.2615" target-x="383.6069" target-y="416.39523"></path><path d="M 447.13 825.53 C 447.13 850.57 426.83 870.87 401.79 870.87 C 376.75 870.87 356.45 850.57 356.45 825.53 C 356.45 800.49 376.75 780.19 401.79 780.19 C 426.83 780.19 447.13 800.49 447.13 825.53 Z" fill="#282828" fill-rule="nonzero" group-id="2" node-id="107" stroke="none" target-height="90.67999" target-width="90.67999" target-x="356.45" target-y="780.19"></path><path d="M 843.55 825.53 C 843.55 850.57 823.25 870.87 798.21 870.87 C 773.17 870.87 752.87 850.57 752.87 825.53 C 752.87 800.49 773.17 780.19 798.21 780.19 C 823.25 780.19 843.55 800.49 843.55 825.53 Z" fill="#282828" fill-rule="nonzero" group-id="2" node-id="109" stroke="none" target-height="90.67999" target-width="90.67999" target-x="752.87" target-y="780.19"></path><path d="M 600.00 1018.16 C 551.93 1018.22 509.25 987.42 494.17 941.77 C 490.70 931.28 496.39 919.95 506.88 916.48 C 517.37 913.01 528.70 918.70 532.17 929.19 C 541.89 958.43 569.23 978.15 600.04 978.15 C 630.85 978.15 658.19 958.43 667.91 929.19 C 671.38 918.70 682.71 913.01 693.20 916.48 C 703.69 919.95 709.38 931.28 705.91 941.77 C 690.82 987.44 648.10 1018.26 600.00 1018.16 Z" fill="#ef435d" fill-rule="nonzero" group-id="2" node-id="111" stroke="none" target-height="105.25177" target-width="218.68771" target-x="490.69614" target-y="913.0061"></path><path d="M 150.92 472.33 C 146.50 472.48 142.80 469.02 142.65 464.61 C 142.49 460.19 145.95 456.48 150.37 456.33 L 220.20 451.44 C 224.62 451.13 228.45 454.46 228.76 458.88 C 229.07 463.30 225.74 467.13 221.32 467.44 L 151.49 472.34 Z" fill="#edb09a" fill-rule="nonzero" group-id="2" node-id="113" stroke="none" target-height="21.351166" target-width="86.57616" target-x="142.49312" target-y="451.1307"></path><path d="M 1049.08 472.33 L 1048.52 472.33 L 978.68 467.43 C 974.26 467.12 970.93 463.29 971.24 458.87 C 971.55 454.45 975.38 451.12 979.80 451.43 L 1049.63 456.32 C 1054.05 456.47 1057.51 460.18 1057.35 464.60 C 1057.20 469.01 1053.50 472.47 1049.08 472.32 Z" fill="#edb09a" fill-rule="nonzero" group-id="2" node-id="115" stroke="none" target-height="21.351166" target-width="86.57611" target-x="970.9307" target-y="451.12073"></path><path d="M 437.63 440.96 C 437.63 446.94 432.79 451.78 426.81 451.78 C 420.83 451.78 415.99 446.94 415.99 440.96 C 415.99 434.98 420.83 430.14 426.81 430.14 C 432.79 430.14 437.63 434.98 437.63 440.96 Z" fill="#fca98b" fill-rule="nonzero" group-id="2" node-id="117" stroke="none" target-height="21.639984" target-width="21.640015" target-x="415.99" target-y="430.14"></path><path d="M 655.59 451.46 L 488.00 451.46 C 482.20 451.46 477.50 446.76 477.50 440.96 C 477.50 435.16 482.20 430.46 488.00 430.46 L 655.59 430.46 C 661.39 430.46 666.09 435.16 666.09 440.96 C 666.09 446.76 661.39 451.46 655.59 451.46 Z" fill="#fca98b" fill-rule="nonzero" group-id="2" node-id="119" stroke="none" target-height="21" target-width="188.59003" target-x="477.5" target-y="430.46"></path></g></svg>