<?xml version="1.0" standalone="no"?><!DOCTYPE svg PUBLIC "-//W3C//DTD SVG 1.1//EN" "http://www.w3.org/Graphics/SVG/1.1/DTD/svg11.dtd"><svg height="1200" node-id="1" sillyvg="true" template-height="1200" template-width="1200" version="1.1" viewBox="0 0 1200 1200" width="1200" xmlns="http://www.w3.org/2000/svg" xmlns:xlink="http://www.w3.org/1999/xlink"><defs node-id="47"></defs><g node-id="142"><path d="M 0.00 0.00 L 1200.00 0.00 L 1200.00 1200.00 L 0.00 1200.00 Z" fill="#256ae5" fill-opacity="0" fill-rule="nonzero" group-id="1" node-id="50" stroke="none" target-height="1200" target-width="1200" target-x="0" target-y="0"></path></g><g node-id="143"><g node-id="144"><path d="M 502.86 311.31 L 507.05 321.86 L 510.73 332.33 L 513.91 342.73 L 516.61 353.08 L 518.84 363.38 L 520.66 373.89 L 522.02 384.22 L 522.92 394.40 L 523.37 404.42 L 523.39 414.31 L 522.96 424.31 L 522.11 434.03 L 520.85 443.51 L 519.18 452.74 L 517.10 461.74 L 514.56 470.73 L 511.63 479.37 L 508.32 487.67 L 504.65 495.64 L 500.59 503.30 L 496.07 510.79 L 491.20 517.85 L 485.98 524.50 L 480.40 530.76 L 474.47 536.64 L 468.15 542.12 L 461.49 547.13 L 454.48 551.67 L 447.10 555.76 L 439.33 559.39 L 431.30 562.43 L 423.23 564.87 L 415.09 566.73 L 406.86 568.01 L 398.52 568.72 L 390.17 568.88 L 381.79 568.51 L 373.39 567.62 L 364.93 566.19 L 356.41 564.21 L 348.09 561.77 L 339.81 558.85 L 331.56 555.44 L 323.32 551.51 L 315.10 547.07 L 307.20 542.28 L 299.42 537.04 L 291.74 531.35 L 284.18 525.17 L 276.71 518.50 L 269.64 511.60 L 262.77 504.29 L 256.10 496.55 L 249.63 488.37 L 243.37 479.74 L 237.54 470.96 L 232.01 461.81 L 226.77 452.28 L 221.83 442.34 L 217.18 431.99 L 213.00 421.44 L 209.32 410.97 L 206.14 400.57 L 203.43 390.22 L 201.21 379.92 L 199.38 369.41 L 198.03 359.08 L 197.13 348.90 L 196.68 338.88 L 196.66 328.99 L 197.08 318.99 L 197.93 309.27 L 199.20 299.79 L 200.87 290.56 L 202.95 281.56 L 205.49 272.57 L 208.42 263.93 L 211.72 255.63 L 215.40 247.66 L 219.45 240.00 L 223.98 232.51 L 228.85 225.45 L 234.07 218.80 L 239.64 212.54 L 245.58 206.66 L 251.90 201.18 L 258.56 196.17 L 265.57 191.63 L 272.95 187.54 L 280.72 183.91 L 288.74 180.87 L 296.82 178.43 L 304.96 176.57 L 313.19 175.29 L 321.53 174.58 L 329.88 174.42 L 338.25 174.79 L 346.66 175.68 L 355.12 177.11 L 363.64 179.09 L 371.96 181.53 L 380.24 184.45 L 388.49 187.86 L 396.73 191.79 L 404.95 196.23 L 412.85 201.02 L 420.63 206.26 L 428.30 211.95 L 435.87 218.13 L 443.34 224.80 L 450.41 231.70 L 457.28 239.01 L 463.95 246.75 L 470.41 254.93 L 476.68 263.56 L 482.51 272.34 L 488.04 281.49 L 493.28 291.02 L 498.22 300.96 L 502.86 311.31 Z" fill="#c95506" fill-rule="nonzero" group-id="2,3" node-id="56" stroke="none" target-height="394.45767" target-width="326.72644" target-x="196.66046" target-y="174.42111"></path></g><path d="M 982.80 432.00 C 945.00 521.56 852.60 571.45 760.65 559.37 C 686.12 500.35 660.13 398.86 697.12 311.29 C 735.00 221.72 827.33 171.83 919.27 183.91 C 993.79 242.94 1019.78 344.42 982.80 432.00 Z" fill="#c95506" fill-rule="nonzero" group-id="2" node-id="59" stroke="none" target-height="399.62" target-width="359.64447" target-x="660.13135" target-y="171.83"></path><path d="M 953.15 366.76 C 915.31 456.34 823.00 506.23 731.00 494.15 C 714.14 480.81 699.42 464.96 687.36 447.15 C 675.46 402.03 678.90 354.23 697.12 311.27 C 735.00 221.72 827.33 171.83 919.27 183.91 C 936.13 197.25 950.85 213.10 962.90 230.91 C 974.81 276.02 971.38 323.81 953.15 366.76 Z" fill="#e5630a" fill-rule="nonzero" group-id="2" node-id="61" stroke="none" target-height="334.40002" target-width="299.34247" target-x="675.46265" target-y="171.83"></path><path d="M 752.00 308.64 C 747.76 308.64 743.91 306.20 742.08 302.38 C 740.26 298.56 740.79 294.03 743.45 290.73 C 777.50 248.57 825.77 220.29 879.19 211.19 C 885.18 210.17 890.87 214.19 891.89 220.18 C 892.91 226.17 888.89 231.86 882.90 232.88 C 834.75 241.08 791.25 266.56 760.56 304.55 C 758.47 307.14 755.32 308.64 752.00 308.64 Z" fill="#ed975d" fill-rule="nonzero" group-id="2" node-id="63" stroke="none" target-height="98.47487" target-width="152.65741" target-x="740.2571" target-y="210.16551"></path><path d="M 246.85 366.76 C 284.69 456.34 377.05 506.23 469.00 494.15 C 485.86 480.81 500.58 464.96 512.64 447.15 C 524.54 402.03 521.10 354.23 502.88 311.27 C 465.00 221.72 372.67 171.83 280.73 183.91 C 263.87 197.25 249.15 213.10 237.10 230.91 C 225.19 276.02 228.62 323.81 246.85 366.76 Z" fill="#e5630a" fill-rule="nonzero" group-id="2" node-id="65" stroke="none" target-height="334.40002" target-width="299.34247" target-x="225.1949" target-y="171.83"></path><path d="M 600.00 285.41 L 600.00 285.41 C 796.94 285.41 956.60 445.06 956.61 642.00 L 956.61 1200.00 L 956.61 1200.00 L 243.39 1200.00 L 243.39 1200.00 L 243.39 642.00 C 243.40 445.06 403.06 285.41 600.00 285.41 Z" fill="#ed851d" fill-rule="nonzero" group-id="2" node-id="67" stroke="none" target-height="914.58997" target-width="713.22" target-x="243.39" target-y="285.41"></path><path d="M 863.68 642.00 L 863.68 1200.00 L 243.39 1200.00 L 243.39 642.00 C 243.39 460.81 378.54 311.17 553.54 288.40 C 728.53 311.18 863.68 460.82 863.68 642.00 Z" fill="#fa9c2a" fill-rule="nonzero" group-id="2" node-id="69" stroke="none" target-height="911.6" target-width="620.29" target-x="243.39" target-y="288.4"></path><path d="M 460.50 389.30 L 549.48 416.93 L 553.61 418.54 L 557.34 420.58 L 560.70 423.07 L 563.71 425.97 L 566.27 429.17 L 568.42 432.69 L 570.11 436.45 L 571.29 440.38 L 571.98 444.51 L 572.12 448.68 L 571.69 452.91 L 570.68 457.22 L 570.68 457.22 L 569.07 461.35 L 567.03 465.08 L 564.54 468.44 L 561.64 471.45 L 558.44 474.02 L 554.92 476.16 L 551.16 477.85 L 547.23 479.03 L 543.10 479.72 L 538.93 479.86 L 534.70 479.44 L 530.39 478.42 L 441.41 450.79 L 437.28 449.19 L 433.55 447.14 L 430.19 444.66 L 427.18 441.75 L 424.61 438.56 L 422.47 435.04 L 420.78 431.27 L 419.60 427.34 L 418.91 423.22 L 418.77 419.04 L 419.19 414.81 L 420.21 410.50 L 420.21 410.50 L 421.82 406.37 L 423.86 402.64 L 426.34 399.29 L 429.25 396.27 L 432.45 393.71 L 435.97 391.56 L 439.73 389.87 L 443.66 388.69 L 447.78 388.01 L 451.96 387.86 L 456.19 388.29 L 460.50 389.30 Z" fill="#ed851d" fill-rule="nonzero" group-id="2,4" node-id="73" stroke="none" target-height="92.002625" target-width="153.35303" target-x="418.76788" target-y="387.86008"></path><path d="M 758.56 450.81 L 669.58 478.43 L 665.26 479.45 L 661.04 479.88 L 656.86 479.73 L 652.73 479.05 L 648.81 477.87 L 645.04 476.18 L 641.52 474.03 L 638.32 471.47 L 635.42 468.45 L 632.94 465.09 L 630.89 461.37 L 629.29 457.24 L 629.29 457.24 L 628.27 452.92 L 627.84 448.70 L 627.99 444.52 L 628.68 440.40 L 629.86 436.47 L 631.54 432.70 L 633.69 429.18 L 636.26 425.98 L 639.27 423.08 L 642.63 420.60 L 646.35 418.55 L 650.49 416.95 L 739.46 389.32 L 743.78 388.30 L 748.00 387.88 L 752.18 388.02 L 756.31 388.71 L 760.23 389.89 L 764.00 391.58 L 767.52 393.72 L 770.72 396.29 L 773.62 399.30 L 776.11 402.66 L 778.15 406.39 L 779.75 410.52 L 779.75 410.52 L 780.77 414.83 L 781.20 419.06 L 781.05 423.23 L 780.37 427.36 L 779.18 431.29 L 777.50 435.05 L 775.35 438.57 L 772.78 441.77 L 769.77 444.67 L 766.41 447.16 L 762.69 449.20 L 758.56 450.81 Z" fill="#ed851d" fill-rule="nonzero" group-id="2,5" node-id="78" stroke="none" target-height="92.002655" target-width="153.35315" target-x="627.8439" target-y="387.87717"></path><path d="M 539.24 717.62 C 538.94 742.28 551.93 765.19 573.23 777.61 C 594.54 790.02 620.87 790.02 642.18 777.61 C 663.48 765.19 676.47 742.28 676.17 717.62 Z" fill="#ed851d" fill-rule="nonzero" group-id="2" node-id="81" stroke="none" target-height="72.401306" target-width="137.526" target-x="538.942" target-y="717.62"></path><path d="M 677.43 806.91 L 677.43 984.07 C 676.98 1020.84 647.05 1050.41 610.27 1050.41 C 573.50 1050.41 543.57 1020.84 543.12 984.07 L 543.12 821.88 C 550.43 829.85 560.74 834.38 571.55 834.39 C 572.24 834.39 572.90 834.39 573.55 834.39 C 589.80 833.44 603.75 822.51 608.55 806.96 L 612.00 806.96 C 616.76 822.54 630.73 833.50 647.00 834.39 C 647.67 834.39 648.36 823.48 649.00 823.48 C 660.20 823.43 670.35 814.60 677.43 806.91 Z" fill="#ed851d" fill-rule="nonzero" group-id="2" node-id="83" stroke="none" target-height="243.50055" target-width="134.31" target-x="543.12" target-y="806.91"></path><path d="M 346.54 518.20 C 340.14 518.20 334.21 514.79 330.99 509.26 C 327.77 503.72 327.73 496.89 330.89 491.32 C 368.39 424.95 429.09 374.78 501.33 350.45 C 510.75 347.28 520.96 352.34 524.13 361.77 C 527.31 371.19 522.24 381.40 512.82 384.57 C 448.98 406.07 395.35 450.41 362.22 509.06 C 359.02 514.71 353.03 518.20 346.54 518.20 Z" fill="#ffb96c" fill-rule="nonzero" group-id="2" node-id="85" stroke="none" target-height="170.92703" target-width="199.57758" target-x="327.7303" target-y="347.27713"></path><path d="M 318.31 1181.90 C 308.37 1181.90 300.31 1173.84 300.31 1163.90 L 300.31 672.44 C 300.31 662.50 308.37 654.44 318.31 654.44 C 328.25 654.44 336.31 662.50 336.31 672.44 L 336.31 1163.90 C 336.31 1173.84 328.25 1181.90 318.31 1181.90 Z" fill="#ffb96c" fill-rule="nonzero" group-id="2" node-id="87" stroke="none" target-height="527.46" target-width="36" target-x="300.31" target-y="654.44"></path><path d="M 318.31 623.13 C 308.37 623.13 300.31 615.07 300.31 605.13 L 300.31 602.87 C 300.31 592.93 308.37 584.87 318.31 584.87 C 328.25 584.87 336.31 592.93 336.31 602.87 L 336.31 605.13 C 336.31 615.07 328.25 623.13 318.31 623.13 Z" fill="#ffb96c" fill-rule="nonzero" group-id="2" node-id="89" stroke="none" target-height="38.26001" target-width="36" target-x="300.31" target-y="584.87"></path><path d="M 839.96 584.75 C 839.96 649.50 787.47 701.99 722.72 701.99 C 657.97 701.99 605.48 649.50 605.48 584.75 C 605.48 520.00 657.97 467.51 722.72 467.51 C 787.47 467.51 839.96 520.00 839.96 584.75 Z" fill="#ffffff" fill-rule="nonzero" group-id="2" node-id="91" stroke="none" target-height="234.47998" target-width="234.48004" target-x="605.48" target-y="467.51"></path><path d="M 594.52 584.75 C 594.52 649.50 542.03 701.99 477.28 701.99 C 412.53 701.99 360.04 649.50 360.04 584.75 C 360.04 520.00 412.53 467.51 477.28 467.51 C 542.03 467.51 594.52 520.00 594.52 584.75 Z" fill="#ffffff" fill-rule="nonzero" group-id="2" node-id="93" stroke="none" target-height="234.47998" target-width="234.48001" target-x="360.04" target-y="467.51"></path><path d="M 507.08 600.00 C 507.08 616.46 493.74 629.80 477.28 629.80 C 460.82 629.80 447.48 616.46 447.48 600.00 C 447.48 583.54 460.82 570.20 477.28 570.20 C 493.74 570.20 507.08 583.54 507.08 600.00 Z" fill="#282828" fill-rule="nonzero" group-id="2" node-id="95" stroke="none" target-height="59.599976" target-width="59.599976" target-x="447.48" target-y="570.2"></path><path d="M 752.52 600.00 C 752.52 616.46 739.18 629.80 722.72 629.80 C 706.26 629.80 692.92 616.46 692.92 600.00 C 692.92 583.54 706.26 570.20 722.72 570.20 C 739.18 570.20 752.52 583.54 752.52 600.00 Z" fill="#282828" fill-rule="nonzero" group-id="2" node-id="97" stroke="none" target-height="59.599976" target-width="59.600037" target-x="692.92" target-y="570.2"></path><path d="M 535.28 717.62 C 535.28 753.36 564.26 782.34 600.00 782.34 C 635.74 782.34 664.72 753.36 664.72 717.62 Z" fill="#282828" fill-rule="nonzero" group-id="2" node-id="99" stroke="none" target-height="64.72003" target-width="129.43994" target-x="535.28" target-y="717.62"></path><path d="M 455.61 376.95 L 544.59 404.58 L 548.72 406.18 L 552.45 408.23 L 555.81 410.71 L 558.82 413.61 L 561.39 416.81 L 563.53 420.33 L 565.22 424.10 L 566.40 428.02 L 567.09 432.15 L 567.23 436.33 L 566.81 440.55 L 565.79 444.87 L 565.79 444.87 L 564.18 449.00 L 562.14 452.72 L 559.66 456.08 L 556.75 459.09 L 553.55 461.66 L 550.03 463.81 L 546.27 465.49 L 542.34 466.68 L 538.22 467.36 L 534.04 467.51 L 529.81 467.08 L 525.50 466.06 L 436.52 438.43 L 432.39 436.83 L 428.66 434.79 L 425.31 432.30 L 422.29 429.40 L 419.73 426.20 L 417.58 422.68 L 415.89 418.92 L 414.71 414.99 L 414.03 410.86 L 413.88 406.69 L 414.31 402.46 L 415.32 398.15 L 415.32 398.15 L 416.93 394.01 L 418.97 390.29 L 421.46 386.93 L 424.36 383.92 L 427.56 381.35 L 431.08 379.20 L 434.84 377.52 L 438.77 376.34 L 442.90 375.65 L 447.07 375.51 L 451.30 375.93 L 455.61 376.95 Z" fill="#c95506" fill-rule="nonzero" group-id="2,6" node-id="103" stroke="none" target-height="92.002686" target-width="153.35303" target-x="413.88013" target-y="375.50543"></path><path d="M 763.46 438.43 L 674.46 466.06 C 663.43 469.63 651.34 466.99 642.80 459.15 C 634.26 451.32 630.59 439.50 633.19 428.21 C 635.79 416.91 644.26 407.89 655.37 404.58 L 744.37 376.95 C 761.24 371.99 778.98 381.50 784.19 398.29 C 789.40 415.09 780.17 432.96 763.45 438.43 Z" fill="#c95506" fill-rule="nonzero" group-id="2" node-id="106" stroke="none" target-height="97.63455" target-width="158.81628" target-x="630.5855" target-y="371.99146"></path><path d="M 748.78 428.27 L 659.78 455.89 C 653.32 457.91 646.38 457.83 639.96 455.66 C 633.21 447.37 631.01 436.27 634.10 426.03 C 637.19 415.79 645.16 407.75 655.37 404.58 L 744.37 376.95 C 750.83 374.92 757.77 375.01 764.18 377.19 C 770.94 385.48 773.13 396.58 770.05 406.82 C 766.96 417.06 758.98 425.10 748.77 428.27 Z" fill="#e5630a" fill-rule="nonzero" group-id="2" node-id="108" stroke="none" target-height="82.98883" target-width="142.12183" target-x="631.0131" target-y="374.92413"></path><path d="M 451.22 428.27 L 540.22 455.89 C 546.68 457.91 553.62 457.83 560.04 455.66 C 566.79 447.37 568.99 436.27 565.90 426.03 C 562.81 415.79 554.84 407.75 544.63 404.58 L 455.63 376.95 C 449.17 374.92 442.23 375.01 435.82 377.19 C 429.06 385.48 426.87 396.58 429.95 406.82 C 433.04 417.06 441.02 425.10 451.23 428.27 Z" fill="#e5630a" fill-rule="nonzero" group-id="2" node-id="110" stroke="none" target-height="82.98883" target-width="142.12183" target-x="426.86505" target-y="374.92413"></path><path d="M 667.15 814.00 L 667.15 976.16 C 667.15 1013.25 637.09 1043.31 600.00 1043.31 C 562.91 1043.31 532.85 1013.25 532.85 976.16 L 532.85 814.00 C 540.15 821.97 550.46 826.51 561.27 826.52 C 561.96 826.52 562.63 826.52 563.32 826.46 C 579.58 825.54 593.54 814.59 598.32 799.03 L 601.70 799.03 C 606.46 814.61 620.43 825.57 636.70 826.46 C 637.37 826.46 638.06 826.52 638.70 826.52 C 649.52 826.52 659.84 821.98 667.15 814.00 Z" fill="#ec2862" fill-rule="nonzero" group-id="2" node-id="112" stroke="none" target-height="244.28003" target-width="134.30005" target-x="532.85" target-y="799.03"></path><path d="M 638.70 831.49 C 637.83 831.49 637.07 831.49 636.38 831.42 C 618.02 830.39 602.25 818.01 596.90 800.42 C 596.70 799.77 596.49 799.03 596.26 798.13 C 595.92 796.81 595.65 795.48 595.46 794.13 C 595.15 792.03 595.00 789.91 595.00 787.78 L 595.00 740.59 C 595.00 737.83 597.24 735.59 600.00 735.59 C 602.76 735.59 605.00 737.83 605.00 740.59 L 605.00 787.77 C 605.00 789.40 605.12 791.03 605.35 792.64 C 605.49 793.65 605.69 794.65 605.94 795.64 C 606.11 796.33 606.27 796.92 606.46 797.50 C 610.59 811.09 622.76 820.65 636.94 821.44 C 637.55 821.44 638.14 821.44 638.70 821.44 C 657.29 821.35 672.34 806.31 672.43 787.72 C 672.43 784.96 674.67 782.72 677.43 782.72 C 680.19 782.72 682.43 784.96 682.43 787.72 C 682.34 811.83 662.81 831.35 638.70 831.44 Z" fill="#282828" fill-rule="nonzero" group-id="2" node-id="114" stroke="none" target-height="95.89996" target-width="87.43213" target-x="594.99786" target-y="735.59"></path><path d="M 561.27 831.49 C 537.16 831.41 517.64 811.88 517.57 787.77 C 517.57 785.01 519.81 782.77 522.57 782.77 C 525.33 782.77 527.57 785.01 527.57 787.77 C 527.55 804.50 539.80 818.71 556.35 821.16 C 572.89 823.61 588.73 813.56 593.57 797.55 C 593.77 796.92 593.93 796.33 594.07 795.73 C 594.32 794.74 594.52 793.74 594.66 792.73 C 594.66 792.68 594.66 792.64 594.66 792.59 C 594.91 791.00 595.03 789.40 595.02 787.79 L 595.02 740.59 C 595.02 737.83 597.26 735.59 600.02 735.59 C 602.78 735.59 605.02 737.83 605.02 740.59 L 605.02 787.77 C 605.03 789.88 604.87 791.99 604.54 794.08 C 604.36 795.45 604.10 796.80 603.76 798.14 C 603.53 799.06 603.32 799.80 603.11 800.50 C 597.70 818.06 581.94 830.39 563.60 831.43 C 562.89 831.47 562.15 831.49 561.27 831.49 Z" fill="#282828" fill-rule="nonzero" group-id="2" node-id="116" stroke="none" target-height="95.89996" target-width="87.45618" target-x="517.57" target-y="735.59"></path><path d="M 600.00 971.17 C 598.06 971.17 596.21 970.41 594.84 969.04 C 593.47 967.67 592.70 965.82 592.70 963.88 L 592.70 856.00 C 592.70 851.97 595.97 848.70 600.00 848.70 C 604.03 848.70 607.30 851.97 607.30 856.00 L 607.30 963.88 C 607.30 965.82 606.53 967.67 605.16 969.04 C 603.79 970.41 601.94 971.17 600.00 971.17 Z" fill="#b50f46" fill-rule="nonzero" group-id="2" node-id="118" stroke="none" target-height="122.47266" target-width="14.599976" target-x="592.7" target-y="848.7"></path><path d="M 789.68 1110.79 C 779.74 1110.79 771.68 1102.73 771.68 1092.79 L 771.68 885.00 C 771.68 875.06 779.74 867.00 789.68 867.00 C 799.62 867.00 807.68 875.06 807.68 885.00 L 807.68 1092.81 C 807.67 1102.74 799.61 1110.79 789.68 1110.79 Z" fill="#ed851d" fill-rule="nonzero" group-id="2" node-id="120" stroke="none" target-height="243.79004" target-width="36" target-x="771.68" target-y="867"></path><path d="M 789.68 1181.90 C 779.74 1181.90 771.68 1173.84 771.68 1163.90 L 771.68 1153.78 C 771.68 1143.84 779.74 1135.78 789.68 1135.78 C 799.62 1135.78 807.68 1143.84 807.68 1153.78 L 807.68 1163.90 C 807.68 1173.84 799.62 1181.90 789.68 1181.90 Z" fill="#ed851d" fill-rule="nonzero" group-id="2" node-id="122" stroke="none" target-height="46.119995" target-width="36" target-x="771.68" target-y="1135.78"></path><path d="M 538.49 427.50 C 537.87 427.50 537.26 427.40 536.67 427.22 L 473.84 407.22 C 471.74 406.61 470.14 404.92 469.66 402.79 C 469.17 400.66 469.88 398.44 471.50 396.98 C 473.13 395.53 475.42 395.07 477.48 395.79 L 540.31 415.79 C 543.13 416.68 544.88 419.50 544.43 422.43 C 543.97 425.36 541.45 427.51 538.49 427.51 Z" fill="#ed975d" fill-rule="nonzero" group-id="2" node-id="124" stroke="none" target-height="32.442444" target-width="75.71176" target-x="469.17014" target-y="395.07175"></path><path d="M 455.18 391.82 C 455.18 395.76 451.98 398.96 448.04 398.96 C 444.10 398.96 440.90 395.76 440.90 391.82 C 440.90 387.88 444.10 384.68 448.04 384.68 C 451.98 384.68 455.18 387.88 455.18 391.82 Z" fill="#ed975d" fill-rule="nonzero" group-id="2" node-id="126" stroke="none" target-height="14.279999" target-width="14.279999" target-x="440.9" target-y="384.68"></path><path d="M 661.50 427.50 C 658.54 427.50 656.02 425.34 655.57 422.42 C 655.12 419.49 656.87 416.67 659.69 415.78 L 722.52 395.78 C 724.58 395.06 726.87 395.52 728.50 396.97 C 730.12 398.43 730.83 400.65 730.34 402.78 C 729.86 404.91 728.26 406.60 726.16 407.21 L 663.33 427.21 C 662.74 427.40 662.12 427.50 661.50 427.50 Z" fill="#ed975d" fill-rule="nonzero" group-id="2" node-id="128" stroke="none" target-height="32.438263" target-width="75.70972" target-x="655.1201" target-y="395.06174"></path><path d="M 759.10 391.82 C 759.10 395.76 755.90 398.96 751.96 398.96 C 748.02 398.96 744.82 395.76 744.82 391.82 C 744.82 387.88 748.02 384.68 751.96 384.68 C 755.90 384.68 759.10 387.88 759.10 391.82 Z" fill="#ed975d" fill-rule="nonzero" group-id="2" node-id="130" stroke="none" target-height="14.279999" target-width="14.279968" target-x="744.82" target-y="384.68"></path><path d="M 448.05 308.64 C 444.73 308.64 441.58 307.14 439.49 304.55 C 408.79 266.56 365.29 241.08 317.15 232.88 C 311.16 231.86 307.14 226.17 308.16 220.18 C 309.18 214.19 314.87 210.17 320.86 211.19 C 374.28 220.29 422.55 248.58 456.60 290.73 C 459.26 294.03 459.79 298.56 457.97 302.38 C 456.14 306.20 452.29 308.64 448.05 308.64 Z" fill="#ed975d" fill-rule="nonzero" group-id="2" node-id="132" stroke="none" target-height="98.47487" target-width="152.65744" target-x="307.1355" target-y="210.16551"></path><path d="M 408.50 1007.08 C 396.35 1007.08 386.50 997.23 386.50 985.08 L 386.50 851.25 C 386.50 839.10 396.35 829.25 408.50 829.25 C 420.65 829.25 430.50 839.10 430.50 851.25 L 430.50 985.08 C 430.50 997.23 420.65 1007.08 408.50 1007.08 Z" fill="#ffb96c" fill-rule="nonzero" group-id="2" node-id="134" stroke="none" target-height="177.83002" target-width="44" target-x="386.5" target-y="829.25"></path><path d="M 477.28 1121.85 C 465.13 1121.85 455.28 1112.00 455.28 1099.85 L 455.28 1051.22 C 455.28 1039.07 465.13 1029.22 477.28 1029.22 C 489.43 1029.22 499.28 1039.07 499.28 1051.22 L 499.28 1099.85 C 499.28 1112.00 489.43 1121.85 477.28 1121.85 Z" fill="#ffb96c" fill-rule="nonzero" group-id="2" node-id="136" stroke="none" target-height="92.630005" target-width="44" target-x="455.28" target-y="1029.22"></path><path d="M 543.12 1163.36 C 530.97 1163.36 521.12 1153.51 521.12 1141.36 L 521.12 1132.89 C 521.12 1120.74 530.97 1110.89 543.12 1110.89 C 555.27 1110.89 565.12 1120.74 565.12 1132.89 L 565.12 1141.36 C 565.12 1153.51 555.27 1163.36 543.12 1163.36 Z" fill="#ffb96c" fill-rule="nonzero" group-id="2" node-id="138" stroke="none" target-height="52.46997" target-width="44" target-x="521.12" target-y="1110.89"></path><path d="M 477.28 950.78 C 465.13 950.78 455.28 940.93 455.28 928.78 L 455.28 913.54 C 455.28 901.39 465.13 891.54 477.28 891.54 C 489.43 891.54 499.28 901.39 499.28 913.54 L 499.28 928.78 C 499.28 940.93 489.43 950.78 477.28 950.78 Z" fill="#ffb96c" fill-rule="nonzero" group-id="2" node-id="140" stroke="none" target-height="59.24005" target-width="44" target-x="455.28" target-y="891.54"></path></g></svg>