<?xml version="1.0" standalone="no"?><!DOCTYPE svg PUBLIC "-//W3C//DTD SVG 1.1//EN" "http://www.w3.org/Graphics/SVG/1.1/DTD/svg11.dtd"><svg height="1200" node-id="1" sillyvg="true" template-height="1200" template-width="1200" version="1.1" viewBox="0 0 1200 1200" width="1200" xmlns="http://www.w3.org/2000/svg" xmlns:xlink="http://www.w3.org/1999/xlink"><defs node-id="51"></defs><g node-id="142"><path d="M 0.00 0.00 L 1200.00 0.00 L 1200.00 1200.00 L 0.00 1200.00 Z" fill="#256ae5" fill-opacity="0" fill-rule="nonzero" group-id="1" node-id="54" stroke="none" target-height="1200" target-width="1200" target-x="0" target-y="0"></path></g><g node-id="143"><path d="M 946.24 482.10 L 855.24 526.49 L 785.83 384.15 L 795.42 379.47 L 1019.11 270.30 C 1037.56 308.04 1040.25 351.58 1026.58 391.31 C 1012.92 431.04 984.01 463.70 946.24 482.10 Z" fill="#dd6d22" fill-rule="nonzero" group-id="2" node-id="58" stroke="none" target-height="256.19" target-width="254.42255" target-x="785.83" target-y="270.3"></path><path d="M 941.13 447.28 L 850.13 491.67 L 795.37 379.47 L 1019.11 270.30 C 1023.69 279.65 1027.34 289.43 1030.00 299.49 C 1032.15 361.98 997.33 419.88 941.13 447.28 Z" fill="#ed8435" fill-rule="nonzero" group-id="2" node-id="60" stroke="none" target-height="221.37003" target-width="236.7799" target-x="795.37" target-y="270.3"></path><path d="M 905.83 369.49 C 900.00 369.50 894.94 365.49 893.62 359.81 C 892.31 354.13 895.09 348.30 900.33 345.75 L 992.81 300.62 C 999.01 297.58 1006.51 300.15 1009.55 306.35 C 1012.58 312.56 1010.01 320.05 1003.81 323.09 L 911.30 368.22 C 909.60 369.05 907.73 369.49 905.83 369.49 Z" fill="#ffbe92" fill-rule="nonzero" group-id="2" node-id="62" stroke="none" target-height="71.92197" target-width="120.276306" target-x="892.3063" target-y="297.58243"></path><path d="M 253.76 482.10 L 344.71 526.49 L 414.17 384.15 L 404.58 379.47 L 180.89 270.30 C 162.44 308.04 159.75 351.58 173.42 391.31 C 187.08 431.04 215.99 463.70 253.76 482.10 Z" fill="#dd6d22" fill-rule="nonzero" group-id="2" node-id="64" stroke="none" target-height="256.19" target-width="254.4226" target-x="159.7474" target-y="270.3"></path><path d="M 258.87 447.28 L 349.82 491.67 L 404.58 379.47 L 180.89 270.30 C 176.31 279.65 172.66 289.43 170.00 299.49 C 167.85 361.98 202.67 419.88 258.87 447.28 Z" fill="#ed8435" fill-rule="nonzero" group-id="2" node-id="66" stroke="none" target-height="221.37003" target-width="236.7299" target-x="167.85008" target-y="270.3"></path><path d="M 294.18 369.49 C 292.28 369.49 290.41 369.05 288.70 368.22 L 196.23 323.09 C 190.03 320.05 187.46 312.56 190.49 306.35 C 193.53 300.15 201.03 297.58 207.23 300.62 L 299.71 345.75 C 304.95 348.30 307.73 354.13 306.42 359.81 C 305.11 365.48 300.05 369.50 294.22 369.49 Z" fill="#ffbe92" fill-rule="nonzero" group-id="2" node-id="68" stroke="none" target-height="71.91727" target-width="120.27469" target-x="187.45743" target-y="297.58243"></path><path d="M 956.61 915.13 L 956.61 1200.00 L 243.39 1200.00 L 243.39 915.13 C 243.39 1032.84 403.05 1128.27 600.00 1128.27 C 796.95 1128.27 956.61 1032.84 956.61 915.13 Z" fill="#ed8435" fill-rule="nonzero" group-id="2" node-id="70" stroke="none" target-height="284.87" target-width="713.22" target-x="243.39" target-y="915.13"></path><path d="M 956.61 642.00 L 956.61 915.13 C 956.61 1032.84 796.95 1128.27 600.00 1128.27 C 403.05 1128.27 243.39 1032.84 243.39 915.13 L 243.39 642.00 C 243.39 445.06 403.05 285.40 600.00 285.40 C 796.95 285.40 956.60 445.05 956.61 642.00 Z" fill="#f98b38" fill-rule="nonzero" group-id="2" node-id="72" stroke="none" target-height="842.87" target-width="713.22" target-x="243.39" target-y="285.4"></path><path d="M 863.68 642.00 L 863.68 1200.00 L 243.39 1200.00 L 243.39 642.00 C 243.39 460.81 378.54 311.17 553.54 288.40 C 728.53 311.18 863.68 460.82 863.68 642.00 Z" fill="#ff9f4f" fill-rule="nonzero" group-id="2" node-id="74" stroke="none" target-height="911.6" target-width="620.29" target-x="243.39" target-y="288.4"></path><path d="M 318.31 1181.90 C 308.37 1181.90 300.31 1173.84 300.31 1163.90 L 300.31 672.44 C 300.31 662.50 308.37 654.44 318.31 654.44 C 328.25 654.44 336.31 662.50 336.31 672.44 L 336.31 1163.90 C 336.31 1173.84 328.25 1181.90 318.31 1181.90 Z" fill="#ffbe92" fill-rule="nonzero" group-id="2" node-id="76" stroke="none" target-height="527.46" target-width="36" target-x="300.31" target-y="654.44"></path><path d="M 956.61 949.00 C 956.61 1066.71 796.95 1162.14 600.00 1162.14 C 441.00 1162.14 306.23 1099.91 260.26 1013.96 C 249.26 993.48 243.39 971.65 243.39 948.96 C 243.39 831.25 403.05 735.82 600.00 735.82 C 731.00 735.82 845.41 778.01 907.42 840.88 C 938.68 872.62 956.61 909.57 956.61 949.00 Z" fill="#ed8435" fill-rule="nonzero" group-id="2" node-id="78" stroke="none" target-height="426.32" target-width="713.22" target-x="243.39" target-y="735.82"></path><path d="M 346.54 518.20 C 340.14 518.20 334.21 514.79 330.99 509.26 C 327.77 503.72 327.73 496.89 330.89 491.32 C 368.39 424.95 429.09 374.78 501.33 350.45 C 510.75 347.28 520.96 352.34 524.14 361.76 C 527.31 371.19 522.24 381.40 512.82 384.57 C 448.98 406.07 395.35 450.41 362.22 509.06 C 359.02 514.71 353.03 518.20 346.54 518.20 Z" fill="#ffbe92" fill-rule="nonzero" group-id="2" node-id="80" stroke="none" target-height="170.92703" target-width="199.57758" target-x="327.7303" target-y="347.27713"></path><path d="M 318.31 623.12 C 308.37 623.12 300.31 615.06 300.31 605.12 L 300.31 602.87 C 300.31 592.93 308.37 584.87 318.31 584.87 C 328.25 584.87 336.31 592.93 336.31 602.87 L 336.31 605.12 C 336.31 615.06 328.25 623.12 318.31 623.12 Z" fill="#ffbe92" fill-rule="nonzero" group-id="2" node-id="82" stroke="none" target-height="38.25" target-width="36" target-x="300.31" target-y="584.87"></path><path d="M 956.61 915.13 C 956.61 1032.84 796.95 1128.27 600.00 1128.27 C 441.00 1128.27 306.23 1066.04 260.26 980.09 C 249.26 959.61 243.39 937.78 243.39 915.09 C 243.39 797.42 403.05 702.00 600.00 702.00 C 731.00 702.00 845.41 744.19 907.42 807.06 C 938.68 838.74 956.61 875.69 956.61 915.13 Z" fill="#fcbea2" fill-rule="nonzero" group-id="2" node-id="84" stroke="none" target-height="426.27002" target-width="713.22" target-x="243.39" target-y="702"></path><path d="M 924.30 872.00 C 924.30 989.71 764.64 1085.14 567.69 1085.14 C 436.69 1085.14 322.27 1042.95 260.26 980.07 C 249.26 959.59 243.39 937.76 243.39 915.07 C 243.39 797.42 403.05 702.00 600.00 702.00 C 731.00 702.00 845.41 744.19 907.42 807.06 C 918.38 827.53 924.30 849.36 924.30 872.00 Z" fill="#ffd1ba" fill-rule="nonzero" group-id="2" node-id="86" stroke="none" target-height="383.14" target-width="680.91" target-x="243.39" target-y="702"></path><path d="M 559.19 782.93 C 559.19 795.05 549.36 804.88 537.24 804.88 C 525.12 804.88 515.29 795.05 515.29 782.93 C 515.29 770.81 525.12 760.98 537.24 760.98 C 549.36 760.98 559.19 770.81 559.19 782.93 Z" fill="#fcbea2" fill-rule="nonzero" group-id="2" node-id="88" stroke="none" target-height="43.900024" target-width="43.900024" target-x="515.29" target-y="760.98"></path><path d="M 693.18 782.93 C 693.18 795.05 683.35 804.88 671.23 804.88 C 659.11 804.88 649.28 795.05 649.28 782.93 C 649.28 770.81 659.11 760.98 671.23 760.98 C 683.35 760.98 693.18 770.81 693.18 782.93 Z" fill="#fcbea2" fill-rule="nonzero" group-id="2" node-id="90" stroke="none" target-height="43.900024" target-width="43.899963" target-x="649.28" target-y="760.98"></path><path d="M 839.96 584.75 C 839.96 649.50 787.47 701.99 722.72 701.99 C 657.97 701.99 605.48 649.50 605.48 584.75 C 605.48 520.00 657.97 467.51 722.72 467.51 C 787.47 467.51 839.96 520.00 839.96 584.75 Z" fill="#ffffff" fill-rule="nonzero" group-id="2" node-id="92" stroke="none" target-height="234.47998" target-width="234.48004" target-x="605.48" target-y="467.51"></path><path d="M 594.52 584.75 C 594.52 649.50 542.03 701.99 477.28 701.99 C 412.53 701.99 360.04 649.50 360.04 584.75 C 360.04 520.00 412.53 467.51 477.28 467.51 C 542.03 467.51 594.52 520.00 594.52 584.75 Z" fill="#ffffff" fill-rule="nonzero" group-id="2" node-id="94" stroke="none" target-height="234.47998" target-width="234.48001" target-x="360.04" target-y="467.51"></path><path d="M 507.08 600.00 C 507.08 616.46 493.74 629.80 477.28 629.80 C 460.82 629.80 447.48 616.46 447.48 600.00 C 447.48 583.54 460.82 570.20 477.28 570.20 C 493.74 570.20 507.08 583.54 507.08 600.00 Z" fill="#282828" fill-rule="nonzero" group-id="2" node-id="96" stroke="none" target-height="59.599976" target-width="59.599976" target-x="447.48" target-y="570.2"></path><path d="M 752.52 600.00 C 752.52 616.46 739.18 629.80 722.72 629.80 C 706.26 629.80 692.92 616.46 692.92 600.00 C 692.92 583.54 706.26 570.20 722.72 570.20 C 739.18 570.20 752.52 583.54 752.52 600.00 Z" fill="#282828" fill-rule="nonzero" group-id="2" node-id="98" stroke="none" target-height="59.599976" target-width="59.600037" target-x="692.92" target-y="570.2"></path><path d="M 567.69 459.74 C 567.65 477.36 553.37 491.64 535.75 491.67 L 378.05 491.67 C 365.49 491.63 354.12 484.27 348.94 472.83 C 344.55 462.95 345.44 451.53 351.31 442.45 C 357.18 433.37 367.24 427.87 378.05 427.83 L 535.75 427.83 C 553.37 427.86 567.65 442.14 567.69 459.76 Z" fill="#ad2727" fill-rule="nonzero" group-id="2" node-id="100" stroke="none" target-height="63.840027" target-width="223.1416" target-x="344.5484" target-y="427.83"></path><path d="M 853.88 459.74 C 853.84 477.34 839.60 491.60 822.00 491.67 L 664.25 491.67 C 646.62 491.67 632.32 477.37 632.32 459.74 C 632.32 442.11 646.62 427.81 664.25 427.81 L 822.00 427.81 C 829.82 427.81 837.37 430.70 843.20 435.92 C 843.66 436.33 844.11 436.75 844.55 437.19 C 850.53 443.17 853.89 451.28 853.88 459.74 Z" fill="#ad2727" fill-rule="nonzero" group-id="2" node-id="102" stroke="none" target-height="63.860382" target-width="221.56946" target-x="632.32" target-y="427.80963"></path><path d="M 559.78 449.00 C 559.74 466.62 545.47 480.89 527.85 480.93 L 370.15 480.93 C 362.32 480.93 354.77 478.04 348.94 472.82 C 344.55 462.94 345.44 451.52 351.31 442.44 C 357.18 433.36 367.24 427.86 378.05 427.82 L 535.75 427.82 C 543.59 427.81 551.16 430.69 557.00 435.92 C 558.85 440.03 559.79 444.49 559.78 449.00 Z" fill="#c3433d" fill-rule="nonzero" group-id="2" node-id="104" stroke="none" target-height="53.126404" target-width="215.24646" target-x="344.5484" target-y="427.80548"></path><path d="M 846.00 449.00 C 845.97 466.65 831.65 480.94 814.00 480.94 L 656.34 480.94 C 648.51 480.94 640.96 478.05 635.13 472.82 C 633.27 468.71 632.31 464.25 632.31 459.74 C 632.35 442.12 646.63 427.84 664.25 427.81 L 822.00 427.81 C 829.82 427.81 837.37 430.70 843.20 435.92 C 845.05 440.03 846.01 444.49 846.00 449.00 Z" fill="#c3433d" fill-rule="nonzero" group-id="2" node-id="106" stroke="none" target-height="53.13141" target-width="213.70111" target-x="632.30743" target-y="427.80963"></path><path d="M 638.31 279.76 L 638.31 330.76 C 638.32 351.09 630.25 370.58 615.88 384.95 C 601.51 399.33 582.02 407.40 561.69 407.39 L 561.69 407.39 L 561.69 279.76 C 561.69 263.01 572.57 248.19 588.56 243.19 C 604.55 238.19 621.93 244.15 631.48 257.92 C 631.87 258.47 632.23 259.02 632.58 259.59 C 636.34 265.64 638.33 272.63 638.31 279.76 Z" fill="#ad2727" fill-rule="nonzero" group-id="2" node-id="108" stroke="none" target-height="169.21031" target-width="76.638916" target-x="561.68677" target-y="238.18764"></path><path d="M 714.94 279.76 L 714.94 330.76 C 714.94 373.08 680.63 407.39 638.31 407.39 L 638.31 279.76 C 638.65 258.84 655.70 242.06 676.62 242.06 C 697.55 242.06 714.60 258.84 714.94 279.76 Z" fill="#ad2727" fill-rule="nonzero" group-id="2" node-id="110" stroke="none" target-height="165.33101" target-width="76.630005" target-x="638.31" target-y="242.059"></path><path d="M 561.68 279.76 L 561.68 330.76 C 561.69 351.09 553.62 370.58 539.25 384.95 C 524.88 399.33 505.39 407.40 485.06 407.39 L 485.06 279.76 C 485.06 263.01 495.94 248.21 511.93 243.21 C 527.91 238.20 545.29 244.16 554.84 257.92 C 555.23 258.47 555.59 259.02 555.94 259.59 C 559.70 265.64 561.69 272.63 561.68 279.76 Z" fill="#ad2727" fill-rule="nonzero" group-id="2" node-id="112" stroke="none" target-height="169.19432" target-width="76.63269" target-x="485.06" target-y="238.20363"></path><path d="M 632.16 265.21 L 632.16 316.21 C 632.16 356.15 601.49 389.39 561.68 392.59 L 561.68 279.76 C 561.68 263.01 572.56 248.19 588.55 243.19 C 604.54 238.19 621.92 244.15 631.47 257.92 C 631.93 260.32 632.17 262.76 632.16 265.21 Z" fill="#c3433d" fill-rule="nonzero" group-id="2" node-id="114" stroke="none" target-height="154.40236" target-width="70.4884" target-x="561.6768" target-y="238.18764"></path><path d="M 708.79 265.21 L 708.79 316.21 C 708.79 356.15 678.12 389.39 638.31 392.59 L 638.31 279.76 C 638.31 263.01 649.19 248.19 665.18 243.19 C 681.17 238.19 698.55 244.15 708.10 257.92 C 708.56 260.32 708.80 262.76 708.79 265.21 Z" fill="#c3433d" fill-rule="nonzero" group-id="2" node-id="116" stroke="none" target-height="154.40236" target-width="70.4884" target-x="638.3068" target-y="238.18764"></path><path d="M 555.53 265.21 L 555.53 316.21 C 555.53 356.14 524.86 389.38 485.06 392.59 L 485.06 279.76 C 485.06 263.01 495.94 248.21 511.93 243.21 C 527.91 238.20 545.29 244.16 554.84 257.92 C 555.30 260.32 555.54 262.76 555.53 265.21 Z" fill="#c3433d" fill-rule="nonzero" group-id="2" node-id="118" stroke="none" target-height="154.38637" target-width="70.47522" target-x="485.06" target-y="238.20363"></path><path d="M 780.71 890.59 C 780.72 903.98 779.24 917.33 776.32 930.39 C 757.69 1012.79 684.48 1071.30 600.00 1071.30 C 515.52 1071.30 442.31 1012.79 423.68 930.39 C 420.76 917.33 419.28 903.98 419.29 890.59 Z" fill="#cc470d" fill-rule="nonzero" group-id="2" node-id="120" stroke="none" target-height="180.70709" target-width="361.43283" target-x="419.2836" target-y="890.59"></path><path d="M 776.32 930.39 C 772.31 948.14 765.64 965.18 756.53 980.94 L 443.47 980.94 C 434.36 965.18 427.69 948.14 423.68 930.39 Z" fill="#a3320a" fill-rule="nonzero" group-id="2" node-id="122" stroke="none" target-height="50.549988" target-width="352.64" target-x="423.68" target-y="930.39"></path><path d="M 780.71 890.59 C 780.74 911.68 777.06 932.61 769.84 952.43 L 430.16 952.43 C 422.94 932.61 419.26 911.68 419.29 890.59 Z" fill="#ffffff" fill-rule="nonzero" group-id="2" node-id="124" stroke="none" target-height="61.839966" target-width="361.47522" target-x="419.2624" target-y="890.59"></path><path d="M 423.68 907.33 L 779.94 907.33 C 780.45 901.82 780.71 896.23 780.71 890.59 L 419.29 890.59 C 419.28 907.36 421.60 924.05 426.20 940.18 C 424.52 929.31 423.68 918.33 423.68 907.33 Z" fill="#f2f2f2" fill-rule="nonzero" group-id="2" node-id="126" stroke="none" target-height="49.589966" target-width="361.43307" target-x="419.27695" target-y="890.59"></path><path d="M 554.96 779.54 C 554.96 791.66 545.13 801.49 533.01 801.49 C 520.89 801.49 511.06 791.66 511.06 779.54 C 511.06 767.42 520.89 757.59 533.01 757.59 C 545.13 757.59 554.96 767.42 554.96 779.54 Z" fill="#282828" fill-rule="nonzero" group-id="2" node-id="128" stroke="none" target-height="43.899963" target-width="43.900024" target-x="511.06" target-y="757.59"></path><path d="M 688.94 779.54 C 688.94 791.66 679.11 801.49 666.99 801.49 C 654.87 801.49 645.04 791.66 645.04 779.54 C 645.04 767.42 654.87 757.59 666.99 757.59 C 679.11 757.59 688.94 767.42 688.94 779.54 Z" fill="#282828" fill-rule="nonzero" group-id="2" node-id="130" stroke="none" target-height="43.899963" target-width="43.900024" target-x="645.04" target-y="757.59"></path><path d="M 456.91 454.25 L 385.00 454.25 C 379.75 454.25 375.50 450.00 375.50 444.75 C 375.50 439.50 379.75 435.25 385.00 435.25 L 456.87 435.25 C 462.12 435.25 466.37 439.50 466.37 444.75 C 466.37 450.00 462.12 454.25 456.87 454.25 Z" fill="#f28b8b" fill-rule="nonzero" group-id="2" node-id="132" stroke="none" target-height="19" target-width="90.869995" target-x="375.5" target-y="435.25"></path><path d="M 743.09 454.25 L 671.23 454.25 C 665.98 454.25 661.73 450.00 661.73 444.75 C 661.73 439.50 665.98 435.25 671.23 435.25 L 743.09 435.25 C 748.34 435.25 752.59 439.50 752.59 444.75 C 752.59 450.00 748.34 454.25 743.09 454.25 Z" fill="#f28b8b" fill-rule="nonzero" group-id="2" node-id="134" stroke="none" target-height="19" target-width="90.86005" target-x="661.73" target-y="435.25"></path><path d="M 523.37 271.20 C 523.37 277.80 518.02 283.15 511.42 283.15 C 504.82 283.15 499.47 277.80 499.47 271.20 C 499.47 264.60 504.82 259.25 511.42 259.25 C 518.02 259.25 523.37 264.60 523.37 271.20 Z" fill="#f28b8b" fill-rule="nonzero" group-id="2" node-id="136" stroke="none" target-height="23.899994" target-width="23.899994" target-x="499.47" target-y="259.25"></path><path d="M 599.99 271.20 C 599.99 277.80 594.64 283.15 588.04 283.15 C 581.44 283.15 576.09 277.80 576.09 271.20 C 576.09 264.60 581.44 259.25 588.04 259.25 C 594.64 259.25 599.99 264.60 599.99 271.20 Z" fill="#f28b8b" fill-rule="nonzero" group-id="2" node-id="138" stroke="none" target-height="23.899994" target-width="23.899963" target-x="576.09" target-y="259.25"></path><path d="M 676.62 271.20 C 676.62 277.80 671.27 283.15 664.67 283.15 C 658.07 283.15 652.72 277.80 652.72 271.20 C 652.72 264.60 658.07 259.25 664.67 259.25 C 671.27 259.25 676.62 264.60 676.62 271.20 Z" fill="#f28b8b" fill-rule="nonzero" group-id="2" node-id="140" stroke="none" target-height="23.899994" target-width="23.900024" target-x="652.72" target-y="259.25"></path></g></svg>