<?xml version="1.0" standalone="no"?><!DOCTYPE svg PUBLIC "-//W3C//DTD SVG 1.1//EN" "http://www.w3.org/Graphics/SVG/1.1/DTD/svg11.dtd"><svg height="1200" node-id="1" sillyvg="true" template-height="1200" template-width="1200" version="1.1" viewBox="0 0 1200 1200" width="1200" xmlns="http://www.w3.org/2000/svg" xmlns:xlink="http://www.w3.org/1999/xlink"><defs node-id="38"></defs><g node-id="103"><path d="M 0.00 0.00 L 1200.00 0.00 L 1200.00 1200.00 L 0.00 1200.00 Z" fill="#256ae5" fill-opacity="0" fill-rule="nonzero" group-id="1" node-id="41" stroke="none" target-height="1200" target-width="1200" target-x="0" target-y="0"></path></g><g node-id="104"><path d="M 446.89 437.99 C 446.89 522.26 378.58 590.57 294.31 590.57 C 210.04 590.57 141.73 522.26 141.73 437.99 C 141.73 353.72 210.04 285.41 294.31 285.41 C 378.58 285.41 446.89 353.72 446.89 437.99 Z" fill="#875129" fill-rule="nonzero" group-id="2" node-id="45" stroke="none" target-height="305.16" target-width="305.16003" target-x="141.73" target-y="285.41"></path><path d="M 164.32 396.77 C 164.31 462.12 205.92 520.22 267.79 541.25 C 329.66 562.29 398.06 541.59 437.88 489.77 C 463.41 419.02 433.58 340.21 367.60 304.10 C 301.61 267.99 219.16 285.35 173.33 345.00 C 167.35 361.60 164.30 379.12 164.32 396.77 Z" fill="#99663c" fill-rule="nonzero" group-id="2" node-id="47" stroke="none" target-height="294.2975" target-width="299.11472" target-x="164.2999" target-y="267.99115"></path><path d="M 1058.27 438.00 C 1058.26 512.66 1004.22 576.34 930.56 588.50 C 856.90 600.67 785.26 557.74 761.24 487.06 C 737.22 416.37 767.88 338.68 833.71 303.46 C 899.53 268.23 981.18 285.81 1026.67 345.00 C 1047.17 371.67 1058.28 404.36 1058.27 438.00 Z" fill="#875129" fill-rule="nonzero" group-id="2" node-id="49" stroke="none" target-height="332.4404" target-width="321.05243" target-x="737.22296" target-y="268.22818"></path><path d="M 1035.68 396.77 C 1035.69 462.12 994.08 520.22 932.21 541.25 C 870.34 562.29 801.94 541.59 762.12 489.77 C 736.59 419.02 766.42 340.21 832.40 304.10 C 898.39 267.99 980.84 285.35 1026.67 345.00 C 1032.65 361.60 1035.70 379.12 1035.68 396.77 Z" fill="#99663c" fill-rule="nonzero" group-id="2" node-id="51" stroke="none" target-height="294.2975" target-width="299.1147" target-x="736.5854" target-y="267.99115"></path><path d="M 1008.15 437.99 C 1008.15 494.58 962.28 540.45 905.69 540.45 C 849.10 540.45 803.23 494.58 803.23 437.99 C 803.23 381.40 849.10 335.53 905.69 335.53 C 962.28 335.53 1008.15 381.40 1008.15 437.99 Z" fill="#82512b" fill-rule="nonzero" group-id="2" node-id="53" stroke="none" target-height="204.92001" target-width="204.92004" target-x="803.23" target-y="335.53"></path><path d="M 396.77 437.99 C 396.77 494.58 350.90 540.45 294.31 540.45 C 237.72 540.45 191.85 494.58 191.85 437.99 C 191.85 381.40 237.72 335.53 294.31 335.53 C 350.90 335.53 396.77 381.40 396.77 437.99 Z" fill="#82512b" fill-rule="nonzero" group-id="2" node-id="55" stroke="none" target-height="204.92001" target-width="204.91998" target-x="191.85" target-y="335.53"></path><path d="M 294.31 285.41 C 248.42 285.35 204.95 306.00 176.00 341.61 C 230.37 302.98 303.54 304.13 356.67 344.46 C 409.79 384.78 430.58 454.94 408.00 517.70 C 407.12 518.85 406.22 519.98 405.30 521.10 C 417.64 512.31 428.61 501.75 437.85 489.75 C 454.67 443.00 447.68 390.98 419.12 350.32 C 390.56 309.67 344.00 285.45 294.31 285.41 Z" fill="#bf8558" fill-rule="nonzero" group-id="2" node-id="57" stroke="none" target-height="235.74738" target-width="278.6662" target-x="176" target-y="285.3526"></path><path d="M 905.69 285.41 C 951.58 285.36 995.05 306.00 1024.00 341.61 C 969.62 302.99 896.47 304.16 843.35 344.48 C 790.23 384.80 769.43 454.94 792.00 517.70 C 792.88 518.85 793.78 519.98 794.70 521.10 C 782.36 512.31 771.39 501.75 762.15 489.75 C 745.33 443.00 752.32 390.98 780.88 350.32 C 809.44 309.67 856.00 285.45 905.69 285.41 Z" fill="#bf8558" fill-rule="nonzero" group-id="2" node-id="59" stroke="none" target-height="235.74307" target-width="278.6662" target-x="745.3338" target-y="285.3569"></path><path d="M 600.00 285.41 L 600.00 285.41 C 796.94 285.41 956.60 445.06 956.61 642.00 L 956.61 1200.00 L 956.61 1200.00 L 243.39 1200.00 L 243.39 1200.00 L 243.39 642.00 C 243.40 445.06 403.06 285.41 600.00 285.41 Z" fill="#915a30" fill-rule="nonzero" group-id="2" node-id="61" stroke="none" target-height="914.58997" target-width="713.22" target-x="243.39" target-y="285.41"></path><path d="M 863.68 642.00 L 863.68 1200.00 L 243.39 1200.00 L 243.39 642.00 C 243.39 460.81 378.54 311.17 553.54 288.40 C 728.53 311.18 863.68 460.82 863.68 642.00 Z" fill="#99663c" fill-rule="nonzero" group-id="2" node-id="63" stroke="none" target-height="911.6" target-width="620.29" target-x="243.39" target-y="288.4"></path><path d="M 346.54 518.20 C 340.14 518.20 334.21 514.79 330.99 509.26 C 327.77 503.72 327.73 496.89 330.89 491.32 C 368.39 424.95 429.09 374.78 501.33 350.45 C 510.75 347.28 520.96 352.34 524.13 361.77 C 527.31 371.19 522.24 381.40 512.82 384.57 C 448.98 406.07 395.35 450.41 362.22 509.06 C 359.02 514.71 353.03 518.20 346.54 518.20 Z" fill="#c48c62" fill-rule="nonzero" group-id="2" node-id="65" stroke="none" target-height="170.92703" target-width="199.57758" target-x="327.7303" target-y="347.27713"></path><path d="M 318.31 1181.90 C 308.37 1181.90 300.31 1173.84 300.31 1163.90 L 300.31 672.44 C 300.31 662.50 308.37 654.44 318.31 654.44 C 328.25 654.44 336.31 662.50 336.31 672.44 L 336.31 1163.90 C 336.31 1173.84 328.25 1181.90 318.31 1181.90 Z" fill="#c48c62" fill-rule="nonzero" group-id="2" node-id="67" stroke="none" target-height="527.46" target-width="36" target-x="300.31" target-y="654.44"></path><path d="M 905.69 584.76 C 905.69 685.76 823.77 767.76 722.69 767.76 C 677.33 767.81 633.59 750.94 600.00 720.46 C 526.81 786.68 414.30 782.93 345.68 711.99 C 277.07 641.05 277.07 528.47 345.68 457.53 C 414.30 386.59 526.81 382.84 600.00 449.06 C 653.66 400.57 730.84 388.24 796.94 417.58 C 863.04 446.92 905.66 512.44 905.69 584.76 Z" fill="#f4c49d" fill-rule="nonzero" group-id="2" node-id="69" stroke="none" target-height="403.83475" target-width="628.6226" target-x="277.06738" target-y="382.84262"></path><path d="M 876.89 559.74 C 876.86 632.06 834.24 697.58 768.14 726.92 C 702.04 756.26 624.86 743.93 571.20 695.44 C 507.93 752.65 413.53 758.57 343.62 709.70 C 277.21 637.98 278.89 526.73 347.44 457.04 C 415.98 387.36 527.19 383.84 600.00 449.06 C 663.27 391.85 757.67 385.93 827.58 434.80 C 859.32 468.65 876.96 513.34 876.89 559.74 Z" fill="#fddbbc" fill-rule="nonzero" group-id="2" node-id="71" stroke="none" target-height="374.722" target-width="599.7423" target-x="277.21298" target-y="383.84387"></path><path d="M 783.00 832.14 C 783.00 933.19 701.09 1015.14 600.00 1015.14 C 498.93 1015.14 417.00 933.21 417.00 832.14 C 417.00 731.07 498.93 649.14 600.00 649.14 C 701.07 649.14 783.00 731.07 783.00 832.14 Z" fill="#f4c49d" fill-rule="nonzero" group-id="2" node-id="73" stroke="none" target-height="366" target-width="366" target-x="417" target-y="649.14"></path><path d="M 764.61 788.78 C 764.57 871.38 709.21 943.72 629.48 965.33 C 549.75 986.94 465.43 952.45 423.69 881.17 C 399.01 792.54 443.97 699.37 528.70 663.54 C 613.43 627.70 711.60 660.34 758.00 739.78 C 762.41 755.74 764.63 772.22 764.61 788.78 Z" fill="#fddbbc" fill-rule="nonzero" group-id="2" node-id="75" stroke="none" target-height="359.2364" target-width="365.62064" target-x="399.01285" target-y="627.7015"></path><path d="M 571.71 792.16 C 571.71 809.51 557.65 823.57 540.30 823.57 C 522.95 823.57 508.89 809.51 508.89 792.16 C 508.89 774.81 522.95 760.75 540.30 760.75 C 557.65 760.75 571.71 774.81 571.71 792.16 Z" fill="#f4c49d" fill-rule="nonzero" group-id="2" node-id="77" stroke="none" target-height="62.820007" target-width="62.820007" target-x="508.89" target-y="760.75"></path><path d="M 702.07 792.16 C 702.07 809.51 688.01 823.57 670.66 823.57 C 653.31 823.57 639.25 809.51 639.25 792.16 C 639.25 774.81 653.31 760.75 670.66 760.75 C 688.01 760.75 702.07 774.81 702.07 792.16 Z" fill="#f4c49d" fill-rule="nonzero" group-id="2" node-id="79" stroke="none" target-height="62.820007" target-width="62.820007" target-x="639.25" target-y="760.75"></path><path d="M 839.96 584.75 C 839.96 649.50 787.47 701.99 722.72 701.99 C 657.97 701.99 605.48 649.50 605.48 584.75 C 605.48 520.00 657.97 467.51 722.72 467.51 C 787.47 467.51 839.96 520.00 839.96 584.75 Z" fill="#ffffff" fill-rule="nonzero" group-id="2" node-id="81" stroke="none" target-height="234.47998" target-width="234.48004" target-x="605.48" target-y="467.51"></path><path d="M 594.52 584.75 C 594.52 649.50 542.03 701.99 477.28 701.99 C 412.53 701.99 360.04 649.50 360.04 584.75 C 360.04 520.00 412.53 467.51 477.28 467.51 C 542.03 467.51 594.52 520.00 594.52 584.75 Z" fill="#ffffff" fill-rule="nonzero" group-id="2" node-id="83" stroke="none" target-height="234.47998" target-width="234.48001" target-x="360.04" target-y="467.51"></path><path d="M 507.08 600.00 C 507.08 616.46 493.74 629.80 477.28 629.80 C 460.82 629.80 447.48 616.46 447.48 600.00 C 447.48 583.54 460.82 570.20 477.28 570.20 C 493.74 570.20 507.08 583.54 507.08 600.00 Z" fill="#282828" fill-rule="nonzero" group-id="2" node-id="85" stroke="none" target-height="59.599976" target-width="59.599976" target-x="447.48" target-y="570.2"></path><path d="M 752.52 600.00 C 752.52 616.46 739.18 629.80 722.72 629.80 C 706.26 629.80 692.92 616.46 692.92 600.00 C 692.92 583.54 706.26 570.20 722.72 570.20 C 739.18 570.20 752.52 583.54 752.52 600.00 Z" fill="#282828" fill-rule="nonzero" group-id="2" node-id="87" stroke="none" target-height="59.599976" target-width="59.600037" target-x="692.92" target-y="570.2"></path><path d="M 566.23 788.77 C 566.23 806.12 552.17 820.18 534.82 820.18 C 517.47 820.18 503.41 806.12 503.41 788.77 C 503.41 771.42 517.47 757.36 534.82 757.36 C 552.17 757.36 566.23 771.42 566.23 788.77 Z" fill="#282828" fill-rule="nonzero" group-id="2" node-id="89" stroke="none" target-height="62.820007" target-width="62.819977" target-x="503.41" target-y="757.36"></path><path d="M 696.59 788.77 C 696.59 806.12 682.53 820.18 665.18 820.18 C 647.83 820.18 633.77 806.12 633.77 788.77 C 633.77 771.42 647.83 757.36 665.18 757.36 C 682.53 757.36 696.59 771.42 696.59 788.77 Z" fill="#282828" fill-rule="nonzero" group-id="2" node-id="91" stroke="none" target-height="62.820007" target-width="62.820007" target-x="633.77" target-y="757.36"></path><path d="M 503.40 874.26 C 503.40 927.61 546.65 970.86 600.00 970.86 C 653.35 970.86 696.60 927.61 696.60 874.26 Z" fill="#282828" fill-rule="nonzero" group-id="2" node-id="93" stroke="none" target-height="96.599976" target-width="193.19998" target-x="503.4" target-y="874.26"></path><path d="M 783.00 1147.50 C 773.06 1147.50 765.00 1139.44 765.00 1129.50 L 765.00 1000.75 C 765.00 990.81 773.06 982.75 783.00 982.75 C 792.94 982.75 801.00 990.81 801.00 1000.75 L 801.00 1129.50 C 801.00 1139.44 792.94 1147.50 783.00 1147.50 Z" fill="#915a30" fill-rule="nonzero" group-id="2" node-id="95" stroke="none" target-height="164.75" target-width="36" target-x="765" target-y="982.75"></path><path d="M 417.00 1086.62 C 405.13 1086.62 395.50 1076.99 395.50 1065.12 L 395.50 994.53 C 395.50 982.66 405.13 973.03 417.00 973.03 C 428.87 973.03 438.50 982.66 438.50 994.53 L 438.50 1065.12 C 438.50 1076.99 428.87 1086.62 417.00 1086.62 Z" fill="#c48c62" fill-rule="nonzero" group-id="2" node-id="97" stroke="none" target-height="113.589966" target-width="43" target-x="395.5" target-y="973.03"></path><path d="M 417.00 1165.12 C 405.13 1165.11 395.51 1155.49 395.50 1143.62 L 395.50 1129.50 C 395.50 1117.63 405.13 1108.00 417.00 1108.00 C 428.87 1108.00 438.50 1117.63 438.50 1129.50 L 438.50 1143.62 C 438.49 1155.49 428.87 1165.11 417.00 1165.12 Z" fill="#c48c62" fill-rule="nonzero" group-id="2" node-id="99" stroke="none" target-height="57.119995" target-width="43" target-x="395.5" target-y="1108"></path><path d="M 515.71 1129.00 C 503.84 1129.00 494.21 1119.37 494.21 1107.50 L 494.21 1055.50 C 494.21 1043.63 503.84 1034.00 515.71 1034.00 C 527.58 1034.00 537.21 1043.63 537.21 1055.50 L 537.21 1107.50 C 537.21 1119.37 527.58 1129.00 515.71 1129.00 Z" fill="#c48c62" fill-rule="nonzero" group-id="2" node-id="101" stroke="none" target-height="95" target-width="43.00003" target-x="494.21" target-y="1034"></path></g></svg>