<?xml version="1.0" standalone="no"?><!DOCTYPE svg PUBLIC "-//W3C//DTD SVG 1.1//EN" "http://www.w3.org/Graphics/SVG/1.1/DTD/svg11.dtd"><svg height="1200" node-id="1" sillyvg="true" template-height="1200" template-width="1200" version="1.1" viewBox="0 0 1200 1200" width="1200" xmlns="http://www.w3.org/2000/svg" xmlns:xlink="http://www.w3.org/1999/xlink"><defs node-id="44"></defs><g node-id="121"><path d="M 0.00 0.00 L 1200.00 0.00 L 1200.00 1200.00 L 0.00 1200.00 Z" fill="#256ae5" fill-opacity="0" fill-rule="nonzero" group-id="1" node-id="47" stroke="none" target-height="1200" target-width="1200" target-x="0" target-y="0"></path></g><g node-id="122"><path d="M 446.89 344.30 C 446.89 428.57 378.58 496.88 294.31 496.88 C 210.04 496.88 141.73 428.57 141.73 344.30 C 141.73 260.03 210.04 191.72 294.31 191.72 C 378.58 191.72 446.89 260.03 446.89 344.30 Z" fill="#a0a0a0" fill-rule="nonzero" group-id="2" node-id="51" stroke="none" target-height="305.16" target-width="305.16003" target-x="141.73" target-y="191.72"></path><path d="M 1058.27 344.30 C 1058.25 419.85 1002.94 484.00 928.21 495.14 C 853.49 506.27 781.88 461.04 759.83 388.78 C 737.78 316.52 771.95 239.01 840.16 206.53 C 908.38 174.06 990.08 196.41 1032.27 259.08 C 1049.22 284.27 1058.27 313.94 1058.27 344.30 Z" fill="#a0a0a0" fill-rule="nonzero" group-id="2" node-id="53" stroke="none" target-height="332.21198" target-width="320.49097" target-x="737.78345" target-y="174.06013"></path><path d="M 1040.48 308.57 C 1040.48 375.68 996.63 434.91 932.44 454.50 C 868.26 474.10 798.80 449.46 761.32 393.79 C 736.51 321.36 769.20 241.77 837.75 207.68 C 906.31 173.60 989.50 195.58 1032.27 259.08 C 1037.72 275.01 1040.50 291.73 1040.48 308.57 Z" fill="#c1c1c1" fill-rule="nonzero" group-id="2" node-id="55" stroke="none" target-height="300.49698" target-width="303.98553" target-x="736.51117" target-y="173.60074"></path><path d="M 159.52 308.57 C 159.52 375.68 203.37 434.91 267.56 454.50 C 331.74 474.10 401.20 449.46 438.68 393.79 C 463.59 321.33 430.90 241.63 362.29 207.53 C 293.67 173.42 210.41 195.48 167.68 259.08 C 162.24 275.01 159.49 291.74 159.52 308.57 Z" fill="#c1c1c1" fill-rule="nonzero" group-id="2" node-id="57" stroke="none" target-height="300.67773" target-width="304.09894" target-x="159.48726" target-y="173.41998"></path><path d="M 294.31 191.72 C 278.56 191.71 262.91 194.14 247.91 198.92 C 299.72 193.52 350.70 214.90 383.15 255.65 C 415.60 296.39 425.04 350.86 408.19 400.15 C 388.98 428.64 360.73 449.84 328.00 460.32 C 372.92 455.62 413.44 431.26 438.66 393.79 C 454.60 347.18 447.06 295.74 418.43 255.65 C 389.79 215.57 343.57 191.76 294.31 191.72 Z" fill="#e2e2e2" fill-rule="nonzero" group-id="2" node-id="59" stroke="none" target-height="268.61237" target-width="206.68597" target-x="247.91" target-y="191.70763"></path><path d="M 905.69 191.72 C 921.44 191.71 937.09 194.14 952.09 198.92 C 900.28 193.52 849.30 214.90 816.85 255.65 C 784.40 296.39 774.96 350.86 791.81 400.15 C 811.02 428.64 839.27 449.84 872.00 460.32 C 827.08 455.62 786.56 431.26 761.34 393.79 C 745.40 347.18 752.94 295.74 781.57 255.65 C 810.21 215.57 856.43 191.76 905.69 191.72 Z" fill="#e2e2e2" fill-rule="nonzero" group-id="2" node-id="61" stroke="none" target-height="268.61237" target-width="206.68597" target-x="745.40405" target-y="191.70763"></path><path d="M 982.56 344.30 C 982.56 386.75 948.14 421.17 905.69 421.17 C 863.24 421.17 828.82 386.75 828.82 344.30 C 828.82 301.85 863.24 267.43 905.69 267.43 C 948.14 267.43 982.56 301.85 982.56 344.30 Z" fill="#848484" fill-rule="nonzero" group-id="2" node-id="63" stroke="none" target-height="153.74002" target-width="153.73999" target-x="828.82" target-y="267.43"></path><path d="M 371.18 344.30 C 371.18 386.75 336.76 421.17 294.31 421.17 C 251.86 421.17 217.44 386.75 217.44 344.30 C 217.44 301.85 251.86 267.43 294.31 267.43 C 336.76 267.43 371.18 301.85 371.18 344.30 Z" fill="#848484" fill-rule="nonzero" group-id="2" node-id="65" stroke="none" target-height="153.74002" target-width="153.73999" target-x="217.44" target-y="267.43"></path><path d="M 956.61 642.00 L 956.61 1200.00 L 243.39 1200.00 L 243.39 642.00 C 243.39 460.81 378.54 311.17 553.54 288.40 C 568.95 286.40 584.46 285.40 600.00 285.40 C 796.95 285.40 956.60 445.05 956.61 642.00 Z" fill="#cecece" fill-rule="nonzero" group-id="2" node-id="67" stroke="none" target-height="914.6047" target-width="713.22" target-x="243.39" target-y="285.39532"></path><path d="M 863.68 642.00 L 863.68 1200.00 L 243.39 1200.00 L 243.39 642.00 C 243.39 460.81 378.54 311.17 553.54 288.40 C 728.53 311.18 863.68 460.82 863.68 642.00 Z" fill="#e2e4e3" fill-rule="nonzero" group-id="2" node-id="69" stroke="none" target-height="911.6" target-width="620.29" target-x="243.39" target-y="288.4"></path><path d="M 559.45 906.29 L 606.00 906.29 L 606.00 906.29 L 606.00 977.29 C 606.00 990.14 595.58 1000.56 582.73 1000.56 L 582.73 1000.56 C 569.88 1000.56 559.46 990.14 559.46 977.29 L 559.46 906.29 L 559.46 906.29 Z" fill="#c6c6c6" fill-rule="nonzero" group-id="2" node-id="71" stroke="none" target-height="94.27002" target-width="46.549988" target-x="559.45" target-y="906.29"></path><path d="M 606.00 893.41 L 652.55 893.41 L 652.55 893.41 L 652.55 977.29 C 652.55 990.14 642.13 1000.56 629.28 1000.56 L 629.28 1000.56 C 623.11 1000.56 617.19 998.11 612.82 993.75 C 608.45 989.38 606.00 983.46 606.00 977.29 L 606.00 893.41 L 606.00 893.41 Z" fill="#c6c6c6" fill-rule="nonzero" group-id="2" node-id="73" stroke="none" target-height="107.15271" target-width="46.549988" target-x="606" target-y="893.41"></path><path d="M 318.31 1181.90 C 308.37 1181.90 300.31 1173.84 300.31 1163.90 L 300.31 672.44 C 300.31 662.50 308.37 654.44 318.31 654.44 C 328.25 654.44 336.31 662.50 336.31 672.44 L 336.31 1163.90 C 336.31 1173.84 328.25 1181.90 318.31 1181.90 Z" fill="#f7f7f7" fill-rule="nonzero" group-id="2" node-id="75" stroke="none" target-height="527.46" target-width="36" target-x="300.31" target-y="654.44"></path><path d="M 318.31 623.12 C 308.37 623.12 300.31 615.06 300.31 605.12 L 300.31 602.87 C 300.31 592.93 308.37 584.87 318.31 584.87 C 328.25 584.87 336.31 592.93 336.31 602.87 L 336.31 605.12 C 336.31 615.06 328.25 623.12 318.31 623.12 Z" fill="#f7f7f7" fill-rule="nonzero" group-id="2" node-id="77" stroke="none" target-height="38.25" target-width="36" target-x="300.31" target-y="584.87"></path><path d="M 839.96 584.75 C 839.96 649.50 787.47 701.99 722.72 701.99 C 657.97 701.99 605.48 649.50 605.48 584.75 C 605.48 520.00 657.97 467.51 722.72 467.51 C 787.47 467.51 839.96 520.00 839.96 584.75 Z" fill="#ffffff" fill-rule="nonzero" group-id="2" node-id="79" stroke="none" target-height="234.47998" target-width="234.48004" target-x="605.48" target-y="467.51"></path><path d="M 594.52 584.75 C 594.52 649.50 542.03 701.99 477.28 701.99 C 412.53 701.99 360.04 649.50 360.04 584.75 C 360.04 520.00 412.53 467.51 477.28 467.51 C 542.03 467.51 594.52 520.00 594.52 584.75 Z" fill="#ffffff" fill-rule="nonzero" group-id="2" node-id="81" stroke="none" target-height="234.47998" target-width="234.48001" target-x="360.04" target-y="467.51"></path><path d="M 507.08 600.00 C 507.08 616.46 493.74 629.80 477.28 629.80 C 460.82 629.80 447.48 616.46 447.48 600.00 C 447.48 583.54 460.82 570.20 477.28 570.20 C 493.74 570.20 507.08 583.54 507.08 600.00 Z" fill="#282828" fill-rule="nonzero" group-id="2" node-id="83" stroke="none" target-height="59.599976" target-width="59.599976" target-x="447.48" target-y="570.2"></path><path d="M 752.52 600.00 C 752.52 616.46 739.18 629.80 722.72 629.80 C 706.26 629.80 692.92 616.46 692.92 600.00 C 692.92 583.54 706.26 570.20 722.72 570.20 C 739.18 570.20 752.52 583.54 752.52 600.00 Z" fill="#282828" fill-rule="nonzero" group-id="2" node-id="85" stroke="none" target-height="59.599976" target-width="59.600037" target-x="692.92" target-y="570.2"></path><path d="M 936.77 836.13 C 934.81 836.13 932.90 835.55 931.27 834.47 C 881.70 801.64 818.06 798.84 765.79 827.18 C 762.64 828.96 758.77 828.90 755.68 827.03 C 752.58 825.15 750.74 821.75 750.87 818.13 C 750.99 814.52 753.06 811.25 756.28 809.59 C 815.03 777.74 886.56 780.90 942.28 817.79 C 945.96 820.23 947.61 824.79 946.34 829.02 C 945.06 833.24 941.17 836.14 936.75 836.13 Z" fill="#282828" fill-rule="nonzero" group-id="2" node-id="87" stroke="none" target-height="58.393616" target-width="196.8664" target-x="750.7449" target-y="777.7418"></path><path d="M 950.42 898.65 C 948.00 898.65 945.66 897.77 943.84 896.17 C 899.13 856.97 836.45 845.62 780.84 866.67 C 777.44 868.21 773.47 867.74 770.54 865.44 C 767.60 863.14 766.19 859.40 766.87 855.73 C 767.55 852.07 770.22 849.09 773.79 848.00 C 836.29 824.33 906.75 837.07 957.00 881.12 C 960.14 883.86 961.25 888.27 959.78 892.17 C 958.31 896.07 954.58 898.65 950.41 898.65 Z" fill="#282828" fill-rule="nonzero" group-id="2" node-id="89" stroke="none" target-height="74.32495" target-width="195.0617" target-x="766.18555" target-y="824.32916"></path><path d="M 263.23 836.13 C 258.81 836.14 254.92 833.24 253.64 829.02 C 252.37 824.79 254.02 820.23 257.70 817.79 C 313.42 780.90 384.95 777.74 443.70 809.59 C 448.44 812.27 450.16 818.26 447.57 823.05 C 444.98 827.84 439.03 829.68 434.19 827.18 C 381.92 798.84 318.28 801.65 268.71 834.47 C 267.08 835.55 265.18 836.12 263.23 836.13 Z" fill="#282828" fill-rule="nonzero" group-id="2" node-id="91" stroke="none" target-height="58.393616" target-width="197.7921" target-x="252.3687" target-y="777.7418"></path><path d="M 249.58 898.65 C 245.41 898.65 241.68 896.07 240.22 892.16 C 238.75 888.26 239.86 883.86 243.00 881.12 C 293.25 837.07 363.71 824.33 426.21 848.00 C 429.61 849.22 432.08 852.18 432.68 855.74 C 433.28 859.30 431.92 862.90 429.12 865.18 C 426.32 867.45 422.51 868.04 419.15 866.71 C 363.54 845.66 300.85 857.00 256.15 896.21 C 254.33 897.79 251.99 898.66 249.58 898.65 Z" fill="#282828" fill-rule="nonzero" group-id="2" node-id="93" stroke="none" target-height="74.32666" target-width="194.5309" target-x="238.75359" target-y="824.32916"></path><path d="M 600.00 900.93 L 600.00 971.93 C 600.00 984.78 589.58 995.20 576.73 995.20 C 576.52 995.20 576.31 995.20 576.10 995.20 C 575.89 995.20 575.44 995.20 575.10 995.20 C 562.90 994.36 553.44 984.23 553.44 972.00 L 553.44 901.00 Z" fill="#f2f2f2" fill-rule="nonzero" group-id="2" node-id="95" stroke="none" target-height="94.27002" target-width="46.562317" target-x="553.4377" target-y="900.93"></path><path d="M 596.75 900.93 L 596.75 971.93 C 597.30 980.02 593.30 987.73 586.37 991.94 C 579.45 996.15 570.75 996.15 563.83 991.94 C 556.90 987.73 552.90 980.02 553.45 971.93 L 553.45 900.93 Z" fill="#ffffff" fill-rule="nonzero" group-id="2" node-id="97" stroke="none" target-height="95.22479" target-width="44.39972" target-x="552.90015" target-y="900.93"></path><path d="M 646.55 900.93 L 646.55 971.93 C 646.55 978.10 644.10 984.02 639.73 988.39 C 635.36 992.75 629.44 995.20 623.27 995.20 C 622.73 995.20 622.18 995.20 621.65 995.14 C 609.45 994.29 600.00 984.15 600.00 971.92 L 600.00 900.92 Z" fill="#f2f2f2" fill-rule="nonzero" group-id="2" node-id="99" stroke="none" target-height="94.28265" target-width="46.553406" target-x="599.9966" target-y="900.92"></path><path d="M 643.30 900.93 L 643.30 971.93 C 643.85 980.02 639.85 987.73 632.92 991.94 C 626.00 996.15 617.30 996.15 610.38 991.94 C 603.45 987.73 599.45 980.02 600.00 971.93 L 600.00 900.93 Z" fill="#ffffff" fill-rule="nonzero" group-id="2" node-id="101" stroke="none" target-height="95.22479" target-width="44.39972" target-x="599.45013" target-y="900.93"></path><path d="M 672.32 815.25 L 672.32 853.49 C 672.32 870.58 665.53 886.97 653.45 899.05 C 641.36 911.14 624.97 917.92 607.88 917.92 L 592.12 917.92 C 575.03 917.93 558.64 911.14 546.55 899.06 C 534.47 886.97 527.68 870.58 527.68 853.49 L 527.68 815.25 C 527.67 798.16 534.46 781.76 546.54 769.68 C 558.63 757.59 575.03 750.81 592.12 750.82 L 607.88 750.82 C 643.46 750.84 672.30 779.67 672.32 815.25 Z" fill="#aaaaaa" fill-rule="nonzero" group-id="2" node-id="103" stroke="none" target-height="167.11859" target-width="144.65063" target-x="527.6694" target-y="750.8067"></path><path d="M 664.13 805.09 L 664.13 843.33 C 664.13 860.42 657.34 876.81 645.26 888.89 C 633.17 900.98 616.78 907.76 599.69 907.76 L 583.93 907.76 C 566.70 907.79 550.18 900.89 538.09 888.61 C 531.28 878.17 527.66 865.96 527.68 853.49 L 527.68 815.25 C 527.67 798.16 534.46 781.76 546.54 769.68 C 558.63 757.59 575.03 750.81 592.12 750.82 L 607.88 750.82 C 625.13 750.79 641.66 757.70 653.75 770.00 C 660.54 780.44 664.15 792.63 664.13 805.09 Z" fill="#c1c1c1" fill-rule="nonzero" group-id="2" node-id="105" stroke="none" target-height="156.99725" target-width="136.49255" target-x="527.65765" target-y="750.7896"></path><path d="M 633.74 756.22 C 631.09 772.79 616.79 784.99 600.00 784.99 C 583.21 784.99 568.91 772.79 566.26 756.22 C 574.41 752.65 583.22 750.81 592.12 750.82 L 607.88 750.82 C 616.78 750.81 625.59 752.65 633.74 756.22 Z" fill="#282828" fill-rule="nonzero" group-id="2" node-id="107" stroke="none" target-height="34.177795" target-width="67.47998" target-x="566.26" target-y="750.8084"></path><path d="M 606.00 785.00 L 606.00 917.92 L 594.00 917.92 L 594.00 785.00 C 594.00 781.69 596.69 779.00 600.00 779.00 C 603.31 779.00 606.00 781.69 606.00 785.00 Z" fill="#282828" fill-rule="nonzero" group-id="2" node-id="109" stroke="none" target-height="138.91998" target-width="12" target-x="594" target-y="779"></path><path d="M 346.54 518.20 C 340.14 518.20 334.21 514.79 330.99 509.26 C 327.77 503.72 327.73 496.89 330.89 491.32 C 368.39 424.95 429.09 374.78 501.33 350.45 C 510.75 347.28 520.96 352.34 524.13 361.77 C 527.31 371.19 522.24 381.40 512.82 384.57 C 448.98 406.07 395.35 450.41 362.22 509.06 C 359.02 514.71 353.03 518.20 346.54 518.20 Z" fill="#f7f7f7" fill-rule="nonzero" group-id="2" node-id="111" stroke="none" target-height="170.92703" target-width="199.57758" target-x="327.7303" target-y="347.27713"></path><path d="M 793.62 1113.57 C 783.68 1113.57 775.62 1105.51 775.62 1095.57 L 775.62 933.79 C 775.62 923.85 783.68 915.79 793.62 915.79 C 803.56 915.79 811.62 923.85 811.62 933.79 L 811.62 1095.57 C 811.62 1105.51 803.56 1113.57 793.62 1113.57 Z" fill="#cecece" fill-rule="nonzero" group-id="2" node-id="113" stroke="none" target-height="197.77997" target-width="36" target-x="775.62" target-y="915.79"></path><path d="M 793.62 1178.79 C 783.68 1178.79 775.62 1170.73 775.62 1160.79 L 775.62 1150.63 C 775.62 1140.69 783.68 1132.63 793.62 1132.63 C 803.56 1132.63 811.62 1140.69 811.62 1150.63 L 811.62 1160.79 C 811.62 1170.73 803.56 1178.79 793.62 1178.79 Z" fill="#cecece" fill-rule="nonzero" group-id="2" node-id="115" stroke="none" target-height="46.160034" target-width="36" target-x="775.62" target-y="1132.63"></path><path d="M 422.68 1106.87 C 409.43 1106.87 398.68 1096.12 398.68 1082.87 L 398.68 918.17 C 398.68 904.92 409.43 894.17 422.68 894.17 C 435.93 894.17 446.68 904.92 446.68 918.17 L 446.68 1082.87 C 446.68 1096.12 435.93 1106.87 422.68 1106.87 Z" fill="#f7f7f7" fill-rule="nonzero" group-id="2" node-id="117" stroke="none" target-height="212.70001" target-width="48" target-x="398.68" target-y="894.17"></path><path d="M 507.08 1160.23 C 493.83 1160.23 483.08 1149.48 483.08 1136.23 L 483.08 1054.91 C 483.08 1041.66 493.83 1030.91 507.08 1030.91 C 520.33 1030.91 531.08 1041.66 531.08 1054.91 L 531.08 1136.23 C 531.08 1149.48 520.33 1160.23 507.08 1160.23 Z" fill="#f7f7f7" fill-rule="nonzero" group-id="2" node-id="119" stroke="none" target-height="129.31995" target-width="48.00003" target-x="483.08" target-y="1030.91"></path></g></svg>