<?xml version="1.0" standalone="no"?><!DOCTYPE svg PUBLIC "-//W3C//DTD SVG 1.1//EN" "http://www.w3.org/Graphics/SVG/1.1/DTD/svg11.dtd"><svg height="1200" node-id="1" sillyvg="true" template-height="1200" template-width="1200" version="1.1" viewBox="0 0 1200 1200" width="1200" xmlns="http://www.w3.org/2000/svg" xmlns:xlink="http://www.w3.org/1999/xlink"><defs node-id="40"></defs><g node-id="112"><path d="M 0.00 0.00 L 1200.00 0.00 L 1200.00 1200.00 L 0.00 1200.00 Z" fill="#256ae5" fill-opacity="0" fill-rule="nonzero" group-id="1" node-id="43" stroke="none" target-height="1200" target-width="1200" target-x="0" target-y="0"></path></g><g node-id="113"><path d="M 956.61 642.00 L 956.61 1200.00 L 243.39 1200.00 L 243.39 642.00 C 243.39 445.05 403.05 285.39 600.00 285.39 C 796.95 285.39 956.61 445.05 956.61 642.00 Z" fill="#f9b4bf" fill-rule="nonzero" group-id="2" node-id="47" stroke="none" target-height="914.61" target-width="713.22" target-x="243.39" target-y="285.39"></path><path d="M 863.68 642.00 L 863.68 1200.00 L 243.39 1200.00 L 243.39 642.00 C 243.39 460.81 378.54 311.17 553.54 288.40 C 728.53 311.18 863.68 460.82 863.68 642.00 Z" fill="#ffcbce" fill-rule="nonzero" group-id="2" node-id="49" stroke="none" target-height="911.6" target-width="620.29" target-x="243.39" target-y="288.4"></path><path d="M 948.18 564.59 C 914.83 572.23 879.90 562.22 855.66 538.08 L 828.00 510.41 L 787.68 470.09 C 751.34 433.37 749.05 374.98 782.40 335.52 C 866.79 385.85 926.75 468.69 948.18 564.59 Z" fill="#f9b4bf" fill-rule="nonzero" group-id="2" node-id="51" stroke="none" target-height="236.71469" target-width="199.13092" target-x="749.0491" target-y="335.52"></path><path d="M 441.18 399.94 C 441.25 426.22 430.87 451.46 412.33 470.09 L 372.00 510.41 L 344.33 538.08 C 320.09 562.22 285.16 572.23 251.81 564.59 C 273.21 468.67 333.18 385.81 417.61 335.52 C 432.88 353.51 441.23 376.35 441.18 399.94 Z" fill="#f9b4bf" fill-rule="nonzero" group-id="2" node-id="53" stroke="none" target-height="236.71469" target-width="189.43784" target-x="251.81" target-y="335.52"></path><path d="M 346.54 518.20 C 340.14 518.20 334.21 514.79 330.99 509.26 C 327.77 503.72 327.73 496.89 330.89 491.32 C 368.39 424.95 429.09 374.78 501.33 350.45 C 510.75 347.28 520.96 352.34 524.14 361.76 C 527.31 371.19 522.24 381.40 512.82 384.57 C 448.98 406.07 395.35 450.41 362.22 509.06 C 359.02 514.71 353.03 518.20 346.54 518.20 Z" fill="#ffe6e8" fill-rule="nonzero" group-id="2" node-id="55" stroke="none" target-height="170.92703" target-width="199.57758" target-x="327.7303" target-y="347.27713"></path><path d="M 318.31 1181.90 C 308.37 1181.90 300.31 1173.84 300.31 1163.90 L 300.31 672.44 C 300.31 662.50 308.37 654.44 318.31 654.44 C 328.25 654.44 336.31 662.50 336.31 672.44 L 336.31 1163.90 C 336.31 1173.84 328.25 1181.90 318.31 1181.90 Z" fill="#ffe6e8" fill-rule="nonzero" group-id="2" node-id="57" stroke="none" target-height="527.46" target-width="36" target-x="300.31" target-y="654.44"></path><path d="M 318.31 623.13 C 308.37 623.13 300.31 615.07 300.31 605.13 L 300.31 602.87 C 300.31 592.93 308.37 584.87 318.31 584.87 C 328.25 584.87 336.31 592.93 336.31 602.87 L 336.31 605.13 C 336.31 615.07 328.25 623.13 318.31 623.13 Z" fill="#ffe6e8" fill-rule="nonzero" group-id="2" node-id="59" stroke="none" target-height="38.26001" target-width="36" target-x="300.31" target-y="584.87"></path><path d="M 560.47 871.90 C 560.47 893.73 578.17 911.43 600.00 911.43 C 621.83 911.43 639.53 893.73 639.53 871.90 Z" fill="#6c282b" fill-rule="nonzero" group-id="2" node-id="61" stroke="none" target-height="39.52997" target-width="79.06006" target-x="560.47" target-y="871.9"></path><path d="M 768.56 801.36 C 768.42 851.18 728.08 891.53 678.26 891.67 L 521.74 891.67 C 487.82 891.59 456.79 872.55 441.34 842.35 C 427.13 814.36 428.45 781.00 444.85 754.23 C 461.24 727.47 490.35 711.12 521.74 711.06 L 678.26 711.06 C 728.08 711.19 768.43 751.54 768.56 801.36 Z" fill="#f2f2f2" fill-rule="nonzero" group-id="2" node-id="63" stroke="none" target-height="180.60999" target-width="341.43353" target-x="427.12646" target-y="711.06"></path><path d="M 751.58 778.21 C 751.44 828.03 711.09 868.37 661.27 868.51 L 504.75 868.51 C 480.99 868.50 458.19 859.10 441.34 842.35 C 427.13 814.36 428.45 781.00 444.85 754.23 C 461.24 727.47 490.35 711.12 521.74 711.06 L 678.26 711.06 C 702.02 711.06 724.82 720.47 741.68 737.22 C 748.19 749.90 751.59 763.95 751.58 778.21 Z" fill="#ffffff" fill-rule="nonzero" group-id="2" node-id="65" stroke="none" target-height="157.45001" target-width="324.46228" target-x="427.12646" target-y="711.06"></path><path d="M 586.02 804.75 C 586.02 825.10 569.52 841.60 549.17 841.60 C 528.82 841.60 512.32 825.10 512.32 804.75 C 512.32 784.40 528.82 767.90 549.17 767.90 C 569.52 767.90 586.02 784.40 586.02 804.75 Z" fill="#f2f2f2" fill-rule="nonzero" group-id="2" node-id="67" stroke="none" target-height="73.69995" target-width="73.70001" target-x="512.32" target-y="767.9"></path><path d="M 701.21 804.75 C 701.21 825.10 684.71 841.60 664.36 841.60 C 644.01 841.60 627.51 825.10 627.51 804.75 C 627.51 784.40 644.01 767.90 664.36 767.90 C 684.71 767.90 701.21 784.40 701.21 804.75 Z" fill="#f2f2f2" fill-rule="nonzero" group-id="2" node-id="69" stroke="none" target-height="73.69995" target-width="73.70001" target-x="627.51" target-y="767.9"></path><path d="M 579.25 801.36 C 579.25 821.71 562.75 838.21 542.40 838.21 C 522.05 838.21 505.55 821.71 505.55 801.36 C 505.55 781.01 522.05 764.51 542.40 764.51 C 562.75 764.51 579.25 781.01 579.25 801.36 Z" fill="#6c282b" fill-rule="nonzero" group-id="2" node-id="71" stroke="none" target-height="73.70001" target-width="73.70001" target-x="505.55" target-y="764.51"></path><path d="M 694.45 801.36 C 694.45 821.71 677.95 838.21 657.60 838.21 C 637.25 838.21 620.75 821.71 620.75 801.36 C 620.75 781.01 637.25 764.51 657.60 764.51 C 677.95 764.51 694.45 781.01 694.45 801.36 Z" fill="#6c282b" fill-rule="nonzero" group-id="2" node-id="73" stroke="none" target-height="73.70001" target-width="73.70001" target-x="620.75" target-y="764.51"></path><g node-id="114"><path d="M 405.40 306.65 L 405.40 306.65 L 409.93 311.50 L 414.04 316.50 L 417.75 321.65 L 421.08 326.97 L 424.04 332.45 L 427.25 339.59 L 429.87 346.84 L 431.90 354.21 L 433.35 361.73 L 434.23 369.35 L 434.52 376.95 L 434.23 384.54 L 433.35 392.16 L 431.90 399.68 L 429.87 407.06 L 427.25 414.30 L 424.03 421.44 L 421.08 426.93 L 417.75 432.24 L 414.03 437.40 L 409.92 442.40 L 405.40 447.25 L 337.56 515.09 L 332.71 519.61 L 327.71 523.72 L 322.56 527.44 L 317.24 530.77 L 311.75 533.72 L 304.62 536.94 L 297.37 539.56 L 290.00 541.59 L 282.48 543.04 L 274.86 543.92 L 267.26 544.21 L 259.66 543.92 L 252.04 543.04 L 244.52 541.59 L 237.15 539.56 L 229.90 536.94 L 222.76 533.72 L 217.28 530.77 L 211.96 527.44 L 206.81 523.73 L 201.81 519.61 L 196.96 515.09 L 196.96 515.09 L 192.44 510.24 L 188.32 505.24 L 184.61 500.09 L 181.28 494.77 L 178.33 489.29 L 175.11 482.15 L 172.49 474.90 L 170.46 467.53 L 169.01 460.01 L 168.13 452.39 L 167.84 444.79 L 168.13 437.19 L 169.01 429.57 L 170.46 422.05 L 172.49 414.68 L 175.11 407.43 L 178.33 400.30 L 181.28 394.81 L 184.61 389.49 L 188.33 384.34 L 192.44 379.34 L 196.96 374.49 L 264.80 306.65 L 269.65 302.13 L 274.65 298.02 L 279.81 294.30 L 285.12 290.97 L 290.61 288.02 L 297.75 284.80 L 304.99 282.18 L 312.37 280.15 L 319.89 278.70 L 327.51 277.82 L 335.10 277.53 L 342.70 277.82 L 350.32 278.70 L 357.84 280.15 L 365.21 282.18 L 372.46 284.80 L 379.60 288.01 L 385.08 290.97 L 390.40 294.30 L 395.55 298.01 L 400.55 302.12 L 405.40 306.65 Z" fill="#f96786" fill-rule="nonzero" group-id="2,3" node-id="77" stroke="none" target-height="266.67484" target-width="266.6748" target-x="167.8436" target-y="277.53152"></path></g><path d="M 1003.00 515.09 C 964.34 553.75 901.07 553.75 862.41 515.09 L 834.74 487.42 L 794.45 447.10 C 755.93 408.19 755.99 345.49 794.59 306.65 C 833.26 267.99 896.53 267.99 935.19 306.65 L 975.36 346.82 L 1003.00 374.49 C 1041.70 413.16 1041.70 476.43 1003.00 515.09 Z" fill="#f96786" fill-rule="nonzero" group-id="2" node-id="80" stroke="none" target-height="285.76" target-width="285.77228" target-x="755.9277" target-y="267.99"></path><path d="M 975.36 487.42 C 936.70 526.08 873.43 526.08 834.77 487.42 L 794.45 447.10 C 755.93 408.19 755.99 345.49 794.59 306.65 C 833.26 267.99 896.53 267.99 935.19 306.65 L 975.36 346.82 C 1014.00 385.49 1014.00 448.76 975.36 487.42 Z" fill="#ff7e94" fill-rule="nonzero" group-id="2" node-id="82" stroke="none" target-height="258.09003" target-width="258.07233" target-x="755.9277" target-y="267.99"></path><path d="M 799.60 390.00 C 792.42 390.00 786.60 384.18 786.60 377.00 C 786.52 356.21 794.74 336.25 809.44 321.55 C 824.14 306.85 844.10 298.62 864.89 298.70 C 872.07 298.70 877.89 304.52 877.89 311.70 C 877.89 318.88 872.07 324.70 864.89 324.70 C 851.00 324.62 837.65 330.11 827.83 339.93 C 818.00 349.76 812.52 363.11 812.60 377.00 C 812.60 384.18 806.78 390.00 799.60 390.00 Z" fill="#ffbbca" fill-rule="nonzero" group-id="2" node-id="84" stroke="none" target-height="91.37744" target-width="91.37012" target-x="786.5199" target-y="298.62256"></path><path d="M 224.64 487.42 C 263.30 526.08 326.57 526.08 365.23 487.42 L 405.55 447.10 C 444.07 408.19 444.01 345.49 405.41 306.65 C 366.74 267.99 303.47 267.99 264.81 306.65 L 224.64 346.82 C 186.00 385.49 186.00 448.76 224.64 487.42 Z" fill="#ff7e94" fill-rule="nonzero" group-id="2" node-id="86" stroke="none" target-height="258.09003" target-width="258.07233" target-x="186" target-y="267.99"></path><path d="M 839.96 584.75 C 839.96 649.50 787.47 701.99 722.72 701.99 C 657.97 701.99 605.48 649.50 605.48 584.75 C 605.48 520.00 657.97 467.51 722.72 467.51 C 787.47 467.51 839.96 520.00 839.96 584.75 Z" fill="#ffffff" fill-rule="nonzero" group-id="2" node-id="88" stroke="none" target-height="234.47998" target-width="234.48004" target-x="605.48" target-y="467.51"></path><path d="M 594.52 584.75 C 594.52 649.50 542.03 701.99 477.28 701.99 C 412.53 701.99 360.04 649.50 360.04 584.75 C 360.04 520.00 412.53 467.51 477.28 467.51 C 542.03 467.51 594.52 520.00 594.52 584.75 Z" fill="#ffffff" fill-rule="nonzero" group-id="2" node-id="90" stroke="none" target-height="234.47998" target-width="234.48001" target-x="360.04" target-y="467.51"></path><path d="M 507.08 600.00 C 507.08 616.46 493.74 629.80 477.28 629.80 C 460.82 629.80 447.48 616.46 447.48 600.00 C 447.48 583.54 460.82 570.20 477.28 570.20 C 493.74 570.20 507.08 583.54 507.08 600.00 Z" fill="#282828" fill-rule="nonzero" group-id="2" node-id="92" stroke="none" target-height="59.599976" target-width="59.599976" target-x="447.48" target-y="570.2"></path><path d="M 752.52 600.00 C 752.52 616.46 739.18 629.80 722.72 629.80 C 706.26 629.80 692.92 616.46 692.92 600.00 C 692.92 583.54 706.26 570.20 722.72 570.20 C 739.18 570.20 752.52 583.54 752.52 600.00 Z" fill="#282828" fill-rule="nonzero" group-id="2" node-id="94" stroke="none" target-height="59.599976" target-width="59.600037" target-x="692.92" target-y="570.2"></path><path d="M 400.40 390.00 C 393.22 390.00 387.40 384.18 387.40 377.00 C 387.48 363.11 382.00 349.76 372.17 339.93 C 362.35 330.11 349.00 324.62 335.11 324.70 C 327.93 324.70 322.11 318.88 322.11 311.70 C 322.11 304.52 327.93 298.70 335.11 298.70 C 355.90 298.62 375.86 306.85 390.56 321.55 C 405.26 336.25 413.48 356.21 413.40 377.00 C 413.40 384.18 407.58 390.00 400.40 390.00 Z" fill="#ffbbca" fill-rule="nonzero" group-id="2" node-id="96" stroke="none" target-height="91.37744" target-width="91.37012" target-x="322.11" target-y="298.62256"></path><path d="M 791.54 1157.10 C 781.60 1157.10 773.54 1149.04 773.54 1139.10 L 773.54 947.10 C 773.54 937.16 781.60 929.10 791.54 929.10 C 801.48 929.10 809.54 937.16 809.54 947.10 L 809.54 1139.10 C 809.54 1149.04 801.48 1157.10 791.54 1157.10 Z" fill="#f9b4bf" fill-rule="nonzero" group-id="2" node-id="98" stroke="none" target-height="228" target-width="36" target-x="773.54" target-y="929.1"></path><path d="M 791.54 906.75 C 781.60 906.75 773.54 898.69 773.54 888.75 L 773.54 871.90 C 773.54 861.96 781.60 853.90 791.54 853.90 C 801.48 853.90 809.54 861.96 809.54 871.90 L 809.54 888.75 C 809.54 898.69 801.48 906.75 791.54 906.75 Z" fill="#f9b4bf" fill-rule="nonzero" group-id="2" node-id="100" stroke="none" target-height="52.849976" target-width="36" target-x="773.54" target-y="853.9"></path><path d="M 425.61 1060.82 C 412.08 1060.82 401.11 1049.85 401.11 1036.32 L 401.11 947.10 C 401.11 933.57 412.08 922.60 425.61 922.60 C 439.14 922.60 450.11 933.57 450.11 947.10 L 450.11 1036.32 C 450.11 1049.85 439.14 1060.82 425.61 1060.82 Z" fill="#ffe6e8" fill-rule="nonzero" group-id="2" node-id="102" stroke="none" target-height="138.21997" target-width="49" target-x="401.11" target-y="922.6"></path><path d="M 516.00 1163.60 C 502.47 1163.60 491.50 1152.63 491.50 1139.10 L 491.50 1063.43 C 491.50 1049.90 502.47 1038.93 516.00 1038.93 C 529.53 1038.93 540.50 1049.90 540.50 1063.43 L 540.50 1139.10 C 540.50 1152.63 529.53 1163.60 516.00 1163.60 Z" fill="#ffe6e8" fill-rule="nonzero" group-id="2" node-id="104" stroke="none" target-height="124.66992" target-width="49" target-x="491.5" target-y="1038.93"></path><path d="M 516.00 1002.09 C 502.47 1002.09 491.50 991.12 491.50 977.59 L 491.50 964.00 C 491.50 950.47 502.47 939.50 516.00 939.50 C 529.53 939.50 540.50 950.47 540.50 964.00 L 540.50 977.55 C 540.51 984.05 537.93 990.30 533.34 994.90 C 528.74 999.50 522.50 1002.09 516.00 1002.09 Z" fill="#ffe6e8" fill-rule="nonzero" group-id="2" node-id="106" stroke="none" target-height="62.590027" target-width="49.01062" target-x="491.5" target-y="939.5"></path><path d="M 243.39 415.19 C 234.58 415.19 226.66 409.82 223.40 401.63 C 220.15 393.44 222.22 384.10 228.63 378.05 L 266.85 342.00 C 275.48 333.85 289.09 334.24 297.25 342.87 C 305.40 351.51 305.00 365.12 296.37 373.27 L 258.15 409.34 C 254.16 413.11 248.88 415.20 243.39 415.19 Z" fill="#ffbbca" fill-rule="nonzero" group-id="2" node-id="108" stroke="none" target-height="81.35141" target-width="85.2484" target-x="220.14833" target-y="333.84827"></path><path d="M 956.61 415.19 C 951.12 415.20 945.84 413.10 941.85 409.32 L 903.63 373.25 C 897.84 368.03 895.33 360.08 897.07 352.47 C 898.81 344.87 904.54 338.81 912.03 336.63 C 919.52 334.46 927.61 336.51 933.15 342.00 L 971.37 378.07 C 977.78 384.12 979.85 393.46 976.60 401.65 C 973.34 409.84 965.42 415.21 956.61 415.21 Z" fill="#ffbbca" fill-rule="nonzero" group-id="2" node-id="110" stroke="none" target-height="80.75488" target-width="84.52649" target-x="895.3252" target-y="334.45813"></path></g></svg>