<?xml version="1.0" standalone="no"?><!DOCTYPE svg PUBLIC "-//W3C//DTD SVG 1.1//EN" "http://www.w3.org/Graphics/SVG/1.1/DTD/svg11.dtd"><svg height="1200" node-id="1" sillyvg="true" template-height="1200" template-width="1200" version="1.1" viewBox="0 0 1200 1200" width="1200" xmlns="http://www.w3.org/2000/svg" xmlns:xlink="http://www.w3.org/1999/xlink"><defs node-id="50"></defs><g node-id="139"><path d="M 0.00 0.00 L 1200.00 0.00 L 1200.00 1200.00 L 0.00 1200.00 Z" fill="#256ae5" fill-opacity="0" fill-rule="nonzero" group-id="1" node-id="53" stroke="none" target-height="1200" target-width="1200" target-x="0" target-y="0"></path></g><g node-id="140"><path d="M 447.50 401.94 C 447.50 486.21 379.19 554.52 294.92 554.52 C 210.65 554.52 142.34 486.21 142.34 401.94 C 142.34 317.67 210.65 249.36 294.92 249.36 C 379.19 249.36 447.50 317.67 447.50 401.94 Z" fill="#e8a000" fill-rule="nonzero" group-id="2" node-id="57" stroke="none" target-height="305.16003" target-width="305.16" target-x="142.34" target-y="249.36"></path><path d="M 172.12 374.73 C 172.12 430.92 203.00 482.56 252.49 509.15 C 301.98 535.75 362.08 533.00 408.94 502.00 C 459.02 444.39 458.82 358.64 408.47 301.26 C 358.13 243.88 273.13 232.53 209.50 274.69 C 185.34 302.41 172.06 337.96 172.12 374.73 Z" fill="#ffc000" fill-rule="nonzero" group-id="2" node-id="59" stroke="none" target-height="303.22015" target-width="286.95355" target-x="172.06316" target-y="232.53154"></path><path d="M 293.71 249.36 C 267.61 249.32 241.94 256.01 219.18 268.78 C 284.11 250.30 353.46 276.68 389.70 333.64 C 425.93 390.60 420.43 464.59 376.18 515.57 C 373.03 517.66 369.80 519.63 366.49 521.48 C 381.56 517.22 395.88 510.64 408.94 502.00 C 448.11 456.87 457.34 393.03 432.53 338.65 C 407.73 284.28 353.47 249.40 293.71 249.40 Z" fill="#ffcd52" fill-rule="nonzero" group-id="2" node-id="61" stroke="none" target-height="272.15558" target-width="238.15656" target-x="219.18" target-y="249.32439"></path><path d="M 380.31 401.94 C 380.31 449.10 342.08 487.33 294.92 487.33 C 247.76 487.33 209.53 449.10 209.53 401.94 C 209.53 354.78 247.76 316.55 294.92 316.55 C 342.08 316.55 380.31 354.78 380.31 401.94 Z" fill="#ea9c00" fill-rule="nonzero" group-id="2" node-id="63" stroke="none" target-height="170.78" target-width="170.78" target-x="209.53" target-y="316.55"></path><path d="M 1058.87 401.94 C 1058.86 471.85 1011.33 532.80 943.53 549.85 C 875.74 566.91 805.03 535.69 771.94 474.11 C 738.85 412.53 751.86 336.34 803.50 289.22 C 855.14 242.10 932.20 236.11 990.50 274.69 C 1033.20 302.95 1058.87 350.74 1058.87 401.94 Z" fill="#e8a000" fill-rule="nonzero" group-id="2" node-id="65" stroke="none" target-height="330.79205" target-width="320.023" target-x="738.85126" target-y="236.11372"></path><path d="M 1027.88 374.73 C 1027.88 430.92 997.00 482.56 947.51 509.15 C 898.02 535.75 837.92 533.00 791.06 502.00 C 740.98 444.39 741.18 358.64 791.53 301.26 C 841.87 243.88 926.87 232.53 990.50 274.69 C 1014.66 302.41 1027.94 337.96 1027.88 374.73 Z" fill="#ffc000" fill-rule="nonzero" group-id="2" node-id="67" stroke="none" target-height="303.22015" target-width="286.9536" target-x="740.9833" target-y="232.53154"></path><path d="M 990.47 401.94 C 990.47 449.10 952.24 487.33 905.08 487.33 C 857.92 487.33 819.69 449.10 819.69 401.94 C 819.69 354.78 857.92 316.55 905.08 316.55 C 952.24 316.55 990.47 354.78 990.47 401.94 Z" fill="#ea9c00" fill-rule="nonzero" group-id="2" node-id="69" stroke="none" target-height="170.78" target-width="170.77997" target-x="819.69" target-y="316.55"></path><path d="M 906.29 249.36 C 932.39 249.32 958.06 256.01 980.82 268.78 C 915.89 250.30 846.54 276.68 810.30 333.64 C 774.07 390.60 779.57 464.59 823.82 515.57 C 826.97 517.66 830.20 519.63 833.51 521.48 C 818.44 517.22 804.12 510.64 791.06 502.00 C 751.89 456.87 742.66 393.03 767.47 338.65 C 792.27 284.28 846.53 249.40 906.29 249.40 Z" fill="#ffcd52" fill-rule="nonzero" group-id="2" node-id="71" stroke="none" target-height="272.15558" target-width="238.15656" target-x="742.66345" target-y="249.32439"></path><path d="M 956.61 642.00 L 956.61 1200.00 L 243.39 1200.00 L 243.39 642.00 C 243.39 445.06 403.05 285.40 600.00 285.40 C 796.95 285.40 956.60 445.05 956.61 642.00 Z" fill="#ea9c00" fill-rule="nonzero" group-id="2" node-id="73" stroke="none" target-height="914.6" target-width="713.22" target-x="243.39" target-y="285.4"></path><path d="M 863.68 642.00 L 863.68 1200.00 L 243.39 1200.00 L 243.39 642.00 C 243.39 460.81 378.54 311.17 553.54 288.40 C 728.53 311.18 863.68 460.82 863.68 642.00 Z" fill="#ffc000" fill-rule="nonzero" group-id="2" node-id="75" stroke="none" target-height="911.6" target-width="620.29" target-x="243.39" target-y="288.4"></path><path d="M 318.31 1181.90 C 308.37 1181.90 300.31 1173.84 300.31 1163.90 L 300.31 672.44 C 300.31 662.50 308.37 654.44 318.31 654.44 C 328.25 654.44 336.31 662.50 336.31 672.44 L 336.31 1163.90 C 336.31 1173.84 328.25 1181.90 318.31 1181.90 Z" fill="#ffd766" fill-rule="nonzero" group-id="2" node-id="77" stroke="none" target-height="527.46" target-width="36" target-x="300.31" target-y="654.44"></path><path d="M 863.68 775.40 L 863.68 1180.80 L 243.39 1180.80 L 243.39 838.22 C 418.05 692.87 663.43 668.02 863.68 775.40 Z" fill="#ea9c00" fill-rule="nonzero" group-id="2" node-id="79" stroke="none" target-height="512.77655" target-width="620.29" target-x="243.39" target-y="668.0235"></path><path d="M 346.54 518.20 C 340.14 518.20 334.21 514.79 330.99 509.26 C 327.77 503.72 327.73 496.89 330.89 491.32 C 360.07 439.76 403.43 397.65 455.83 370.00 C 464.62 365.36 475.51 368.72 480.16 377.50 C 484.80 386.29 481.44 397.19 472.65 401.83 C 426.33 426.26 388.01 463.48 362.22 509.06 C 359.02 514.71 353.03 518.20 346.54 518.20 Z" fill="#ffd766" fill-rule="nonzero" group-id="2" node-id="81" stroke="none" target-height="152.84888" target-width="157.06943" target-x="327.7303" target-y="365.3553"></path><path d="M 318.31 623.12 C 308.37 623.12 300.31 615.06 300.31 605.12 L 300.31 602.87 C 300.31 592.93 308.37 584.87 318.31 584.87 C 328.25 584.87 336.31 592.93 336.31 602.87 L 336.31 605.12 C 336.31 615.06 328.25 623.12 318.31 623.12 Z" fill="#ffd766" fill-rule="nonzero" group-id="2" node-id="83" stroke="none" target-height="38.25" target-width="36" target-x="300.31" target-y="584.87"></path><path d="M 956.61 857.42 L 956.61 1200.00 L 243.39 1200.00 L 243.39 857.42 C 449.91 685.11 750.09 685.11 956.61 857.42 Z" fill="#f2f2f2" fill-rule="nonzero" group-id="2" node-id="85" stroke="none" target-height="514.8937" target-width="713.22" target-x="243.39" target-y="685.1063"></path><path d="M 863.68 794.60 L 863.68 1200.00 L 243.39 1200.00 L 243.39 857.42 C 334.63 781.23 447.93 736.35 566.60 729.42 C 577.65 728.75 588.78 728.42 600.00 728.42 L 602.47 728.42 C 604.34 728.42 606.21 728.42 608.08 728.47 C 620.59 728.65 632.99 729.23 645.30 730.22 C 721.77 736.32 796.13 758.25 863.68 794.60 Z" fill="#ffffff" fill-rule="nonzero" group-id="2" node-id="87" stroke="none" target-height="471.58002" target-width="620.29" target-x="243.39" target-y="728.42"></path><path d="M 605.48 882.13 C 599.96 882.13 595.48 877.65 595.48 872.13 L 595.48 752.29 C 595.48 746.77 599.96 742.29 605.48 742.29 C 611.00 742.29 615.48 746.77 615.48 752.29 L 615.48 872.13 C 615.48 877.65 611.00 882.13 605.48 882.13 Z" fill="#f2f2f2" fill-rule="nonzero" group-id="2" node-id="89" stroke="none" target-height="139.84003" target-width="20" target-x="595.48" target-y="742.29"></path><path d="M 643.00 761.49 L 622.30 782.18 C 617.80 786.70 611.68 789.24 605.30 789.24 C 598.92 789.24 592.80 786.70 588.30 782.18 L 568.00 761.84 C 559.18 753.02 558.58 738.92 566.62 729.39 C 577.67 728.72 588.80 728.39 600.02 728.39 L 602.49 728.39 L 605.32 731.22 L 608.10 728.44 C 620.61 728.62 633.01 729.20 645.32 730.19 C 652.42 739.75 651.43 753.08 643.00 761.49 Z" fill="#f2f2f2" fill-rule="nonzero" group-id="2" node-id="91" stroke="none" target-height="60.848938" target-width="93.841736" target-x="558.5794" target-y="728.39"></path><path d="M 701.11 931.42 C 671.73 931.46 643.39 920.56 621.61 900.83 C 594.56 925.27 557.77 935.91 521.84 929.68 C 485.92 923.45 454.86 901.05 437.61 868.93 C 482.40 912.72 553.52 914.12 600.00 872.13 C 633.26 902.18 680.63 910.90 722.41 894.67 C 764.20 878.45 793.27 840.05 797.54 795.43 C 825.73 863.00 764.91 931.42 701.11 931.42 Z" fill="#f2f2f2" fill-rule="nonzero" group-id="2" node-id="93" stroke="none" target-height="140.47626" target-width="388.12" target-x="437.61" target-y="795.43"></path><path d="M 839.96 584.75 C 839.96 649.50 787.47 701.99 722.72 701.99 C 657.97 701.99 605.48 649.50 605.48 584.75 C 605.48 520.00 657.97 467.51 722.72 467.51 C 787.47 467.51 839.96 520.00 839.96 584.75 Z" fill="#ffffff" fill-rule="nonzero" group-id="2" node-id="95" stroke="none" target-height="234.47998" target-width="234.48004" target-x="605.48" target-y="467.51"></path><path d="M 594.52 584.75 C 594.52 649.50 542.03 701.99 477.28 701.99 C 412.53 701.99 360.04 649.50 360.04 584.75 C 360.04 520.00 412.53 467.51 477.28 467.51 C 542.03 467.51 594.52 520.00 594.52 584.75 Z" fill="#ffffff" fill-rule="nonzero" group-id="2" node-id="97" stroke="none" target-height="234.47998" target-width="234.48001" target-x="360.04" target-y="467.51"></path><path d="M 507.08 600.00 C 507.08 616.46 493.74 629.80 477.28 629.80 C 460.82 629.80 447.48 616.46 447.48 600.00 C 447.48 583.54 460.82 570.20 477.28 570.20 C 493.74 570.20 507.08 583.54 507.08 600.00 Z" fill="#282828" fill-rule="nonzero" group-id="2" node-id="99" stroke="none" target-height="59.599976" target-width="59.599976" target-x="447.48" target-y="570.2"></path><path d="M 752.52 600.00 C 752.52 616.46 739.18 629.80 722.72 629.80 C 706.26 629.80 692.92 616.46 692.92 600.00 C 692.92 583.54 706.26 570.20 722.72 570.20 C 739.18 570.20 752.52 583.54 752.52 600.00 Z" fill="#282828" fill-rule="nonzero" group-id="2" node-id="101" stroke="none" target-height="59.599976" target-width="59.600037" target-x="692.92" target-y="570.2"></path><path d="M 658.00 339.72 L 542.05 339.72 C 534.87 339.72 529.05 333.90 529.05 326.72 C 529.05 319.54 534.87 313.72 542.05 313.72 L 658.00 313.72 C 665.18 313.72 671.00 319.54 671.00 326.72 C 671.00 333.90 665.18 339.72 658.00 339.72 Z" fill="#282828" fill-rule="nonzero" group-id="2" node-id="103" stroke="none" target-height="26" target-width="141.95001" target-x="529.05" target-y="313.72"></path><path d="M 600.00 431.86 C 592.82 431.86 587.00 426.04 587.00 418.86 L 587.00 326.72 C 587.00 319.54 592.82 313.72 600.00 313.72 C 607.18 313.72 613.00 319.54 613.00 326.72 L 613.00 418.86 C 613.00 426.04 607.18 431.86 600.00 431.86 Z" fill="#282828" fill-rule="nonzero" group-id="2" node-id="105" stroke="none" target-height="118.139984" target-width="26" target-x="587" target-y="313.72"></path><path d="M 666.52 387.73 L 533.52 387.73 C 526.34 387.73 520.52 381.91 520.52 374.73 C 520.52 367.55 526.34 361.73 533.52 361.73 L 666.52 361.73 C 673.70 361.73 679.52 367.55 679.52 374.73 C 679.52 381.91 673.70 387.73 666.52 387.73 Z" fill="#282828" fill-rule="nonzero" group-id="2" node-id="107" stroke="none" target-height="26" target-width="159" target-x="520.52" target-y="361.73"></path><path d="M 678.06 435.74 L 521.94 435.74 C 514.76 435.74 508.94 429.92 508.94 422.74 C 508.94 415.56 514.76 409.74 521.94 409.74 L 678.06 409.74 C 685.24 409.74 691.06 415.56 691.06 422.74 C 691.06 429.92 685.24 435.74 678.06 435.74 Z" fill="#282828" fill-rule="nonzero" group-id="2" node-id="109" stroke="none" target-height="26" target-width="182.12" target-x="508.94" target-y="409.74"></path><path d="M 679.50 912.72 C 647.64 912.75 616.91 900.92 593.29 879.55 C 589.19 875.84 588.87 869.52 592.58 865.42 C 596.29 861.32 602.61 861.00 606.71 864.71 C 638.56 893.48 684.36 900.79 723.58 883.37 C 762.80 865.95 788.08 827.06 788.08 784.14 C 788.08 778.62 792.56 774.14 798.08 774.14 C 803.60 774.14 808.08 778.62 808.08 784.14 C 808.00 855.12 750.48 912.64 679.50 912.72 Z" fill="#282828" fill-rule="nonzero" group-id="2" node-id="111" stroke="none" target-height="138.60638" target-width="219.20587" target-x="588.87415" target-y="774.14"></path><path d="M 520.50 912.72 C 449.52 912.64 392.00 855.12 391.92 784.14 C 391.92 778.62 396.40 774.14 401.92 774.14 C 407.44 774.14 411.92 778.62 411.92 784.14 C 411.92 827.06 437.20 865.95 476.42 883.37 C 515.64 900.79 561.44 893.48 593.29 864.71 C 597.39 861.00 603.71 861.32 607.42 865.42 C 611.13 869.52 610.81 875.84 606.71 879.55 C 583.09 900.92 552.36 912.75 520.50 912.72 Z" fill="#282828" fill-rule="nonzero" group-id="2" node-id="113" stroke="none" target-height="138.60638" target-width="219.20584" target-x="391.92" target-y="774.14"></path><path d="M 437.61 878.93 C 434.99 878.93 432.48 877.91 430.61 876.08 C 405.76 851.96 391.79 818.77 391.91 784.14 C 391.91 778.62 396.39 774.14 401.91 774.14 C 407.43 774.14 411.91 778.62 411.91 784.14 C 411.82 813.38 423.61 841.41 444.59 861.78 C 447.50 864.62 448.39 868.94 446.86 872.71 C 445.32 876.47 441.66 878.93 437.59 878.93 Z" fill="#282828" fill-rule="nonzero" group-id="2" node-id="115" stroke="none" target-height="104.79352" target-width="56.59967" target-x="391.79434" target-y="774.14"></path><path d="M 600.00 882.13 C 594.48 882.13 590.00 877.65 590.00 872.13 L 590.00 752.29 C 590.00 746.77 594.48 742.29 600.00 742.29 C 605.52 742.29 610.00 746.77 610.00 752.29 L 610.00 872.13 C 610.00 877.65 605.52 882.13 600.00 882.13 Z" fill="#282828" fill-rule="nonzero" group-id="2" node-id="117" stroke="none" target-height="139.84003" target-width="20" target-x="590" target-y="742.29"></path><path d="M 974.00 819.68 L 853.17 819.68 C 848.20 819.68 844.17 815.65 844.17 810.68 C 844.17 805.71 848.20 801.68 853.17 801.68 L 974.00 801.68 C 978.97 801.68 983.00 805.71 983.00 810.68 C 983.00 815.65 978.97 819.68 974.00 819.68 Z" fill="#282828" fill-rule="nonzero" group-id="2" node-id="119" stroke="none" target-height="18" target-width="138.83002" target-x="844.17" target-y="801.68"></path><path d="M 1003.31 852.43 L 882.52 852.43 C 877.55 852.43 873.52 848.40 873.52 843.43 C 873.52 838.46 877.55 834.43 882.52 834.43 L 1003.31 834.43 C 1008.28 834.43 1012.31 838.46 1012.31 843.43 C 1012.31 848.40 1008.28 852.43 1003.31 852.43 Z" fill="#282828" fill-rule="nonzero" group-id="2" node-id="121" stroke="none" target-height="18" target-width="138.78998" target-x="873.52" target-y="834.43"></path><path d="M 985.80 885.18 L 865.00 885.18 C 860.03 885.18 856.00 881.15 856.00 876.18 C 856.00 871.21 860.03 867.18 865.00 867.18 L 985.80 867.18 C 990.77 867.18 994.80 871.21 994.80 876.18 C 994.80 881.15 990.77 885.18 985.80 885.18 Z" fill="#282828" fill-rule="nonzero" group-id="2" node-id="123" stroke="none" target-height="18" target-width="138.79999" target-x="856" target-y="867.18"></path><path d="M 336.83 819.68 L 216.00 819.68 C 211.03 819.68 207.00 815.65 207.00 810.68 C 207.00 805.71 211.03 801.68 216.00 801.68 L 336.83 801.68 C 341.80 801.68 345.83 805.71 345.83 810.68 C 345.83 815.65 341.80 819.68 336.83 819.68 Z" fill="#282828" fill-rule="nonzero" group-id="2" node-id="125" stroke="none" target-height="18" target-width="138.82999" target-x="207" target-y="801.68"></path><path d="M 307.48 852.43 L 186.69 852.43 C 181.72 852.43 177.69 848.40 177.69 843.43 C 177.69 838.46 181.72 834.43 186.69 834.43 L 307.48 834.43 C 312.45 834.43 316.48 838.46 316.48 843.43 C 316.48 848.40 312.45 852.43 307.48 852.43 Z" fill="#282828" fill-rule="nonzero" group-id="2" node-id="127" stroke="none" target-height="18" target-width="138.79001" target-x="177.69" target-y="834.43"></path><path d="M 325.00 885.18 L 204.20 885.18 C 199.23 885.18 195.20 881.15 195.20 876.18 C 195.20 871.21 199.23 867.18 204.20 867.18 L 325.00 867.18 C 329.97 867.18 334.00 871.21 334.00 876.18 C 334.00 881.15 329.97 885.18 325.00 885.18 Z" fill="#282828" fill-rule="nonzero" group-id="2" node-id="129" stroke="none" target-height="18" target-width="138.8" target-x="195.2" target-y="867.18"></path><path d="M 637.68 757.54 L 617.00 778.23 C 612.50 782.75 606.38 785.29 600.00 785.29 C 593.62 785.29 587.50 782.75 583.00 778.23 L 562.66 757.89 C 553.27 748.50 553.27 733.28 562.66 723.89 C 572.05 714.50 587.27 714.50 596.66 723.89 L 600.02 727.25 L 603.74 723.53 C 612.48 714.84 626.38 714.18 635.90 722.00 C 636.51 722.51 637.11 723.00 637.68 723.62 C 647.04 732.99 647.04 748.17 637.68 757.54 Z" fill="#e85634" fill-rule="nonzero" group-id="2" node-id="131" stroke="none" target-height="71.11157" target-width="93.767334" target-x="553.2712" target-y="714.17737"></path><path d="M 632.00 750.84 L 611.30 771.54 C 606.80 776.06 600.68 778.60 594.30 778.60 C 587.92 778.60 581.80 776.06 577.30 771.54 L 559.00 753.19 C 552.73 742.78 555.24 729.33 564.83 721.87 C 574.42 714.41 588.07 715.29 596.62 723.93 L 599.98 727.29 L 603.70 723.57 C 608.11 716.84 616.12 713.40 624.03 714.85 C 631.94 716.30 638.22 722.35 639.96 730.20 C 641.70 738.05 638.56 746.19 632.00 750.84 Z" fill="#f46a40" fill-rule="nonzero" group-id="2" node-id="133" stroke="none" target-height="65.196045" target-width="88.96619" target-x="552.73376" target-y="713.4029"></path><path d="M 798.08 1143.22 C 788.14 1143.22 780.08 1135.16 780.08 1125.22 L 780.08 979.52 C 780.08 969.58 788.14 961.52 798.08 961.52 C 808.02 961.52 816.08 969.58 816.08 979.52 L 816.08 1125.22 C 816.08 1135.16 808.02 1143.22 798.08 1143.22 Z" fill="#f2f2f2" fill-rule="nonzero" group-id="2" node-id="135" stroke="none" target-height="181.69995" target-width="36" target-x="780.08" target-y="961.52"></path><path d="M 798.08 949.42 C 788.14 949.42 780.08 941.36 780.08 931.42 L 780.08 923.62 C 780.08 913.68 788.14 905.62 798.08 905.62 C 808.02 905.62 816.08 913.68 816.08 923.62 L 816.08 931.42 C 816.08 941.36 808.02 949.42 798.08 949.42 Z" fill="#f2f2f2" fill-rule="nonzero" group-id="2" node-id="137" stroke="none" target-height="43.799988" target-width="36" target-x="780.08" target-y="905.62"></path></g></svg>