<?xml version="1.0" standalone="no"?><!DOCTYPE svg PUBLIC "-//W3C//DTD SVG 1.1//EN" "http://www.w3.org/Graphics/SVG/1.1/DTD/svg11.dtd"><svg t="1711439139820" class="icon" viewBox="0 0 1024 1024" version="1.1" xmlns="http://www.w3.org/2000/svg" p-id="4384" width="16" height="16" xmlns:xlink="http://www.w3.org/1999/xlink"><path d="M237.568 315.904h106.496c19.456 0 35.328-15.872 35.328-35.328v-168.96c0-19.456-15.872-35.328-35.328-35.328H237.568c-19.456 0-35.328 15.872-35.328 35.328v168.96c0 18.944 15.872 35.328 35.328 35.328zM988.16 118.272H401.408V271.36H988.16c19.968 0 35.84-15.872 35.84-35.84V154.112c0-19.968-15.872-35.84-35.84-35.84zM35.84 270.848h144.384V118.272H35.84c-19.968 0-35.84 15.872-35.84 35.84v80.896c0 19.968 15.872 35.84 35.84 35.84zM35.84 588.8h664.576V436.224H35.84c-19.968 0-35.84 15.872-35.84 35.84V552.96c0 19.968 15.872 35.84 35.84 35.84zM988.16 436.224h-66.56V588.8h66.56c19.968 0 35.84-15.872 35.84-35.84V472.064c0-19.968-15.872-35.84-35.84-35.84zM0 790.016v80.896c0 19.968 15.872 35.84 35.84 35.84h305.152v-153.088H35.84c-19.968 0.512-35.84 16.384-35.84 36.352zM988.16 754.176h-425.984v153.088H988.16c19.968 0 35.84-15.872 35.84-35.84v-80.896c0-20.48-15.872-36.352-35.84-36.352zM864.256 627.712c19.456 0 35.328-15.872 35.328-35.328v-168.96c0-19.456-15.872-35.328-35.328-35.328H757.76c-19.456 0-35.328 15.872-35.328 35.328v168.96c0 19.456 15.872 35.328 35.328 35.328h106.496zM504.832 708.096H398.336c-19.456 0-35.328 15.872-35.328 35.328v168.96c0 19.456 15.872 35.328 35.328 35.328h106.496c19.456 0 35.328-15.872 35.328-35.328v-168.96c0-18.944-15.872-35.328-35.328-35.328z" fill="#ffffff" p-id="4385" data-spm-anchor-id="a313x.search_index.0.i0.a5f33a81soifK5" class="selected"></path></svg>