<?xml version="1.0" standalone="no"?><!DOCTYPE svg PUBLIC "-//W3C//DTD SVG 1.1//EN" "http://www.w3.org/Graphics/SVG/1.1/DTD/svg11.dtd"><svg t="1705155993133" class="icon" viewBox="0 0 1024 1024" version="1.1" xmlns="http://www.w3.org/2000/svg" p-id="17210" xmlns:xlink="http://www.w3.org/1999/xlink" width="16" height="16"><path d="M272.597333 1022.72c-40.448 0-83.029333-31.872-83.029333-93.610667v-144.725333c0-57.429333 36.181333-123.392 87.253333-151.04l202.197334-119.210667-202.197334-119.168c-48.938667-31.957333-87.253333-95.786667-87.253333-153.258666V94.890667C189.568 33.152 232.149333 1.237333 274.773333 1.237333c17.024 0 36.138667 4.266667 53.162667 14.933334L783.36 286.378667c31.914667 19.157333 48.938667 48.938667 48.938667 78.72 0 31.957333-19.2 61.738667-48.938667 78.762666L674.816 507.733333l108.544 63.872c31.914667 19.157333 51.072 48.938667 51.072 78.72 0 31.914667-19.2 61.738667-51.072 78.762667L327.893333 1007.872c-19.114667 10.666667-36.138667 14.890667-55.296 14.890667z m304.298667-451.114667l-249.002667 146.816c-19.114667 10.666667-38.272 44.714667-38.272 65.962667v129.834667l432-255.36zM289.621333 111.914667v129.792c0 21.333333 19.157333 55.338667 38.272 66.005333l249.002667 146.816 146.858667-87.253333z" p-id="17211" fill="#ffffff"></path></svg>