<?xml version="1.0" standalone="no"?><!DOCTYPE svg PUBLIC "-//W3C//DTD SVG 1.1//EN" "http://www.w3.org/Graphics/SVG/1.1/DTD/svg11.dtd"><svg t="1705155683349" class="icon" viewBox="0 0 1024 1024" version="1.1" xmlns="http://www.w3.org/2000/svg" p-id="11437" xmlns:xlink="http://www.w3.org/1999/xlink" width="16" height="16"><path d="M395.989333 896l500.010667-500.010667 0 121.984-377.984 377.984-121.984 0zM896 809.984q0 34.005333-25.984 59.989333t-59.989333 25.984l-84.010667 0 169.984-169.984 0 84.010667zM214.016 128l84.010667 0-169.984 169.984 0-84.010667q0-34.005333 25.984-59.989333t59.989333-25.984zM505.984 128l121.984 0-500.010667 500.010667 0-121.984zM832 132.010667q50.005333 13.994667 61.994667 59.989333l-701.994667 699.989333q-45.994667-13.994667-59.989333-59.989333z" fill="#ffffff" p-id="11438"></path></svg>