<?xml version="1.0" standalone="no"?><!DOCTYPE svg PUBLIC "-//W3C//DTD SVG 1.1//EN" "http://www.w3.org/Graphics/SVG/1.1/DTD/svg11.dtd"><svg t="1636248844477" class="icon" viewBox="0 0 1024 1024" version="1.1" xmlns="http://www.w3.org/2000/svg" p-id="26458" xmlns:xlink="http://www.w3.org/1999/xlink" width="200" height="200"><defs><style type="text/css"></style></defs><path d="M373.333333 501.333333h-27.733333l117.333333-117.333333-14.933333-14.933333-136.533333 134.4-6.4 8.533333 6.4 8.533333 136.533333 134.4 14.933333-14.933333-117.333333-117.333333h369.066667v-21.333334H384z" fill="#2c2c2c" p-id="26459"></path><path d="M512 74.666667C270.933333 74.666667 74.666667 270.933333 74.666667 512S270.933333 949.333333 512 949.333333 949.333333 753.066667 949.333333 512 753.066667 74.666667 512 74.666667z m0 853.333333C281.6 928 96 742.4 96 512S281.6 96 512 96 928 281.6 928 512 742.4 928 512 928z" fill="#2c2c2c" p-id="26460"></path></svg>