<?xml version="1.0" standalone="no"?><!DOCTYPE svg PUBLIC "-//W3C//DTD SVG 1.1//EN" "http://www.w3.org/Graphics/SVG/1.1/DTD/svg11.dtd"><svg t="1648198562336" class="icon" viewBox="0 0 1024 1024" version="1.1" xmlns="http://www.w3.org/2000/svg" p-id="8357" xmlns:xlink="http://www.w3.org/1999/xlink" width="16" height="16"><defs><style type="text/css">@font-face { font-family: feedback-iconfont; src: url("//at.alicdn.com/t/font_1031158_u69w8yhxdu.woff2?t=1630033759944") format("woff2"), url("//at.alicdn.com/t/font_1031158_u69w8yhxdu.woff?t=1630033759944") format("woff"), url("//at.alicdn.com/t/font_1031158_u69w8yhxdu.ttf?t=1630033759944") format("truetype"); }
</style></defs><path d="M293.227368 422.107667c-89.831958 0-162.9083-73.076342-162.9083-162.89909S203.39541 96.309486 293.227368 96.309486c89.822748 0 162.89909 73.076342 162.89909 162.89909S383.050116 422.107667 293.227368 422.107667zM293.227368 153.027256c-58.555627 0-106.189508 47.634904-106.189508 106.180298s47.634904 106.180298 106.189508 106.180298c58.546418 0 106.180298-47.634904 106.180298-106.180298S351.773785 153.027256 293.227368 153.027256z" p-id="8358" fill="#ffffff"></path><path d="M722.196303 837.100286c-89.822748 0-162.89909-73.076342-162.89909-162.89909s73.076342-162.89909 162.89909-162.89909c89.831958 0 162.9083 73.076342 162.9083 162.89909S812.028261 837.100286 722.196303 837.100286zM722.196303 568.019875c-58.546418 0-106.180298 47.634904-106.180298 106.180298 0 58.546418 47.634904 106.180298 106.180298 106.180298 58.555627 0 106.189508-47.634904 106.189508-106.180298C828.38581 615.654778 780.75193 568.019875 722.196303 568.019875z" p-id="8359" fill="#ffffff"></path><path d="M725.704197 422.107667c-89.822748 0-162.89909-73.076342-162.89909-162.89909S635.881448 96.309486 725.704197 96.309486s162.89909 73.076342 162.89909 162.89909S815.526945 422.107667 725.704197 422.107667zM725.704197 153.027256c-58.546418 0-106.180298 47.634904-106.180298 106.180298s47.634904 106.180298 106.180298 106.180298c58.546418 0 106.180298-47.634904 106.180298-106.180298S784.250614 153.027256 725.704197 153.027256z" p-id="8360" fill="#ffffff"></path><path d="M293.227368 837.100286c-89.831958 0-162.9083-73.076342-162.9083-162.89909s73.076342-162.89909 162.9083-162.89909c89.822748 0 162.89909 73.076342 162.89909 162.89909S383.050116 837.100286 293.227368 837.100286zM293.227368 568.019875c-58.555627 0-106.189508 47.634904-106.189508 106.180298 0 58.546418 47.634904 106.180298 106.189508 106.180298 58.546418 0 106.180298-47.634904 106.180298-106.180298C399.407666 615.654778 351.773785 568.019875 293.227368 568.019875z" p-id="8361" fill="#ffffff"></path><path d="M617.926518 617.943914c-7.256264 0-14.511505-2.769067-20.050662-8.308223L375.86753 387.636574c-11.07729-11.078313-11.07729-29.024034 0-40.101323 11.078313-11.078313 29.024034-11.078313 40.101323 0L637.977179 569.534368c11.078313 11.078313 11.078313 29.024034 0 40.101323C632.438023 615.174847 625.182782 617.943914 617.926518 617.943914z" p-id="8362" fill="#ffffff"></path><path d="M395.918191 617.943914c-7.256264 0-14.511505-2.769067-20.050662-8.308223-11.07729-11.078313-11.07729-29.024034 0-40.101323l222.008326-221.999117c11.078313-11.078313 29.024034-11.078313 40.101323 0s11.078313 29.024034 0 40.101323L415.968853 609.635691C410.43072 615.174847 403.174456 617.943914 395.918191 617.943914z" p-id="8363" fill="#ffffff"></path></svg>