<?xml version="1.0" standalone="no"?><!DOCTYPE svg PUBLIC "-//W3C//DTD SVG 1.1//EN" "http://www.w3.org/Graphics/SVG/1.1/DTD/svg11.dtd"><svg t="1637394341526" class="icon" viewBox="0 0 1024 1024" version="1.1" xmlns="http://www.w3.org/2000/svg" p-id="7202" data-spm-anchor-id="a313x.7781069.0.i8" xmlns:xlink="http://www.w3.org/1999/xlink" width="16" height="16"><defs><style type="text/css"></style></defs><path d="M585.512782 341.443509c20.325931 0 36.808324-16.482393 36.808324-36.810371 0-20.300348-16.48137-36.781718-36.808324-36.781718-20.303418 0-36.784788 16.48137-36.784788 36.781718C548.726971 324.960093 565.209364 341.443509 585.512782 341.443509z" p-id="7203" fill="#ffffff"></path><path d="M701.161732 267.851421c-20.325931 0-36.809347 16.48137-36.809347 36.781718 0 20.326954 16.482393 36.810371 36.809347 36.810371 20.300348 0 36.782741-16.482393 36.782741-36.810371C737.945497 284.33279 721.462081 267.851421 701.161732 267.851421z" p-id="7204" fill="#ffffff"></path><path d="M643.336746 446.547289c-23.184025 0-42.056861-18.847254-42.056861-42.031279l-42.031279 0c0 46.367027 37.72009 84.087117 84.08814 84.087117 46.36805 0 84.089164-37.72009 84.089164-84.087117l-42.032302 0C685.392584 427.699012 666.520771 446.547289 643.336746 446.547289z" p-id="7205" fill="#ffffff"></path><path d="M320.095807 513.090844c20.325931 0 36.807301-16.482393 36.807301-36.810371 0-20.300348-16.48137-36.781718-36.807301-36.781718-20.303418 0-36.784788 16.48137-36.784788 36.781718C283.311019 496.607428 299.792389 513.090844 320.095807 513.090844z" p-id="7206" fill="#ffffff"></path><path d="M435.74578 439.498756c-20.326954 0-36.809347 16.48137-36.809347 36.781718 0 20.326954 16.482393 36.810371 36.809347 36.810371 20.300348 0 36.782741-16.482393 36.782741-36.810371C472.528522 455.980125 456.046129 439.498756 435.74578 439.498756z" p-id="7207" fill="#ffffff"></path><path d="M377.91977 618.193601c-23.185049 0-42.056861-18.847254-42.056861-42.031279l-42.031279 0c0 46.367027 37.72009 84.087117 84.08814 84.087117 46.36805 0 84.08814-37.72009 84.08814-84.087117l-42.032302 0C419.975609 599.34737 401.103796 618.193601 377.91977 618.193601z" p-id="7208" fill="#ffffff"></path><path d="M805.623899 470.618521c3.991917-14.364149 6.284123-29.441543 6.284123-45.087894l-0.36839 0L811.539632 278.371008l0.36839 0c0-92.910063-75.292823-168.202886-168.20084-168.202886-92.885504 0-168.177304 75.292823-168.177304 168.202886l-0.393973 0 0 34.105772c-27.380604-19.312858-60.784388-30.6603-96.844675-30.6603-92.885504 0-168.178327 75.292823-168.178327 168.202886l-0.393973 0 0 147.159618 0.393973 0c0 15.496949 2.266623 30.453592 6.183839 44.693922C124.261607 696.937013 62.557266 797.48401 62.557266 912.541489l42.043558 0c0-97.369631 51.307549-182.837188 128.178311-231.249805 29.121248 50.210565 83.301218 84.08814 145.510048 84.08814 62.086034 0 116.16572-33.728172 145.311527-83.768869 76.574003 48.489364 127.623679 133.785006 127.623679 230.931556l42.056861 0c0-114.787326-61.420885-215.111243-153.075351-270.275633 3.991917-14.364149 6.285147-29.442566 6.285147-45.088918l-0.369414 0 0-34.793434c27.498284 19.712971 61.156872 31.347962 97.584526 31.347962 62.086034 0 116.166743-33.728172 145.31255-83.767845 76.574003 48.489364 127.622656 133.783982 127.622656 230.930533l42.057885 0C958.69925 626.107851 897.278365 525.781888 805.623899 470.618521zM504.434186 597.176938c0 69.553099-56.568367 126.146025-126.143978 126.146025-69.552076 0-126.145002-56.593949-126.145002-126.146025l-0.369414 0L251.775792 450.018344l0.369414 0c0-69.577658 56.593949-126.147048 126.145002-126.147048 69.575612 0 126.143978 56.56939 126.143978 126.147048l-0.367367 0 0 147.159618L504.434186 597.177961zM769.851161 425.530626c0 69.553099-56.568367 126.146025-126.143978 126.146025-39.286772 0-74.430176-18.060331-97.584526-46.308699l0-55.350632 0.369414 0c0-35.20378-10.81737-67.873854-29.300326-94.881974l0-76.765361 0.369414 0c0-69.577658 56.593949-126.147048 126.145002-126.147048 69.575612 0 126.143978 56.56939 126.143978 126.147048l-0.36839 0 0 147.159618L769.851161 425.529603z" p-id="7209" data-spm-anchor-id="a313x.7781069.0.i9" class="" fill="#ffffff"></path></svg>